  0
SECTION
  2
HEADER
  9
$ACADVER
  1
AC1032
  9
$ACADMAINTVER
 90
      110
  9
$DWGCODEPAGE
  3
ANSI_1252
  9
$REQUIREDVERSIONS
160
                 0
  9
$INSBASE
 10
0.0
 20
0.0
 30
0.0
  9
$EXTMIN
 10
1.000000000000000E+20
 20
1.000000000000000E+20
 30
1.000000000000000E+20
  9
$EXTMAX
 10
-1.000000000000000E+20
 20
-1.000000000000000E+20
 30
-1.000000000000000E+20
  9
$LIMMIN
 10
0.0
 20
0.0
  9
$LIMMAX
 10
12.0
 20
9.0
  9
$ORTHOMODE
 70
     0
  9
$REGENMODE
 70
     1
  9
$FILLMODE
 70
     1
  9
$QTEXTMODE
 70
     0
  9
$MIRRTEXT
 70
     0
  9
$LTSCALE
 40
1.0
  9
$ATTMODE
 70
     1
  9
$TEXTSIZE
 40
0.2
  9
$TRACEWID
 40
0.05
  9
$TEXTSTYLE
  7
Standard
  9
$CLAYER
  8
0
  9
$CELTYPE
  6
ByLayer
  9
$CECOLOR
 62
   256
  9
$CELTSCALE
 40
1.0
  9
$DISPSILH
 70
     0
  9
$DIMSCALE
 40
1.0
  9
$DIMASZ
 40
0.18
  9
$DIMEXO
 40
0.0625
  9
$DIMDLI
 40
0.38
  9
$DIMRND
 40
0.0
  9
$DIMDLE
 40
0.0
  9
$DIMEXE
 40
0.18
  9
$DIMTP
 40
0.0
  9
$DIMTM
 40
0.0
  9
$DIMTXT
 40
0.18
  9
$DIMCEN
 40
0.09
  9
$DIMTSZ
 40
0.0
  9
$DIMTOL
 70
     0
  9
$DIMLIM
 70
     0
  9
$DIMTIH
 70
     1
  9
$DIMTOH
 70
     1
  9
$DIMSE1
 70
     0
  9
$DIMSE2
 70
     0
  9
$DIMTAD
 70
     0
  9
$DIMZIN
 70
     0
  9
$DIMBLK
  1

  9
$DIMASO
 70
     1
  9
$DIMSHO
 70
     1
  9
$DIMPOST
  1

  9
$DIMAPOST
  1

  9
$DIMALT
 70
     0
  9
$DIMALTD
 70
     2
  9
$DIMALTF
 40
25.4
  9
$DIMLFAC
 40
1.0
  9
$DIMTOFL
 70
     0
  9
$DIMTVP
 40
0.0
  9
$DIMTIX
 70
     0
  9
$DIMSOXD
 70
     0
  9
$DIMSAH
 70
     0
  9
$DIMBLK1
  1

  9
$DIMBLK2
  1

  9
$DIMSTYLE
  2
Standard
  9
$DIMCLRD
 70
     0
  9
$DIMCLRE
 70
     0
  9
$DIMCLRT
 70
     0
  9
$DIMTFAC
 40
1.0
  9
$DIMGAP
 40
0.09
  9
$DIMJUST
 70
     0
  9
$DIMSD1
 70
     0
  9
$DIMSD2
 70
     0
  9
$DIMTOLJ
 70
     1
  9
$DIMTZIN
 70
     0
  9
$DIMALTZ
 70
     0
  9
$DIMALTTZ
 70
     0
  9
$DIMUPT
 70
     0
  9
$DIMDEC
 70
     4
  9
$DIMTDEC
 70
     4
  9
$DIMALTU
 70
     2
  9
$DIMALTTD
 70
     2
  9
$DIMTXSTY
  7
Standard
  9
$DIMAUNIT
 70
     0
  9
$DIMADEC
 70
     0
  9
$DIMALTRND
 40
0.0
  9
$DIMAZIN
 70
     0
  9
$DIMDSEP
 70
    46
  9
$DIMATFIT
 70
     3
  9
$DIMFRAC
 70
     0
  9
$DIMLDRBLK
  1

  9
$DIMLUNIT
 70
     2
  9
$DIMLWD
 70
    -2
  9
$DIMLWE
 70
    -2
  9
$DIMTMOVE
 70
     0
  9
$DIMFXL
 40
1.0
  9
$DIMFXLON
 70
     0
  9
$DIMJOGANG
 40
0.7853981633974483
  9
$DIMTFILL
 70
     0
  9
$DIMTFILLCLR
 70
     0
  9
$DIMARCSYM
 70
     0
  9
$DIMLTYPE
  6

  9
$DIMLTEX1
  6

  9
$DIMLTEX2
  6

  9
$DIMTXTDIRECTION
 70
     0
  9
$LUNITS
 70
     2
  9
$LUPREC
 70
     4
  9
$SKETCHINC
 40
0.1
  9
$FILLETRAD
 40
0.0
  9
$AUNITS
 70
     0
  9
$AUPREC
 70
     0
  9
$MENU
  1
.
  9
$ELEVATION
 40
0.0
  9
$PELEVATION
 40
0.0
  9
$THICKNESS
 40
0.0
  9
$LIMCHECK
 70
     0
  9
$CHAMFERA
 40
0.0
  9
$CHAMFERB
 40
0.0
  9
$CHAMFERC
 40
0.0
  9
$CHAMFERD
 40
0.0
  9
$SKPOLY
 70
     0
  9
$TDCREATE
 40
2459345.493229167
  9
$TDUCREATE
 40
2459345.784895833
  9
$TDUPDATE
 40
2459345.493229167
  9
$TDUUPDATE
 40
2459345.784895833
  9
$TDINDWG
 40
0.0000000000
  9
$TDUSRTIMER
 40
0.0000000000
  9
$USRTIMER
 70
     1
  9
$ANGBASE
 50
0.0
  9
$ANGDIR
 70
     0
  9
$PDMODE
 70
     0
  9
$PDSIZE
 40
0.0
  9
$PLINEWID
 40
0.0
  9
$SPLFRAME
 70
     0
  9
$SPLINETYPE
 70
     6
  9
$SPLINESEGS
 70
     8
  9
$HANDSEED
  5
A3
  9
$SURFTAB1
 70
     6
  9
$SURFTAB2
 70
     6
  9
$SURFTYPE
 70
     6
  9
$SURFU
 70
     6
  9
$SURFV
 70
     6
  9
$UCSBASE
  2

  9
$UCSNAME
  2

  9
$UCSORG
 10
0.0
 20
0.0
 30
0.0
  9
$UCSXDIR
 10
1.0
 20
0.0
 30
0.0
  9
$UCSYDIR
 10
0.0
 20
1.0
 30
0.0
  9
$UCSORTHOREF
  2

  9
$UCSORTHOVIEW
 70
     0
  9
$UCSORGTOP
 10
0.0
 20
0.0
 30
0.0
  9
$UCSORGBOTTOM
 10
0.0
 20
0.0
 30
0.0
  9
$UCSORGLEFT
 10
0.0
 20
0.0
 30
0.0
  9
$UCSORGRIGHT
 10
0.0
 20
0.0
 30
0.0
  9
$UCSORGFRONT
 10
0.0
 20
0.0
 30
0.0
  9
$UCSORGBACK
 10
0.0
 20
0.0
 30
0.0
  9
$PUCSBASE
  2

  9
$PUCSNAME
  2

  9
$PUCSORG
 10
0.0
 20
0.0
 30
0.0
  9
$PUCSXDIR
 10
1.0
 20
0.0
 30
0.0
  9
$PUCSYDIR
 10
0.0
 20
1.0
 30
0.0
  9
$PUCSORTHOREF
  2

  9
$PUCSORTHOVIEW
 70
     0
  9
$PUCSORGTOP
 10
0.0
 20
0.0
 30
0.0
  9
$PUCSORGBOTTOM
 10
0.0
 20
0.0
 30
0.0
  9
$PUCSORGLEFT
 10
0.0
 20
0.0
 30
0.0
  9
$PUCSORGRIGHT
 10
0.0
 20
0.0
 30
0.0
  9
$PUCSORGFRONT
 10
0.0
 20
0.0
 30
0.0
  9
$PUCSORGBACK
 10
0.0
 20
0.0
 30
0.0
  9
$USERI1
 70
     0
  9
$USERI2
 70
     0
  9
$USERI3
 70
     0
  9
$USERI4
 70
     0
  9
$USERI5
 70
     0
  9
$USERR1
 40
0.0
  9
$USERR2
 40
0.0
  9
$USERR3
 40
0.0
  9
$USERR4
 40
0.0
  9
$USERR5
 40
0.0
  9
$WORLDVIEW
 70
     1
  9
$SHADEDGE
 70
     3
  9
$SHADEDIF
 70
    70
  9
$TILEMODE
 70
     1
  9
$MAXACTVP
 70
    64
  9
$PINSBASE
 10
0.0
 20
0.0
 30
0.0
  9
$PLIMCHECK
 70
     0
  9
$PEXTMIN
 10
1.000000000000000E+20
 20
1.000000000000000E+20
 30
1.000000000000000E+20
  9
$PEXTMAX
 10
-1.000000000000000E+20
 20
-1.000000000000000E+20
 30
-1.000000000000000E+20
  9
$PLIMMIN
 10
0.0
 20
0.0
  9
$PLIMMAX
 10
12.0
 20
9.0
  9
$UNITMODE
 70
     0
  9
$VISRETAIN
 70
     1
  9
$PLINEGEN
 70
     0
  9
$PSLTSCALE
 70
     1
  9
$TREEDEPTH
 70
  3020
  9
$CMLSTYLE
  2
Standard
  9
$CMLJUST
 70
     0
  9
$CMLSCALE
 40
1.0
  9
$PROXYGRAPHICS
 70
     1
  9
$MEASUREMENT
 70
     0
  9
$CELWEIGHT
370
    -1
  9
$ENDCAPS
280
     0
  9
$JOINSTYLE
280
     0
  9
$LWDISPLAY
290
     1
  9
$INSUNITS
 70
     0
  9
$HYPERLINKBASE
  1

  9
$STYLESHEET
  1

  9
$XEDIT
290
     1
  9
$CEPSNTYPE
380
     0
  9
$PSTYLEMODE
290
     1
  9
$FINGERPRINTGUID
  2
{995FE1BD-C62C-1B47-9B0F-FDFC447138EE}
  9
$VERSIONGUID
  2
{82384D9C-1365-A044-879D-B0128BF15B01}
  9
$EXTNAMES
290
     1
  9
$PSVPSCALE
 40
0.0
  9
$OLESTARTUP
290
     0
  9
$SORTENTS
280
   127
  9
$INDEXCTL
280
     0
  9
$HIDETEXT
280
     1
  9
$XCLIPFRAME
280
     2
  9
$HALOGAP
280
     0
  9
$OBSCOLOR
 70
   257
  9
$OBSLTYPE
280
     0
  9
$INTERSECTIONDISPLAY
280
     0
  9
$INTERSECTIONCOLOR
 70
   257
  9
$DIMASSOC
280
     2
  9
$PROJECTNAME
  1

  9
$CAMERADISPLAY
290
     0
  9
$LENSLENGTH
 40
50.0
  9
$CAMERAHEIGHT
 40
0.0
  9
$STEPSPERSEC
 40
2.0
  9
$STEPSIZE
 40
6.0
  9
$3DDWFPREC
 40
2.0
  9
$PSOLWIDTH
 40
0.25
  9
$PSOLHEIGHT
 40
4.0
  9
$LOFTANG1
 40
1.570796326794896
  9
$LOFTANG2
 40
1.570796326794896
  9
$LOFTMAG1
 40
0.0
  9
$LOFTMAG2
 40
0.0
  9
$LOFTPARAM
 70
     7
  9
$LOFTNORMALS
280
     1
  9
$LATITUDE
 40
37.795
  9
$LONGITUDE
 40
-122.394
  9
$NORTHDIRECTION
 40
0.0
  9
$TIMEZONE
 70
 -8000
  9
$LIGHTGLYPHDISPLAY
280
     1
  9
$TILEMODELIGHTSYNCH
280
     1
  9
$CMATERIAL
347
11
  9
$SOLIDHIST
280
     0
  9
$SHOWHIST
280
     1
  9
$DWFFRAME
280
     2
  9
$DGNFRAME
280
     0
  9
$REALWORLDSCALE
290
     1
  9
$INTERFERECOLOR
 62
     1
  9
$INTERFEREOBJVS
345
33
  9
$INTERFEREVPVS
346
30
  9
$CSHADOW
280
     0
  9
$SHADOWPLANELOCATION
 40
0.0
  0
ENDSEC
  0
SECTION
  2
CLASSES
  0
CLASS
  1
ACDBDICTIONARYWDFLT
  2
AcDbDictionaryWithDefault
  3
ObjectDBX Classes
 90
        0
 91
        1
280
     0
281
     0
  0
CLASS
  1
MATERIAL
  2
AcDbMaterial
  3
ObjectDBX Classes
 90
     1153
 91
        3
280
     0
281
     0
  0
CLASS
  1
VISUALSTYLE
  2
AcDbVisualStyle
  3
ObjectDBX Classes
 90
     4095
 91
       24
280
     0
281
     0
  0
CLASS
  1
SCALE
  2
AcDbScale
  3
ObjectDBX Classes
 90
     1153
 91
       17
280
     0
281
     0
  0
CLASS
  1
TABLESTYLE
  2
AcDbTableStyle
  3
ObjectDBX Classes
 90
     4095
 91
        1
280
     0
281
     0
  0
CLASS
  1
MLEADERSTYLE
  2
AcDbMLeaderStyle
  3
ACDB_MLEADERSTYLE_CLASS
 90
     4095
 91
        1
280
     0
281
     0
  0
CLASS
  1
ACDBSECTIONVIEWSTYLE
  2
AcDbSectionViewStyle
  3
ObjectDBX Classes
 90
     1025
 91
        1
280
     0
281
     0
  0
CLASS
  1
ACDBDETAILVIEWSTYLE
  2
AcDbDetailViewStyle
  3
ObjectDBX Classes
 90
     1025
 91
        1
280
     0
281
     0
  0
CLASS
  1
DICTIONARYVAR
  2
AcDbDictionaryVar
  3
ObjectDBX Classes
 90
        0
 91
        5
280
     0
281
     0
  0
CLASS
  1
CELLSTYLEMAP
  2
AcDbCellStyleMap
  3
ObjectDBX Classes
 90
     1152
 91
        1
280
     0
281
     0
  0
ENDSEC
  0
SECTION
  2
TABLES
  0
TABLE
  2
VPORT
  5
8
330
0
100
AcDbSymbolTable
 70
     1
  0
VPORT
  5
57
330
8
100
AcDbSymbolTableRecord
100
AcDbViewportTableRecord
  2
*Active
 70
     0
 10
0.0
 20
0.0
 11
1.0
 21
1.0
 12
0.0
 22
0.0
 13
0.0
 23
0.0
 14
1.0
 24
1.0
 15
0.0
 25
0.0
 16
0.0
 26
0.0
 36
1.0
 17
150.0
 27
-150.0
 37
0.0
 40
306.0
 41
1.0
 42
50.0
 43
0.0
 44
0.0
 50
0.0
 51
0.0
 71
     0
 72
   100
 73
     1
 74
     0
 75
     1
 76
     0
 77
     0
 78
     0
281
     0
 65
     1
110
0.0
120
0.0
130
0.0
111
1.0
121
0.0
131
0.0
112
0.0
122
1.0
132
0.0
 79
     0
146
0.0
 60
     3
 61
     5
292
     1
282
     1
141
0.0
142
0.0
 63
   250
421
  3355443
  0
ENDTAB
  0
TABLE
  2
LTYPE
  5
5
330
0
100
AcDbSymbolTable
 70
     1
  0
LTYPE
  5
5B
330
5
100
AcDbSymbolTableRecord
100
AcDbLinetypeTableRecord
  2
ByBlock
 70
     0
  3

 72
    65
 73
     0
 40
0.0
  0
LTYPE
  5
5C
330
5
100
AcDbSymbolTableRecord
100
AcDbLinetypeTableRecord
  2
ByLayer
 70
     0
  3

 72
    65
 73
     0
 40
0.0
  0
LTYPE
  5
5D
330
5
100
AcDbSymbolTableRecord
100
AcDbLinetypeTableRecord
  2
Continuous
 70
     0
  3
Solid line
 72
    65
 73
     0
 40
0.0
  0
ENDTAB
  0
TABLE
  2
LAYER
  5
2
330
0
100
AcDbSymbolTable
 70
     2
  0
LAYER
  5
54
330
2
100
AcDbSymbolTableRecord
100
AcDbLayerTableRecord
  2
0
 70
     0
 62
     7
  6
Continuous
370
    -3
390
F
347
21
348
0
  0
LAYER
  5
78
330
2
100
AcDbSymbolTableRecord
100
AcDbLayerTableRecord
  2
Layer 1
 70
     0
 62
     7
  6
Continuous
370
     0
390
F
347
21
348
0
  0
ENDTAB
  0
TABLE
  2
STYLE
  5
3
330
0
100
AcDbSymbolTable
 70
     2
  0
STYLE
  5
55
330
3
100
AcDbSymbolTableRecord
100
AcDbTextStyleTableRecord
  2
Standard
 70
     0
 40
0.0
 41
1.0
 50
0.0
 71
     0
 42
0.2
  3
txt
  4

  0
STYLE
  5
5A
330
3
100
AcDbSymbolTableRecord
100
AcDbTextStyleTableRecord
  2
Annotative
 70
     0
 40
0.0
 41
1.0
 50
0.0
 71
     0
 42
0.2
  3
txt
  4

1001
AcadAnnotative
1000
AnnotativeData
1002
{
1070
     1
1070
     1
1002
}
  0
ENDTAB
  0
TABLE
  2
VIEW
  5
6
330
0
100
AcDbSymbolTable
 70
     0
  0
ENDTAB
  0
TABLE
  2
UCS
  5
7
330
0
100
AcDbSymbolTable
 70
     0
  0
ENDTAB
  0
TABLE
  2
APPID
  5
9
330
0
100
AcDbSymbolTable
 70
     2
  0
APPID
  5
56
330
9
100
AcDbSymbolTableRecord
100
AcDbRegAppTableRecord
  2
ACAD
 70
     0
  0
APPID
  5
5E
330
9
100
AcDbSymbolTableRecord
100
AcDbRegAppTableRecord
  2
AcadAnnotative
 70
     0
  0
ENDTAB
  0
TABLE
  2
DIMSTYLE
  5
A
330
0
100
AcDbSymbolTable
 70
     2
100
AcDbDimStyleTable
 71
     0
  0
DIMSTYLE
105
58
330
A
100
AcDbSymbolTableRecord
100
AcDbDimStyleTableRecord
  2
Standard
 70
     0
340
55
  0
DIMSTYLE
105
59
330
A
100
AcDbSymbolTableRecord
100
AcDbDimStyleTableRecord
  2
Annotative
 70
     0
340
55
1001
AcadAnnotative
1000
AnnotativeData
1002
{
1070
     1
1070
     1
1002
}
  0
ENDTAB
  0
TABLE
  2
BLOCK_RECORD
  5
1
330
0
100
AcDbSymbolTable
 70
     2
  0
BLOCK_RECORD
  5
70
330
1
100
AcDbSymbolTableRecord
100
AcDbBlockTableRecord
  2
*Model_Space
340
73
 70
     0
280
     1
281
     0
  0
BLOCK_RECORD
  5
6C
330
1
100
AcDbSymbolTableRecord
100
AcDbBlockTableRecord
  2
*Paper_Space
340
6F
 70
     0
280
     1
281
     0
  0
BLOCK_RECORD
  5
74
330
1
100
AcDbSymbolTableRecord
100
AcDbBlockTableRecord
  2
*Paper_Space0
340
77
 70
     0
280
     1
281
     0
  0
BLOCK_RECORD
  5
79
330
1
100
AcDbSymbolTableRecord
100
AcDbBlockTableRecord
  2
Block_0
340
0
102
{BLKREFS
331
7A
102
}
 70
     0
280
     1
281
     0
  0
ENDTAB
  0
ENDSEC
  0
SECTION
  2
BLOCKS
  0
BLOCK
  5
71
330
70
100
AcDbEntity
  8
0
100
AcDbBlockBegin
  2
*Model_Space
 70
     0
 10
0.0
 20
0.0
 30
0.0
  3
*Model_Space
  1

  0
ENDBLK
  5
72
330
70
100
AcDbEntity
  8
0
100
AcDbBlockEnd
  0
BLOCK
  5
6D
330
6C
100
AcDbEntity
 67
     1
  8
0
100
AcDbBlockBegin
  2
*Paper_Space
 70
     0
 10
0.0
 20
0.0
 30
0.0
  3
*Paper_Space
  1

  0
ENDBLK
  5
6E
330
6C
100
AcDbEntity
 67
     1
  8
0
100
AcDbBlockEnd
  0
BLOCK
  5
75
330
74
100
AcDbEntity
 67
     1
  8
0
100
AcDbBlockBegin
  2
*Paper_Space0
 70
     0
 10
0.0
 20
0.0
 30
0.0
  3
*Paper_Space0
  1

  0
ENDBLK
  5
76
330
74
100
AcDbEntity
 67
     1
  8
0
100
AcDbBlockEnd
  0
BLOCK
  5
7B
330
79
100
AcDbEntity
  8
0
100
AcDbBlockBegin
  2
Block_0
 70
     0
 10
0.0
 20
0.0
 30
0.0
  3
Block_0
  1

  0
SPLINE
  5
7D
330
79
100
AcDbEntity
  8
Layer 1
100
AcDbSpline
210
0.0
220
0.0
230
1.0
 70
     9
 71
     3
 72
    17
 73
    13
 74
     0
 42
0.0000000001
 43
0.0000000001
 40
0.0
 40
0.0
 40
0.0
 40
0.0
 40
1.0
 40
1.0
 40
1.0
 40
2.0
 40
2.0
 40
2.0
 40
3.0
 40
3.0
 40
3.0
 40
4.0
 40
4.0
 40
4.0
 40
4.0
 10
142.4143758692726
 20
-201.7595769391119
 30
0.0
 10
141.743122495619
 20
-204.6063898878547
 30
0.0
 10
144.7552212832242
 20
-202.7436773323006
 30
0.0
 10
146.1705930748048
 20
-202.3830042238187
 30
0.0
 10
149.2225379643805
 20
-201.2248032315238
 30
0.0
 10
148.6899786406775
 20
-201.7631898812342
 30
0.0
 10
148.4326244998246
 20
-198.567969909951
 30
0.0
 10
148.2403421660401
 20
-196.1808058115239
 30
0.0
 10
146.9972958312437
 20
-194.5776307295491
 30
0.0
 10
144.9531281415411
 20
-193.4581237060811
 30
0.0
 10
142.6582535910593
 20
-193.2853589175102
 30
0.0
 10
142.9633558835894
 20
-200.0427115547409
 30
0.0
 10
142.4143758692726
 20
-201.7595769391119
 30
0.0
  0
SPLINE
  5
7E
330
79
100
AcDbEntity
  8
Layer 1
100
AcDbSpline
210
0.0
220
0.0
230
1.0
 70
     9
 71
     3
 72
    17
 73
    13
 74
     0
 42
0.0000000001
 43
0.0000000001
 40
0.0
 40
0.0
 40
0.0
 40
0.0
 40
1.0
 40
1.0
 40
1.0
 40
2.0
 40
2.0
 40
2.0
 40
3.0
 40
3.0
 40
3.0
 40
4.0
 40
4.0
 40
4.0
 40
4.0
 10
222.5234617261413
 20
-79.05887609387446
 30
0.0
 10
222.4272719981982
 20
-79.07722245858349
 30
0.0
 10
222.3311211190976
 20
-79.09556882329252
 30
0.0
 10
222.2349702399952
 20
-79.1139054757923
 30
0.0
 10
221.0156171923681
 20
-90.37048279418469
 30
0.0
 10
225.4319722078762
 20
-101.2010865245183
 30
0.0
 10
228.4510565884557
 20
-111.8464424141048
 30
0.0
 10
228.5742851090672
 20
-111.8386143728367
 30
0.0
 10
228.6975136296751
 20
-111.8307863315685
 30
0.0
 10
228.8207421502866
 20
-111.8229582902995
 30
0.0
 10
230.1311398141952
 20
-100.5331890923062
 30
0.0
 10
225.7143776586618
 20
-89.68875788440346
 30
0.0
 10
222.5234617261413
 20
-79.05887609387446
 30
0.0
  0
SPLINE
  5
7F
330
79
100
AcDbEntity
  8
Layer 1
100
AcDbSpline
210
0.0
220
0.0
230
1.0
 70
     9
 71
     3
 72
    11
 73
     7
 74
     0
 42
0.0000000001
 43
0.0000000001
 40
0.0
 40
0.0
 40
0.0
 40
0.0
 40
1.0
 40
1.0
 40
1.0
 40
2.0
 40
2.0
 40
2.0
 40
2.0
 10
108.1177069332261
 20
-118.3044793383414
 30
0.0
 10
102.2416838133949
 20
-110.9331615390829
 30
0.0
 10
92.45302747631194
 20
-109.7337929654168
 30
0.0
 10
83.69083832708657
 20
-108.5545276799603
 30
0.0
 10
89.74646668531477
 20
-115.6303707556426
 30
0.0
 10
99.29071608570666
 20
-117.3916227602476
 30
0.0
 10
108.1177069332261
 20
-118.3044793383414
 30
0.0
  0
SPLINE
  5
80
330
79
100
AcDbEntity
  8
Layer 1
100
AcDbSpline
210
0.0
220
0.0
230
1.0
 70
     9
 71
     3
 72
    11
 73
     7
 74
     0
 42
0.0000000001
 43
0.0000000001
 40
0.0
 40
0.0
 40
0.0
 40
0.0
 40
1.0
 40
1.0
 40
1.0
 40
2.0
 40
2.0
 40
2.0
 40
2.0
 10
205.7963749428927
 20
-187.7320377770611
 30
0.0
 10
205.4941309673723
 20
-195.8326036582384
 30
0.0
 10
211.0031295782446
 20
-212.6589298033705
 30
0.0
 10
214.8721438312005
 20
-215.8721562120117
 30
0.0
 10
217.0267695197162
 20
-205.5589376094158
 30
0.0
 10
209.5506896817296
 20
-196.7875485212389
 30
0.0
 10
205.7963749428927
 20
-187.7320377770611
 30
0.0
  0
SPLINE
  5
81
330
79
100
AcDbEntity
  8
Layer 1
100
AcDbSpline
210
0.0
220
0.0
230
1.0
 70
     9
 71
     3
 72
    14
 73
    10
 74
     0
 42
0.0000000001
 43
0.0000000001
 40
0.0
 40
0.0
 40
0.0
 40
0.0
 40
1.0
 40
1.0
 40
1.0
 40
2.0
 40
2.0
 40
2.0
 40
3.0
 40
3.0
 40
3.0
 40
3.0
 10
111.2402795736307
 20
-103.2212812214338
 30
0.0
 10
111.3866425784854
 20
-103.1748374331646
 30
0.0
 10
111.5330250077604
 20
-103.128374220475
 30
0.0
 10
111.6793880126151
 20
-103.0819110077864
 30
0.0
 10
112.3070949598405
 20
-91.77465849857345
 30
0.0
 10
109.7957305238069
 20
-81.12417654957335
 30
0.0
 10
104.357683101005
 20
-71.07706140449408
 30
0.0
 10
102.3832831188438
 20
-82.16767832277492
 30
0.0
 10
106.8729196631639
 20
-93.25487976371368
 30
0.0
 10
111.2402795736307
 20
-103.2212812214338
 30
0.0
  0
SPLINE
  5
82
330
79
100
AcDbEntity
  8
Layer 1
100
AcDbSpline
210
0.0
220
0.0
230
1.0
 70
     9
 71
     3
 72
    11
 73
     7
 74
     0
 42
0.0000000001
 43
0.0000000001
 40
0.0
 40
0.0
 40
0.0
 40
0.0
 40
1.0
 40
1.0
 40
1.0
 40
2.0
 40
2.0
 40
2.0
 40
2.0
 10
224.3983455953658
 20
-162.8539787426834
 30
0.0
 10
222.9042934601712
 20
-148.6598119149839
 30
0.0
 10
214.1586156088524
 20
-136.838893026008
 30
0.0
 10
205.6451364086115
 20
-125.971200798358
 30
0.0
 10
209.6046452058872
 20
-139.3431443936479
 30
0.0
 10
214.6976377628962
 20
-152.5677412133263
 30
0.0
 10
224.3983455953658
 20
-162.8539787426834
 30
0.0
  0
SPLINE
  5
83
330
79
100
AcDbEntity
  8
Layer 1
100
AcDbSpline
210
0.0
220
0.0
230
1.0
 70
     9
 71
     3
 72
    11
 73
     7
 74
     0
 42
0.0000000001
 43
0.0000000001
 40
0.0
 40
0.0
 40
0.0
 40
0.0
 40
1.0
 40
1.0
 40
1.0
 40
2.0
 40
2.0
 40
2.0
 40
2.0
 10
84.45511155721488
 20
-71.12183469264164
 30
0.0
 10
82.62544347679341
 20
-57.64166141286114
 30
0.0
 10
70.13658123416917
 20
-49.91467849151923
 30
0.0
 10
63.33066629645236
 20
-39.09143226481229
 30
0.0
 10
63.2615763278809
 20
-53.16494551638152
 30
0.0
 10
72.53507189562061
 20
-64.51194270192536
 30
0.0
 10
84.45511155721488
 20
-71.12183469264164
 30
0.0
  0
SPLINE
  5
84
330
79
100
AcDbEntity
  8
Layer 1
100
AcDbSpline
210
0.0
220
0.0
230
1.0
 70
     9
 71
     3
 72
    14
 73
    10
 74
     0
 42
0.0000000001
 43
0.0000000001
 40
0.0
 40
0.0
 40
0.0
 40
0.0
 40
1.0
 40
1.0
 40
1.0
 40
2.0
 40
2.0
 40
2.0
 40
3.0
 40
3.0
 40
3.0
 40
3.0
 10
229.9267297774186
 20
-183.3043189310538
 30
0.0
 10
230.0289799244074
 20
-183.3879799080823
 30
0.0
 10
230.131268920235
 20
-183.471640885109
 30
0.0
 10
230.2335579160626
 20
-183.5553018621394
 30
0.0
 10
244.6132052866815
 20
-170.8401022877988
 30
0.0
 10
253.3182468910563
 20
-153.1800142681368
 30
0.0
 10
258.0501043623117
 20
-134.9808683853352
 30
0.0
 10
241.5644728444767
 20
-145.829304192961
 30
0.0
 10
232.7968756398186
 20
-164.2520076331329
 30
0.0
 10
229.9267297774186
 20
-183.3043189310538
 30
0.0
  0
SPLINE
  5
85
330
79
100
AcDbEntity
  8
Layer 1
100
AcDbSpline
210
0.0
220
0.0
230
1.0
 70
     9
 71
     3
 72
   281
 73
   277
 74
     0
 42
0.0000000001
 43
0.0000000001
 40
0.0
 40
0.0
 40
0.0
 40
0.0
 40
1.0
 40
1.0
 40
1.0
 40
2.0
 40
2.0
 40
2.0
 40
3.0
 40
3.0
 40
3.0
 40
4.0
 40
4.0
 40
4.0
 40
5.0
 40
5.0
 40
5.0
 40
6.0
 40
6.0
 40
6.0
 40
7.0
 40
7.0
 40
7.0
 40
8.0
 40
8.0
 40
8.0
 40
9.0
 40
9.0
 40
9.0
 40
10.0
 40
10.0
 40
10.0
 40
11.0
 40
11.0
 40
11.0
 40
12.0
 40
12.0
 40
12.0
 40
13.0
 40
13.0
 40
13.0
 40
14.0
 40
14.0
 40
14.0
 40
15.0
 40
15.0
 40
15.0
 40
16.0
 40
16.0
 40
16.0
 40
17.0
 40
17.0
 40
17.0
 40
18.0
 40
18.0
 40
18.0
 40
19.0
 40
19.0
 40
19.0
 40
20.0
 40
20.0
 40
20.0
 40
21.0
 40
21.0
 40
21.0
 40
22.0
 40
22.0
 40
22.0
 40
23.0
 40
23.0
 40
23.0
 40
24.0
 40
24.0
 40
24.0
 40
25.0
 40
25.0
 40
25.0
 40
26.0
 40
26.0
 40
26.0
 40
27.0
 40
27.0
 40
27.0
 40
28.0
 40
28.0
 40
28.0
 40
29.0
 40
29.0
 40
29.0
 40
30.0
 40
30.0
 40
30.0
 40
31.0
 40
31.0
 40
31.0
 40
32.0
 40
32.0
 40
32.0
 40
33.0
 40
33.0
 40
33.0
 40
34.0
 40
34.0
 40
34.0
 40
35.0
 40
35.0
 40
35.0
 40
36.0
 40
36.0
 40
36.0
 40
37.0
 40
37.0
 40
37.0
 40
38.0
 40
38.0
 40
38.0
 40
39.0
 40
39.0
 40
39.0
 40
40.0
 40
40.0
 40
40.0
 40
41.0
 40
41.0
 40
41.0
 40
42.0
 40
42.0
 40
42.0
 40
43.0
 40
43.0
 40
43.0
 40
44.0
 40
44.0
 40
44.0
 40
45.0
 40
45.0
 40
45.0
 40
46.0
 40
46.0
 40
46.0
 40
47.0
 40
47.0
 40
47.0
 40
48.0
 40
48.0
 40
48.0
 40
49.0
 40
49.0
 40
49.0
 40
50.0
 40
50.0
 40
50.0
 40
51.0
 40
51.0
 40
51.0
 40
52.0
 40
52.0
 40
52.0
 40
53.0
 40
53.0
 40
53.0
 40
54.0
 40
54.0
 40
54.0
 40
55.0
 40
55.0
 40
55.0
 40
56.0
 40
56.0
 40
56.0
 40
57.0
 40
57.0
 40
57.0
 40
58.0
 40
58.0
 40
58.0
 40
59.0
 40
59.0
 40
59.0
 40
60.0
 40
60.0
 40
60.0
 40
61.0
 40
61.0
 40
61.0
 40
62.0
 40
62.0
 40
62.0
 40
63.0
 40
63.0
 40
63.0
 40
64.0
 40
64.0
 40
64.0
 40
65.0
 40
65.0
 40
65.0
 40
66.0
 40
66.0
 40
66.0
 40
67.0
 40
67.0
 40
67.0
 40
68.0
 40
68.0
 40
68.0
 40
69.0
 40
69.0
 40
69.0
 40
70.0
 40
70.0
 40
70.0
 40
71.0
 40
71.0
 40
71.0
 40
72.0
 40
72.0
 40
72.0
 40
73.0
 40
73.0
 40
73.0
 40
74.0
 40
74.0
 40
74.0
 40
75.0
 40
75.0
 40
75.0
 40
76.0
 40
76.0
 40
76.0
 40
77.0
 40
77.0
 40
77.0
 40
78.0
 40
78.0
 40
78.0
 40
79.0
 40
79.0
 40
79.0
 40
80.0
 40
80.0
 40
80.0
 40
81.0
 40
81.0
 40
81.0
 40
82.0
 40
82.0
 40
82.0
 40
83.0
 40
83.0
 40
83.0
 40
84.0
 40
84.0
 40
84.0
 40
85.0
 40
85.0
 40
85.0
 40
86.0
 40
86.0
 40
86.0
 40
87.0
 40
87.0
 40
87.0
 40
88.0
 40
88.0
 40
88.0
 40
89.0
 40
89.0
 40
89.0
 40
90.0
 40
90.0
 40
90.0
 40
91.0
 40
91.0
 40
91.0
 40
92.0
 40
92.0
 40
92.0
 40
92.0
 10
65.98613990862304
 20
-61.16179821952846
 30
0.0
 10
61.4978882952646
 20
-58.35555313671102
 30
0.0
 10
52.49014114152851
 20
-19.03202078342292
 30
0.0
 10
62.96321664408151
 20
-26.89561626385421
 30
0.0
 10
66.24040668355792
 20
-40.93739055571041
 30
0.0
 10
79.31377233877992
 20
-48.34764960649772
 30
0.0
 10
85.5068397364239
 20
-60.69303699463398
 30
0.0
 10
92.04358520120422
 20
-75.63320668698725
 30
0.0
 10
86.10879811983251
 20
-75.25190305196156
 30
0.0
 10
100.7929135388303
 20
-87.77190365050774
 30
0.0
 10
100.8918615344164
 20
-87.71629153598951
 30
0.0
 10
100.99082895442
 20
-87.66067942147037
 30
0.0
 10
101.0897769500052
 20
-87.60506730695215
 30
0.0
 10
98.84160435831383
 20
-81.84961274605212
 30
0.0
 10
98.55378568599917
 20
-60.96027158195193
 30
0.0
 10
104.4501117080081
 20
-59.23839549192599
 30
0.0
 10
105.7117934611933
 20
-59.30870284240064
 30
0.0
 10
106.7363989654959
 20
-60.6593105844031
 30
0.0
 10
106.7888517193541
 20
-62.04550489906797
 30
0.0
 10
108.9318629828785
 20
-74.49362468602339
 30
0.0
 10
117.280367289919
 20
-85.13784327316807
 30
0.0
 10
116.0393113270629
 20
-98.36031447671031
 30
0.0
 10
115.8797898470748
 20
-102.3665109625317
 30
0.0
 10
116.3602442403289
 20
-106.6485082703702
 30
0.0
 10
115.8536111714566
 20
-110.5690750205958
 30
0.0
 10
115.0122105753244
 20
-111.5491710901124
 30
0.0
 10
115.573110127837
 20
-112.3232148035076
 30
0.0
 10
116.0377228303086
 20
-113.1458584157999
 30
0.0
 10
120.3559848184331
 20
-120.4480513220533
 30
0.0
 10
121.4475449246283
 20
-129.0420856107057
 30
0.0
 10
125.4250609213486
 20
-136.5334629895414
 30
0.0
 10
133.6331899627948
 20
-156.7790773013075
 30
0.0
 10
135.4558071682731
 20
-180.6638388910305
 30
0.0
 10
126.7626143980533
 20
-201.0880158485961
 30
0.0
 10
125.1961272253893
 20
-205.1495341394621
 30
0.0
 10
134.8353618131887
 20
-202.0681528286023
 30
0.0
 10
137.0646989437682
 20
-202.7350963761546
 30
0.0
 10
137.7799034965683
 20
-202.7279231259745
 30
0.0
 10
137.9494204100865
 20
-202.4631488566756
 30
0.0
 10
138.0140648799151
 20
-201.8357983632705
 30
0.0
 10
138.4376313857265
 20
-198.1959878865163
 30
0.0
 10
138.8351903255516
 20
-194.5486549730249
 30
0.0
 10
140.2990481721563
 20
-191.1642988451822
 30
0.0
 10
146.4112062111944
 20
-181.2905404125249
 30
0.0
 10
159.4423598053399
 20
-202.0568804327195
 30
0.0
 10
149.6490963141305
 20
-205.7277925015878
 30
0.0
 10
147.5543377658123
 20
-206.8813678705192
 30
0.0
 10
144.1352999654736
 20
-206.7259063668644
 30
0.0
 10
142.6695115405664
 20
-208.4494407002876
 30
0.0
 10
142.9540935181294
 20
-210.7854994011741
 30
0.0
 10
140.8328468800873
 20
-216.6883025372808
 30
0.0
 10
143.1690915648178
 20
-217.5985361126131
 30
0.0
 10
150.1208600764766
 20
-214.3586981196604
 30
0.0
 10
157.6077091529259
 20
-213.8593559387627
 30
0.0
 10
162.8651840201801
 20
-220.286965088404
 30
0.0
 10
174.8322852277979
 20
-228.6000137842311
 30
0.0
 10
174.6310066071928
 20
-233.5464127063096
 30
0.0
 10
159.2613936096677
 20
-234.5109091026061
 30
0.0
 10
145.1134525786456
 20
-233.8055063455249
 30
0.0
 10
130.7788361856619
 20
-233.2191737580033
 30
0.0
 10
116.5470093670947
 20
-232.2061549251266
 30
0.0
 10
114.8528526334757
 20
-232.0525038449396
 30
0.0
 10
114.7466399048026
 20
-232.087040463739
 30
0.0
 10
115.361053734472
 20
-233.7429916949095
 30
0.0
 10
118.324803906341
 20
-238.8264480976013
 30
0.0
 10
122.1456784577312
 20
-250.8540119029222
 30
0.0
 10
129.203740660293
 20
-249.8178898630322
 30
0.0
 10
137.8614063721916
 20
-244.728379881315
 30
0.0
 10
148.9542530435956
 20
-254.2744129823459
 30
0.0
 10
156.5537600936895
 20
-247.8181373249918
 30
0.0
 10
157.8343778223843
 20
-245.8936888426397
 30
0.0
 10
165.440513642794
 20
-236.4080272024785
 30
0.0
 10
164.7783754195206
 20
-243.6032533446087
 30
0.0
 10
157.6863695263728
 20
-259.5291162511076
 30
0.0
 10
147.7520705677834
 20
-252.8088423800818
 30
0.0
 10
134.7629768546521
 20
-252.884993331465
 30
0.0
 10
130.4086092769303
 20
-254.0925781156366
 30
0.0
 10
125.4761442941844
 20
-256.0246847557464
 30
0.0
 10
122.0119248737883
 20
-252.0803253433696
 30
0.0
 10
116.4192877583764
 20
-246.0127632944659
 30
0.0
 10
111.0309624651381
 20
-238.3282522836125
 30
0.0
 10
110.2344272437503
 20
-229.9238232484949
 30
0.0
 10
109.6448416182484
 20
-224.2998801780613
 30
0.0
 10
123.0119095908576
 20
-229.5561441662721
 30
0.0
 10
126.7762701166903
 20
-228.5439309915783
 30
0.0
 10
139.8073474665971
 20
-227.5737462358466
 30
0.0
 10
153.566855228737
 20
-232.4632544108481
 30
0.0
 10
166.0889949612774
 20
-228.7069777115394
 30
0.0
 10
161.3782172705269
 20
-225.531378920512
 30
0.0
 10
157.6898449420223
 20
-218.6640342944338
 30
0.0
 10
151.3246508204465
 20
-219.5471907197043
 30
0.0
 10
147.2279864475977
 20
-220.2574769148232
 30
0.0
 10
140.23648400198
 20
-225.0748587791895
 30
0.0
 10
138.2629558654744
 20
-218.9897217080051
 30
0.0
 10
136.5788272806567
 20
-215.6346629527198
 30
0.0
 10
139.7794352336768
 20
-209.5817116303133
 30
0.0
 10
137.4239800277637
 20
-207.3137710443898
 30
0.0
 10
133.5532750945467
 20
-206.3800420168373
 30
0.0
 10
129.3398896593644
 20
-208.5223138684924
 30
0.0
 10
125.6845457907757
 20
-207.2308500496238
 30
0.0
 10
117.0798961471191
 20
-202.6924002500764
 30
0.0
 10
127.7625695306587
 20
-191.2522213857792
 30
0.0
 10
127.0632017702483
 20
-183.7340245435953
 30
0.0
 10
130.1415516947854
 20
-170.4707214664759
 30
0.0
 10
126.5810023896829
 20
-156.7633861345093
 30
0.0
 10
123.7138457096162
 20
-143.753130710822
 30
0.0
 10
121.368269294453
 20
-146.2611923994573
 30
0.0
 10
119.153594045807
 20
-148.6292817174235
 30
0.0
 10
116.8412333888809
 20
-151.1017967174211
 30
0.0
 10
126.3396405562707
 20
-156.4112201971584
 30
0.0
 10
119.623478641226
 20
-161.2357997525323
 30
0.0
 10
113.9328121832504
 20
-153.9058329605868
 30
0.0
 10
113.5030108374058
 20
-153.2841303067325
 30
0.0
 10
113.1726597261158
 20
-153.2630936598489
 30
0.0
 10
112.5083834102524
 20
-153.5774584734627
 30
0.0
 10
104.3580326999154
 20
-155.8090402211164
 30
0.0
 10
110.0442916931379
 20
-157.8802440030958
 30
0.0
 10
107.7364764668127
 20
-163.6409906373792
 30
0.0
 10
103.5583717528998
 20
-168.0368132438107
 30
0.0
 10
103.6651991185272
 20
-160.1790684056959
 30
0.0
 10
103.9069010491766
 20
-157.503528385896
 30
0.0
 10
104.4885805288031
 20
-154.7763456555276
 30
0.0
 10
96.53017530412945
 20
-156.9088670005021
 30
0.0
 10
94.56412573822218
 20
-156.3965859947348
 30
0.0
 10
92.62737272280082
 20
-156.6251209679958
 30
0.0
 10
94.03644039582742
 20
-160.4210671502624
 30
0.0
 10
93.43871611395298
 20
-161.9526814228302
 30
0.0
 10
93.32376137129449
 20
-163.3035470724244
 30
0.0
 10
92.05347953873298
 20
-164.495616234577
 30
0.0
 10
90.69886095983292
 20
-164.1313393443979
 30
0.0
 10
87.98055299027964
 20
-163.2543773438774
 30
0.0
 10
89.63148790897685
 20
-159.2283320834267
 30
0.0
 10
89.47986621525069
 20
-157.0742827495742
 30
0.0
 10
90.20771270480963
 20
-155.316596212253
 30
0.0
 10
83.00467443100661
 20
-154.8926703086308
 30
0.0
 10
81.36637751078888
 20
-153.5804922434763
 30
0.0
 10
79.30635200366214
 20
-152.6486732403664
 30
0.0
 10
80.2319798923736
 20
-156.9847633789231
 30
0.0
 10
78.79509464335661
 20
-157.9317072033973
 30
0.0
 10
77.68014937873977
 20
-159.5071117230927
 30
0.0
 10
74.81958311528706
 20
-158.4439723683772
 30
0.0
 10
75.20154222212386
 20
-156.4349694243028
 30
0.0
 10
75.08103759570895
 20
-154.2170302689701
 30
0.0
 10
77.69557565399918
 20
-151.6248101767069
 30
0.0
 10
75.66821593714485
 20
-149.8837459076949
 30
0.0
 10
73.17311704297208
 20
-147.6698319149291
 30
0.0
 10
70.74873575578476
 20
-145.375633090719
 30
0.0
 10
68.3279285618828
 20
-143.0801134059502
 30
0.0
 10
67.38176506267973
 20
-142.1829382940395
 30
0.0
 10
65.44159739286806
 20
-141.4159651437103
 30
0.0
 10
66.02467478174185
 20
-140.3040106941098
 30
0.0
 10
67.48944141157972
 20
-138.0430455834794
 30
0.0
 10
70.39624080567046
 20
-141.0412291584925
 30
0.0
 10
72.19702051251715
 20
-142.7978377342115
 30
0.0
 10
85.04285991791311
 20
-155.3121893196276
 30
0.0
 10
114.5881631157481
 20
-157.1039893865345
 30
0.0
 10
121.2115741030184
 20
-137.7643047110896
 30
0.0
 10
118.6011608456019
 20
-134.1159429920917
 30
0.0
 10
118.7487231411978
 20
-128.3686283161651
 30
0.0
 10
115.5192926366535
 20
-125.506139489511
 30
0.0
 10
99.72714497149809
 20
-120.1926090175921
 30
0.0
 10
87.761554057588
 20
-121.5169287604603
 30
0.0
 10
75.74764784394301
 20
-107.3320335242551
 30
0.0
 10
70.55697870522999
 20
-99.2199728178166
 30
0.0
 10
88.31209172633043
 20
-105.4495361052304
 30
0.0
 10
91.70284000845731
 20
-105.2766224979659
 30
0.0
 10
99.67065790351353
 20
-106.1681523883308
 30
0.0
 10
106.2011838268581
 20
-110.3742838712696
 30
0.0
 10
112.1688639727126
 20
-115.3607084842251
 30
0.0
 10
105.3803508417031
 20
-99.71999174339908
 30
0.0
 10
95.29577028561016
 20
-84.98704803643068
 30
0.0
 10
80.53767759069069
 20
-76.08947440833254
 30
0.0
 10
73.62185614198915
 20
-68.23814525757552
 30
0.0
 10
66.94796804953512
 20
-64.13326363983014
 30
0.0
 10
56.16514092464331
 20
-64.87538223027513
 30
0.0
 10
54.36185797698636
 20
-64.82431146324507
 30
0.0
 10
54.39289820017984
 20
-64.87039589974393
 30
0.0
 10
54.17676267861134
 20
-66.6352015807115
 30
0.0
 10
52.36637829376468
 20
-78.00254988801498
 30
0.0
 10
52.64464013406359
 20
-89.56111913423773
 30
0.0
 10
52.12110758018752
 20
-101.0375617960771
 30
0.0
 10
51.76776981877719
 20
-140.3031692711456
 30
0.0
 10
55.02424610318394
 20
-180.9381974834723
 30
0.0
 10
67.6090678795199
 20
-218.231414965001
 30
0.0
 10
76.97466125719711
 20
-242.9887052641206
 30
0.0
 10
98.09503575715281
 20
-259.0378091339935
 30
0.0
 10
120.0852677365137
 20
-272.1392968436067
 30
0.0
 10
133.7817553161066
 20
-280.857076153954
 30
0.0
 10
152.4743563051033
 20
-277.1696135546899
 30
0.0
 10
166.6424624712526
 20
-271.3591964837724
 30
0.0
 10
186.4718824999727
 20
-260.3248449671592
 30
0.0
 10
203.7967069345723
 20
-241.0937951017204
 30
0.0
 10
213.8067750433838
 20
-221.7379469137322
 30
0.0
 10
201.8702481264317
 20
-208.0346706403616
 30
0.0
 10
200.4175919814352
 20
-189.4326544486102
 30
0.0
 10
201.0158197209421
 20
-172.0702143799863
 30
0.0
 10
201.0330798166105
 20
-170.8884627469488
 30
0.0
 10
201.8453702130301
 20
-169.9871113847348
 30
0.0
 10
202.8982903246633
 20
-169.8341246526543
 30
0.0
 10
205.492987639067
 20
-169.3973257556845
 30
0.0
 10
205.7136475375573
 20
-172.7693175113163
 30
0.0
 10
206.2323287717518
 20
-174.5990634756399
 30
0.0
 10
208.8711594938595
 20
-187.4287342207408
 30
0.0
 10
217.5177797959841
 20
-197.8440385535396
 30
0.0
 10
219.9726857378792
 20
-210.7015309978979
 30
0.0
 10
226.4945391375277
 20
-198.5413744017696
 30
0.0
 10
223.408913524092
 20
-184.5341575405818
 30
0.0
 10
226.5177536142728
 20
-171.5631695572574
 30
0.0
 10
226.7515363831772
 20
-170.2155619885961
 30
0.0
 10
226.7662600935509
 20
-170.2569554276615
 30
0.0
 10
225.6971400156217
 20
-169.5572295452621
 30
0.0
 10
207.8658217243192
 20
-155.5053120218872
 30
0.0
 10
202.2809663910339
 20
-131.581830016602
 30
0.0
 10
197.3148847765514
 20
-110.4788044025354
 30
0.0
 10
196.2659528977019
 20
-108.1495460309161
 30
0.0
 10
198.7832359767999
 20
-105.3213141082133
 30
0.0
 10
200.8920006624267
 20
-107.4678848351414
 30
0.0
 10
202.8828325857739
 20
-110.6065536951573
 30
0.0
 10
203.4737678042238
 20
-114.5548864414831
 30
0.0
 10
205.683690444348
 20
-117.616967061721
 30
0.0
 10
213.705069511625
 20
-130.3427564362482
 30
0.0
 10
224.7422516147653
 20
-142.0024470383678
 30
0.0
 10
227.8840577680548
 20
-157.0976684161105
 30
0.0
 10
231.8804266170027
 20
-136.7270897683329
 30
0.0
 10
225.3307669000969
 20
-116.766963305271
 30
0.0
 10
219.6227801830755
 20
-97.38684908917186
 30
0.0
 10
217.4726111040636
 20
-93.72061146671512
 30
0.0
 10
215.7896814726737
 20
-61.56054379489614
 30
0.0
 10
224.0299491439764
 20
-69.72503636081729
 30
0.0
 10
226.419901193518
 20
-78.23576399872763
 30
0.0
 10
229.9807531564383
 20
-86.42425799880129
 30
0.0
 10
231.7702801335836
 20
-95.18665214619886
 30
0.0
 10
234.6424006576963
 20
-103.7903567972662
 30
0.0
 10
233.3433977519235
 20
-112.8905629906312
 30
0.0
 10
231.1666807519232
 20
-121.4724259264421
 30
0.0
 10
234.0500138246316
 20
-133.6257997075909
 30
0.0
 10
233.1180406970525
 20
-146.0669028179036
 30
0.0
 10
232.6950204210698
 20
-158.3765139570023
 30
0.0
 10
239.1707220424432
 20
-143.4012218635698
 30
0.0
 10
251.8536077120971
 20
-133.4140256848804
 30
0.0
 10
265.0441918651541
 20
-124.5662381646589
 30
0.0
 10
266.1216501599811
 20
-123.7932959768077
 30
0.0
 10
267.3141930027104
 20
-123.8316203575159
 30
0.0
 10
268.1005323739919
 20
-124.5939511456399
 30
0.0
 10
269.2074004417445
 20
-125.5735690525862
 30
0.0
 10
268.7121217249587
 20
-127.3150765259233
 30
0.0
 10
267.6012752293482
 20
-128.3687567377383
 30
0.0
 10
260.2057929689308
 20
-136.5005014054559
 30
0.0
 10
259.4528006318051
 20
-148.2295084420038
 30
0.0
 10
254.5837845879523
 20
-157.7949325076515
 30
0.0
 10
249.8833681700889
 20
-167.9422097984334
 30
0.0
 10
243.2930932089494
 20
-177.2349109783335
 30
0.0
 10
235.0455625566756
 20
-184.7998162338772
 30
0.0
 10
232.9423401992098
 20
-187.4768101694317
 30
0.0
 10
228.6975590305628
 20
-189.5694522942103
 30
0.0
 10
228.8916385118537
 20
-193.2601331637561
 30
0.0
 10
227.8108727366907
 20
-209.9650118096979
 30
0.0
 10
218.6591049458766
 20
-224.9446325732024
 30
0.0
 10
208.8048674416095
 20
-238.0199453944115
 30
0.0
 10
196.3953797719568
 20
-254.1066540040756
 30
0.0
 10
181.9832240608029
 20
-271.0539630227358
 30
0.0
 10
162.1290332431235
 20
-277.7364227752914
 30
0.0
 10
147.9051909854852
 20
-281.989130082351
 30
0.0
 10
130.7276012235979
 20
-284.4366403212516
 30
0.0
 10
117.6682478435223
 20
-275.7762470345315
 30
0.0
 10
101.4272102986651
 20
-265.0385149509802
 30
0.0
 10
83.58489376081161
 20
-255.1709325746306
 30
0.0
 10
73.48976070772278
 20
-237.8230818080174
 30
0.0
 10
50.52669636453811
 20
-205.9726678294883
 30
0.0
 10
47.30357225962689
 20
-137.3372983827239
 30
0.0
 10
47.89857266774743
 20
-98.16838349848332
 30
0.0
 10
48.87245846097084
 20
-86.30494248647393
 30
0.0
 10
46.8454581969072
 20
-72.72121842170782
 30
0.0
 10
51.49600114239001
 20
-61.89264447053483
 30
0.0
 10
55.44917076401725
 20
-59.09098966918373
 30
0.0
 10
61.37783830678654
 20
-60.90935107111727
 30
0.0
 10
65.98613990862304
 20
-61.16179821952846
 30
0.0
  0
HATCH
  5
86
330
79
100
AcDbEntity
  8
Layer 1
 62
    18
420
        0
440
 33554687
100
AcDbHatch
 10
0.0
 20
0.0
 30
0.0
210
0.0
220
0.0
230
1.0
  2
SOLID
 70
     1
 71
     1
 91
        9
 92
        1
 93
        1
 72
     4
 94
        3
 73
     0
 74
     0
 95
       17
 96
       13
 40
0.0
 40
0.0
 40
0.0
 40
0.0
 40
1.0
 40
1.0
 40
1.0
 40
2.0
 40
2.0
 40
2.0
 40
3.0
 40
3.0
 40
3.0
 40
4.0
 40
4.0
 40
4.0
 40
4.0
 10
142.4143758692726
 20
-201.7595769391119
 10
141.743122495619
 20
-204.6063898878547
 10
144.7552212832242
 20
-202.7436773323006
 10
146.1705930748048
 20
-202.3830042238187
 10
149.2225379643805
 20
-201.2248032315238
 10
148.6899786406775
 20
-201.7631898812342
 10
148.4326244998246
 20
-198.567969909951
 10
148.2403421660401
 20
-196.1808058115239
 10
146.9972958312437
 20
-194.5776307295491
 10
144.9531281415411
 20
-193.4581237060811
 10
142.6582535910593
 20
-193.2853589175102
 10
142.9633558835894
 20
-200.0427115547409
 10
142.4143758692726
 20
-201.7595769391119
 97
        0
 97
        1
330
7D
 92
        1
 93
        1
 72
     4
 94
        3
 73
     0
 74
     0
 95
       17
 96
       13
 40
0.0
 40
0.0
 40
0.0
 40
0.0
 40
1.0
 40
1.0
 40
1.0
 40
2.0
 40
2.0
 40
2.0
 40
3.0
 40
3.0
 40
3.0
 40
4.0
 40
4.0
 40
4.0
 40
4.0
 10
222.5234617261413
 20
-79.05887609387446
 10
222.4272719981982
 20
-79.07722245858349
 10
222.3311211190976
 20
-79.09556882329252
 10
222.2349702399952
 20
-79.1139054757923
 10
221.0156171923681
 20
-90.37048279418469
 10
225.4319722078762
 20
-101.2010865245183
 10
228.4510565884557
 20
-111.8464424141048
 10
228.5742851090672
 20
-111.8386143728367
 10
228.6975136296751
 20
-111.8307863315685
 10
228.8207421502866
 20
-111.8229582902995
 10
230.1311398141952
 20
-100.5331890923062
 10
225.7143776586618
 20
-89.68875788440346
 10
222.5234617261413
 20
-79.05887609387446
 97
        0
 97
        1
330
7E
 92
        1
 93
        1
 72
     4
 94
        3
 73
     0
 74
     0
 95
       11
 96
        7
 40
0.0
 40
0.0
 40
0.0
 40
0.0
 40
1.0
 40
1.0
 40
1.0
 40
2.0
 40
2.0
 40
2.0
 40
2.0
 10
108.1177069332261
 20
-118.3044793383414
 10
102.2416838133949
 20
-110.9331615390829
 10
92.45302747631194
 20
-109.7337929654168
 10
83.69083832708657
 20
-108.5545276799603
 10
89.74646668531477
 20
-115.6303707556426
 10
99.29071608570666
 20
-117.3916227602476
 10
108.1177069332261
 20
-118.3044793383414
 97
        0
 97
        1
330
7F
 92
        1
 93
        1
 72
     4
 94
        3
 73
     0
 74
     0
 95
       11
 96
        7
 40
0.0
 40
0.0
 40
0.0
 40
0.0
 40
1.0
 40
1.0
 40
1.0
 40
2.0
 40
2.0
 40
2.0
 40
2.0
 10
205.7963749428927
 20
-187.7320377770611
 10
205.4941309673723
 20
-195.8326036582384
 10
211.0031295782446
 20
-212.6589298033705
 10
214.8721438312005
 20
-215.8721562120117
 10
217.0267695197162
 20
-205.5589376094158
 10
209.5506896817296
 20
-196.7875485212389
 10
205.7963749428927
 20
-187.7320377770611
 97
        0
 97
        1
330
80
 92
        1
 93
        1
 72
     4
 94
        3
 73
     0
 74
     0
 95
       14
 96
       10
 40
0.0
 40
0.0
 40
0.0
 40
0.0
 40
1.0
 40
1.0
 40
1.0
 40
2.0
 40
2.0
 40
2.0
 40
3.0
 40
3.0
 40
3.0
 40
3.0
 10
111.2402795736307
 20
-103.2212812214338
 10
111.3866425784854
 20
-103.1748374331646
 10
111.5330250077604
 20
-103.128374220475
 10
111.6793880126151
 20
-103.0819110077864
 10
112.3070949598405
 20
-91.77465849857345
 10
109.7957305238069
 20
-81.12417654957335
 10
104.357683101005
 20
-71.07706140449408
 10
102.3832831188438
 20
-82.16767832277492
 10
106.8729196631639
 20
-93.25487976371368
 10
111.2402795736307
 20
-103.2212812214338
 97
        0
 97
        1
330
81
 92
        1
 93
        1
 72
     4
 94
        3
 73
     0
 74
     0
 95
       11
 96
        7
 40
0.0
 40
0.0
 40
0.0
 40
0.0
 40
1.0
 40
1.0
 40
1.0
 40
2.0
 40
2.0
 40
2.0
 40
2.0
 10
224.3983455953658
 20
-162.8539787426834
 10
222.9042934601712
 20
-148.6598119149839
 10
214.1586156088524
 20
-136.838893026008
 10
205.6451364086115
 20
-125.971200798358
 10
209.6046452058872
 20
-139.3431443936479
 10
214.6976377628962
 20
-152.5677412133263
 10
224.3983455953658
 20
-162.8539787426834
 97
        0
 97
        1
330
82
 92
        1
 93
        1
 72
     4
 94
        3
 73
     0
 74
     0
 95
       11
 96
        7
 40
0.0
 40
0.0
 40
0.0
 40
0.0
 40
1.0
 40
1.0
 40
1.0
 40
2.0
 40
2.0
 40
2.0
 40
2.0
 10
84.45511155721488
 20
-71.12183469264164
 10
82.62544347679341
 20
-57.64166141286114
 10
70.13658123416917
 20
-49.91467849151923
 10
63.33066629645236
 20
-39.09143226481229
 10
63.2615763278809
 20
-53.16494551638152
 10
72.53507189562061
 20
-64.51194270192536
 10
84.45511155721488
 20
-71.12183469264164
 97
        0
 97
        1
330
83
 92
        1
 93
        1
 72
     4
 94
        3
 73
     0
 74
     0
 95
       14
 96
       10
 40
0.0
 40
0.0
 40
0.0
 40
0.0
 40
1.0
 40
1.0
 40
1.0
 40
2.0
 40
2.0
 40
2.0
 40
3.0
 40
3.0
 40
3.0
 40
3.0
 10
229.9267297774186
 20
-183.3043189310538
 10
230.0289799244074
 20
-183.3879799080823
 10
230.131268920235
 20
-183.471640885109
 10
230.2335579160626
 20
-183.5553018621394
 10
244.6132052866815
 20
-170.8401022877988
 10
253.3182468910563
 20
-153.1800142681368
 10
258.0501043623117
 20
-134.9808683853352
 10
241.5644728444767
 20
-145.829304192961
 10
232.7968756398186
 20
-164.2520076331329
 10
229.9267297774186
 20
-183.3043189310538
 97
        0
 97
        1
330
84
 92
        1
 93
        1
 72
     4
 94
        3
 73
     0
 74
     0
 95
      281
 96
      277
 40
0.0
 40
0.0
 40
0.0
 40
0.0
 40
1.0
 40
1.0
 40
1.0
 40
2.0
 40
2.0
 40
2.0
 40
3.0
 40
3.0
 40
3.0
 40
4.0
 40
4.0
 40
4.0
 40
5.0
 40
5.0
 40
5.0
 40
6.0
 40
6.0
 40
6.0
 40
7.0
 40
7.0
 40
7.0
 40
8.0
 40
8.0
 40
8.0
 40
9.0
 40
9.0
 40
9.0
 40
10.0
 40
10.0
 40
10.0
 40
11.0
 40
11.0
 40
11.0
 40
12.0
 40
12.0
 40
12.0
 40
13.0
 40
13.0
 40
13.0
 40
14.0
 40
14.0
 40
14.0
 40
15.0
 40
15.0
 40
15.0
 40
16.0
 40
16.0
 40
16.0
 40
17.0
 40
17.0
 40
17.0
 40
18.0
 40
18.0
 40
18.0
 40
19.0
 40
19.0
 40
19.0
 40
20.0
 40
20.0
 40
20.0
 40
21.0
 40
21.0
 40
21.0
 40
22.0
 40
22.0
 40
22.0
 40
23.0
 40
23.0
 40
23.0
 40
24.0
 40
24.0
 40
24.0
 40
25.0
 40
25.0
 40
25.0
 40
26.0
 40
26.0
 40
26.0
 40
27.0
 40
27.0
 40
27.0
 40
28.0
 40
28.0
 40
28.0
 40
29.0
 40
29.0
 40
29.0
 40
30.0
 40
30.0
 40
30.0
 40
31.0
 40
31.0
 40
31.0
 40
32.0
 40
32.0
 40
32.0
 40
33.0
 40
33.0
 40
33.0
 40
34.0
 40
34.0
 40
34.0
 40
35.0
 40
35.0
 40
35.0
 40
36.0
 40
36.0
 40
36.0
 40
37.0
 40
37.0
 40
37.0
 40
38.0
 40
38.0
 40
38.0
 40
39.0
 40
39.0
 40
39.0
 40
40.0
 40
40.0
 40
40.0
 40
41.0
 40
41.0
 40
41.0
 40
42.0
 40
42.0
 40
42.0
 40
43.0
 40
43.0
 40
43.0
 40
44.0
 40
44.0
 40
44.0
 40
45.0
 40
45.0
 40
45.0
 40
46.0
 40
46.0
 40
46.0
 40
47.0
 40
47.0
 40
47.0
 40
48.0
 40
48.0
 40
48.0
 40
49.0
 40
49.0
 40
49.0
 40
50.0
 40
50.0
 40
50.0
 40
51.0
 40
51.0
 40
51.0
 40
52.0
 40
52.0
 40
52.0
 40
53.0
 40
53.0
 40
53.0
 40
54.0
 40
54.0
 40
54.0
 40
55.0
 40
55.0
 40
55.0
 40
56.0
 40
56.0
 40
56.0
 40
57.0
 40
57.0
 40
57.0
 40
58.0
 40
58.0
 40
58.0
 40
59.0
 40
59.0
 40
59.0
 40
60.0
 40
60.0
 40
60.0
 40
61.0
 40
61.0
 40
61.0
 40
62.0
 40
62.0
 40
62.0
 40
63.0
 40
63.0
 40
63.0
 40
64.0
 40
64.0
 40
64.0
 40
65.0
 40
65.0
 40
65.0
 40
66.0
 40
66.0
 40
66.0
 40
67.0
 40
67.0
 40
67.0
 40
68.0
 40
68.0
 40
68.0
 40
69.0
 40
69.0
 40
69.0
 40
70.0
 40
70.0
 40
70.0
 40
71.0
 40
71.0
 40
71.0
 40
72.0
 40
72.0
 40
72.0
 40
73.0
 40
73.0
 40
73.0
 40
74.0
 40
74.0
 40
74.0
 40
75.0
 40
75.0
 40
75.0
 40
76.0
 40
76.0
 40
76.0
 40
77.0
 40
77.0
 40
77.0
 40
78.0
 40
78.0
 40
78.0
 40
79.0
 40
79.0
 40
79.0
 40
80.0
 40
80.0
 40
80.0
 40
81.0
 40
81.0
 40
81.0
 40
82.0
 40
82.0
 40
82.0
 40
83.0
 40
83.0
 40
83.0
 40
84.0
 40
84.0
 40
84.0
 40
85.0
 40
85.0
 40
85.0
 40
86.0
 40
86.0
 40
86.0
 40
87.0
 40
87.0
 40
87.0
 40
88.0
 40
88.0
 40
88.0
 40
89.0
 40
89.0
 40
89.0
 40
90.0
 40
90.0
 40
90.0
 40
91.0
 40
91.0
 40
91.0
 40
92.0
 40
92.0
 40
92.0
 40
92.0
 10
65.98613990862304
 20
-61.16179821952846
 10
61.4978882952646
 20
-58.35555313671102
 10
52.49014114152851
 20
-19.03202078342292
 10
62.96321664408151
 20
-26.89561626385421
 10
66.24040668355792
 20
-40.93739055571041
 10
79.31377233877992
 20
-48.34764960649772
 10
85.5068397364239
 20
-60.69303699463398
 10
92.04358520120422
 20
-75.63320668698725
 10
86.10879811983251
 20
-75.25190305196156
 10
100.7929135388303
 20
-87.77190365050774
 10
100.8918615344164
 20
-87.71629153598951
 10
100.99082895442
 20
-87.66067942147037
 10
101.0897769500052
 20
-87.60506730695215
 10
98.84160435831383
 20
-81.84961274605212
 10
98.55378568599917
 20
-60.96027158195193
 10
104.4501117080081
 20
-59.23839549192599
 10
105.7117934611933
 20
-59.30870284240064
 10
106.7363989654959
 20
-60.6593105844031
 10
106.7888517193541
 20
-62.04550489906797
 10
108.9318629828785
 20
-74.49362468602339
 10
117.280367289919
 20
-85.13784327316807
 10
116.0393113270629
 20
-98.36031447671031
 10
115.8797898470748
 20
-102.3665109625317
 10
116.3602442403289
 20
-106.6485082703702
 10
115.8536111714566
 20
-110.5690750205958
 10
115.0122105753244
 20
-111.5491710901124
 10
115.573110127837
 20
-112.3232148035076
 10
116.0377228303086
 20
-113.1458584157999
 10
120.3559848184331
 20
-120.4480513220533
 10
121.4475449246283
 20
-129.0420856107057
 10
125.4250609213486
 20
-136.5334629895414
 10
133.6331899627948
 20
-156.7790773013075
 10
135.4558071682731
 20
-180.6638388910305
 10
126.7626143980533
 20
-201.0880158485961
 10
125.1961272253893
 20
-205.1495341394621
 10
134.8353618131887
 20
-202.0681528286023
 10
137.0646989437682
 20
-202.7350963761546
 10
137.7799034965683
 20
-202.7279231259745
 10
137.9494204100865
 20
-202.4631488566756
 10
138.0140648799151
 20
-201.8357983632705
 10
138.4376313857265
 20
-198.1959878865163
 10
138.8351903255516
 20
-194.5486549730249
 10
140.2990481721563
 20
-191.1642988451822
 10
146.4112062111944
 20
-181.2905404125249
 10
159.4423598053399
 20
-202.0568804327195
 10
149.6490963141305
 20
-205.7277925015878
 10
147.5543377658123
 20
-206.8813678705192
 10
144.1352999654736
 20
-206.7259063668644
 10
142.6695115405664
 20
-208.4494407002876
 10
142.9540935181294
 20
-210.7854994011741
 10
140.8328468800873
 20
-216.6883025372808
 10
143.1690915648178
 20
-217.5985361126131
 10
150.1208600764766
 20
-214.3586981196604
 10
157.6077091529259
 20
-213.8593559387627
 10
162.8651840201801
 20
-220.286965088404
 10
174.8322852277979
 20
-228.6000137842311
 10
174.6310066071928
 20
-233.5464127063096
 10
159.2613936096677
 20
-234.5109091026061
 10
145.1134525786456
 20
-233.8055063455249
 10
130.7788361856619
 20
-233.2191737580033
 10
116.5470093670947
 20
-232.2061549251266
 10
114.8528526334757
 20
-232.0525038449396
 10
114.7466399048026
 20
-232.087040463739
 10
115.361053734472
 20
-233.7429916949095
 10
118.324803906341
 20
-238.8264480976013
 10
122.1456784577312
 20
-250.8540119029222
 10
129.203740660293
 20
-249.8178898630322
 10
137.8614063721916
 20
-244.728379881315
 10
148.9542530435956
 20
-254.2744129823459
 10
156.5537600936895
 20
-247.8181373249918
 10
157.8343778223843
 20
-245.8936888426397
 10
165.440513642794
 20
-236.4080272024785
 10
164.7783754195206
 20
-243.6032533446087
 10
157.6863695263728
 20
-259.5291162511076
 10
147.7520705677834
 20
-252.8088423800818
 10
134.7629768546521
 20
-252.884993331465
 10
130.4086092769303
 20
-254.0925781156366
 10
125.4761442941844
 20
-256.0246847557464
 10
122.0119248737883
 20
-252.0803253433696
 10
116.4192877583764
 20
-246.0127632944659
 10
111.0309624651381
 20
-238.3282522836125
 10
110.2344272437503
 20
-229.9238232484949
 10
109.6448416182484
 20
-224.2998801780613
 10
123.0119095908576
 20
-229.5561441662721
 10
126.7762701166903
 20
-228.5439309915783
 10
139.8073474665971
 20
-227.5737462358466
 10
153.566855228737
 20
-232.4632544108481
 10
166.0889949612774
 20
-228.7069777115394
 10
161.3782172705269
 20
-225.531378920512
 10
157.6898449420223
 20
-218.6640342944338
 10
151.3246508204465
 20
-219.5471907197043
 10
147.2279864475977
 20
-220.2574769148232
 10
140.23648400198
 20
-225.0748587791895
 10
138.2629558654744
 20
-218.9897217080051
 10
136.5788272806567
 20
-215.6346629527198
 10
139.7794352336768
 20
-209.5817116303133
 10
137.4239800277637
 20
-207.3137710443898
 10
133.5532750945467
 20
-206.3800420168373
 10
129.3398896593644
 20
-208.5223138684924
 10
125.6845457907757
 20
-207.2308500496238
 10
117.0798961471191
 20
-202.6924002500764
 10
127.7625695306587
 20
-191.2522213857792
 10
127.0632017702483
 20
-183.7340245435953
 10
130.1415516947854
 20
-170.4707214664759
 10
126.5810023896829
 20
-156.7633861345093
 10
123.7138457096162
 20
-143.753130710822
 10
121.368269294453
 20
-146.2611923994573
 10
119.153594045807
 20
-148.6292817174235
 10
116.8412333888809
 20
-151.1017967174211
 10
126.3396405562707
 20
-156.4112201971584
 10
119.623478641226
 20
-161.2357997525323
 10
113.9328121832504
 20
-153.9058329605868
 10
113.5030108374058
 20
-153.2841303067325
 10
113.1726597261158
 20
-153.2630936598489
 10
112.5083834102524
 20
-153.5774584734627
 10
104.3580326999154
 20
-155.8090402211164
 10
110.0442916931379
 20
-157.8802440030958
 10
107.7364764668127
 20
-163.6409906373792
 10
103.5583717528998
 20
-168.0368132438107
 10
103.6651991185272
 20
-160.1790684056959
 10
103.9069010491766
 20
-157.503528385896
 10
104.4885805288031
 20
-154.7763456555276
 10
96.53017530412945
 20
-156.9088670005021
 10
94.56412573822218
 20
-156.3965859947348
 10
92.62737272280082
 20
-156.6251209679958
 10
94.03644039582742
 20
-160.4210671502624
 10
93.43871611395298
 20
-161.9526814228302
 10
93.32376137129449
 20
-163.3035470724244
 10
92.05347953873298
 20
-164.495616234577
 10
90.69886095983292
 20
-164.1313393443979
 10
87.98055299027964
 20
-163.2543773438774
 10
89.63148790897685
 20
-159.2283320834267
 10
89.47986621525069
 20
-157.0742827495742
 10
90.20771270480963
 20
-155.316596212253
 10
83.00467443100661
 20
-154.8926703086308
 10
81.36637751078888
 20
-153.5804922434763
 10
79.30635200366214
 20
-152.6486732403664
 10
80.2319798923736
 20
-156.9847633789231
 10
78.79509464335661
 20
-157.9317072033973
 10
77.68014937873977
 20
-159.5071117230927
 10
74.81958311528706
 20
-158.4439723683772
 10
75.20154222212386
 20
-156.4349694243028
 10
75.08103759570895
 20
-154.2170302689701
 10
77.69557565399918
 20
-151.6248101767069
 10
75.66821593714485
 20
-149.8837459076949
 10
73.17311704297208
 20
-147.6698319149291
 10
70.74873575578476
 20
-145.375633090719
 10
68.3279285618828
 20
-143.0801134059502
 10
67.38176506267973
 20
-142.1829382940395
 10
65.44159739286806
 20
-141.4159651437103
 10
66.02467478174185
 20
-140.3040106941098
 10
67.48944141157972
 20
-138.0430455834794
 10
70.39624080567046
 20
-141.0412291584925
 10
72.19702051251715
 20
-142.7978377342115
 10
85.04285991791311
 20
-155.3121893196276
 10
114.5881631157481
 20
-157.1039893865345
 10
121.2115741030184
 20
-137.7643047110896
 10
118.6011608456019
 20
-134.1159429920917
 10
118.7487231411978
 20
-128.3686283161651
 10
115.5192926366535
 20
-125.506139489511
 10
99.72714497149809
 20
-120.1926090175921
 10
87.761554057588
 20
-121.5169287604603
 10
75.74764784394301
 20
-107.3320335242551
 10
70.55697870522999
 20
-99.2199728178166
 10
88.31209172633043
 20
-105.4495361052304
 10
91.70284000845731
 20
-105.2766224979659
 10
99.67065790351353
 20
-106.1681523883308
 10
106.2011838268581
 20
-110.3742838712696
 10
112.1688639727126
 20
-115.3607084842251
 10
105.3803508417031
 20
-99.71999174339908
 10
95.29577028561016
 20
-84.98704803643068
 10
80.53767759069069
 20
-76.08947440833254
 10
73.62185614198915
 20
-68.23814525757552
 10
66.94796804953512
 20
-64.13326363983014
 10
56.16514092464331
 20
-64.87538223027513
 10
54.36185797698636
 20
-64.82431146324507
 10
54.39289820017984
 20
-64.87039589974393
 10
54.17676267861134
 20
-66.6352015807115
 10
52.36637829376468
 20
-78.00254988801498
 10
52.64464013406359
 20
-89.56111913423773
 10
52.12110758018752
 20
-101.0375617960771
 10
51.76776981877719
 20
-140.3031692711456
 10
55.02424610318394
 20
-180.9381974834723
 10
67.6090678795199
 20
-218.231414965001
 10
76.97466125719711
 20
-242.9887052641206
 10
98.09503575715281
 20
-259.0378091339935
 10
120.0852677365137
 20
-272.1392968436067
 10
133.7817553161066
 20
-280.857076153954
 10
152.4743563051033
 20
-277.1696135546899
 10
166.6424624712526
 20
-271.3591964837724
 10
186.4718824999727
 20
-260.3248449671592
 10
203.7967069345723
 20
-241.0937951017204
 10
213.8067750433838
 20
-221.7379469137322
 10
201.8702481264317
 20
-208.0346706403616
 10
200.4175919814352
 20
-189.4326544486102
 10
201.0158197209421
 20
-172.0702143799863
 10
201.0330798166105
 20
-170.8884627469488
 10
201.8453702130301
 20
-169.9871113847348
 10
202.8982903246633
 20
-169.8341246526543
 10
205.492987639067
 20
-169.3973257556845
 10
205.7136475375573
 20
-172.7693175113163
 10
206.2323287717518
 20
-174.5990634756399
 10
208.8711594938595
 20
-187.4287342207408
 10
217.5177797959841
 20
-197.8440385535396
 10
219.9726857378792
 20
-210.7015309978979
 10
226.4945391375277
 20
-198.5413744017696
 10
223.408913524092
 20
-184.5341575405818
 10
226.5177536142728
 20
-171.5631695572574
 10
226.7515363831772
 20
-170.2155619885961
 10
226.7662600935509
 20
-170.2569554276615
 10
225.6971400156217
 20
-169.5572295452621
 10
207.8658217243192
 20
-155.5053120218872
 10
202.2809663910339
 20
-131.581830016602
 10
197.3148847765514
 20
-110.4788044025354
 10
196.2659528977019
 20
-108.1495460309161
 10
198.7832359767999
 20
-105.3213141082133
 10
200.8920006624267
 20
-107.4678848351414
 10
202.8828325857739
 20
-110.6065536951573
 10
203.4737678042238
 20
-114.5548864414831
 10
205.683690444348
 20
-117.616967061721
 10
213.705069511625
 20
-130.3427564362482
 10
224.7422516147653
 20
-142.0024470383678
 10
227.8840577680548
 20
-157.0976684161105
 10
231.8804266170027
 20
-136.7270897683329
 10
225.3307669000969
 20
-116.766963305271
 10
219.6227801830755
 20
-97.38684908917186
 10
217.4726111040636
 20
-93.72061146671512
 10
215.7896814726737
 20
-61.56054379489614
 10
224.0299491439764
 20
-69.72503636081729
 10
226.419901193518
 20
-78.23576399872763
 10
229.9807531564383
 20
-86.42425799880129
 10
231.7702801335836
 20
-95.18665214619886
 10
234.6424006576963
 20
-103.7903567972662
 10
233.3433977519235
 20
-112.8905629906312
 10
231.1666807519232
 20
-121.4724259264421
 10
234.0500138246316
 20
-133.6257997075909
 10
233.1180406970525
 20
-146.0669028179036
 10
232.6950204210698
 20
-158.3765139570023
 10
239.1707220424432
 20
-143.4012218635698
 10
251.8536077120971
 20
-133.4140256848804
 10
265.0441918651541
 20
-124.5662381646589
 10
266.1216501599811
 20
-123.7932959768077
 10
267.3141930027104
 20
-123.8316203575159
 10
268.1005323739919
 20
-124.5939511456399
 10
269.2074004417445
 20
-125.5735690525862
 10
268.7121217249587
 20
-127.3150765259233
 10
267.6012752293482
 20
-128.3687567377383
 10
260.2057929689308
 20
-136.5005014054559
 10
259.4528006318051
 20
-148.2295084420038
 10
254.5837845879523
 20
-157.7949325076515
 10
249.8833681700889
 20
-167.9422097984334
 10
243.2930932089494
 20
-177.2349109783335
 10
235.0455625566756
 20
-184.7998162338772
 10
232.9423401992098
 20
-187.4768101694317
 10
228.6975590305628
 20
-189.5694522942103
 10
228.8916385118537
 20
-193.2601331637561
 10
227.8108727366907
 20
-209.9650118096979
 10
218.6591049458766
 20
-224.9446325732024
 10
208.8048674416095
 20
-238.0199453944115
 10
196.3953797719568
 20
-254.1066540040756
 10
181.9832240608029
 20
-271.0539630227358
 10
162.1290332431235
 20
-277.7364227752914
 10
147.9051909854852
 20
-281.989130082351
 10
130.7276012235979
 20
-284.4366403212516
 10
117.6682478435223
 20
-275.7762470345315
 10
101.4272102986651
 20
-265.0385149509802
 10
83.58489376081161
 20
-255.1709325746306
 10
73.48976070772278
 20
-237.8230818080174
 10
50.52669636453811
 20
-205.9726678294883
 10
47.30357225962689
 20
-137.3372983827239
 10
47.89857266774743
 20
-98.16838349848332
 10
48.87245846097084
 20
-86.30494248647393
 10
46.8454581969072
 20
-72.72121842170782
 10
51.49600114239001
 20
-61.89264447053483
 10
55.44917076401725
 20
-59.09098966918373
 10
61.37783830678654
 20
-60.90935107111727
 10
65.98613990862304
 20
-61.16179821952846
 97
        0
 97
        1
330
85
 75
     2
 76
     1
 98
        1
 10
0.0
 20
0.0
450
        0
451
        0
460
0.0
461
0.0
452
        0
462
0.0
453
        0
470

  0
SPLINE
  5
87
330
79
100
AcDbEntity
  8
Layer 1
100
AcDbSpline
210
0.0
220
0.0
230
1.0
 70
     9
 71
     3
 72
    14
 73
    10
 74
     0
 42
0.0000000001
 43
0.0000000001
 40
0.0
 40
0.0
 40
0.0
 40
0.0
 40
1.0
 40
1.0
 40
1.0
 40
2.0
 40
2.0
 40
2.0
 40
3.0
 40
3.0
 40
3.0
 40
3.0
 10
154.1877693611968
 20
-73.23754252128129
 30
0.0
 10
154.5987167377425
 20
-76.27356520526882
 30
0.0
 10
155.7878142601366
 20
-81.46696656616132
 30
0.0
 10
159.6482652878676
 20
-80.42202436453317
 30
0.0
 10
161.9313484001668
 20
-79.77160531687696
 30
0.0
 10
164.3902608081753
 20
-77.37562401488867
 30
0.0
 10
163.8438576861426
 20
-75.02601314008007
 30
0.0
 10
163.0051737448266
 20
-70.55946706490249
 30
0.0
 10
154.7412971318699
 20
-66.70107243876191
 30
0.0
 10
154.1877693611968
 20
-73.23754252128129
 30
0.0
  0
SPLINE
  5
88
330
79
100
AcDbEntity
  8
Layer 1
100
AcDbSpline
210
0.0
220
0.0
230
1.0
 70
     9
 71
     3
 72
    14
 73
    10
 74
     0
 42
0.0000000001
 43
0.0000000001
 40
0.0
 40
0.0
 40
0.0
 40
0.0
 40
1.0
 40
1.0
 40
1.0
 40
2.0
 40
2.0
 40
2.0
 40
3.0
 40
3.0
 40
3.0
 40
3.0
 10
124.60707766426
 20
-95.07756399118262
 30
0.0
 10
128.4809074768018
 20
-97.55147235047752
 30
0.0
 10
158.1175259046304
 20
-79.03729002834734
 30
0.0
 10
149.685000791741
 20
-78.31177582565124
 30
0.0
 10
144.4353358650778
 20
-79.37395426987677
 30
0.0
 10
121.8088271876731
 20
-84.52073435216062
 30
0.0
 10
122.8194438596929
 20
-89.73102007891156
 30
0.0
 10
126.0936701820273
 20
-89.87528089008174
 30
0.0
 10
127.0216784534659
 20
-92.83466639244762
 30
0.0
 10
124.60707766426
 20
-95.07756399118262
 30
0.0
  0
SPLINE
  5
89
330
79
100
AcDbEntity
  8
Layer 1
100
AcDbSpline
210
0.0
220
0.0
230
1.0
 70
     9
 71
     3
 72
    17
 73
    13
 74
     0
 42
0.0000000001
 43
0.0000000001
 40
0.0
 40
0.0
 40
0.0
 40
0.0
 40
1.0
 40
1.0
 40
1.0
 40
2.0
 40
2.0
 40
2.0
 40
3.0
 40
3.0
 40
3.0
 40
4.0
 40
4.0
 40
4.0
 40
4.0
 10
148.4994833535356
 20
-72.19990942820368
 30
0.0
 10
148.499891266355
 20
-72.15554405287548
 30
0.0
 10
148.5002991791752
 20
-72.11117867754911
 30
0.0
 10
148.5007070919973
 20
-72.06681330222273
 30
0.0
 10
158.9163203262251
 20
-71.0906850790252
 30
0.0
 10
120.4967097914204
 20
-54.55103889070688
 30
0.0
 10
117.9470267718097
 20
-54.99493335139959
 30
0.0
 10
119.7447943347879
 20
-60.66959528041298
 30
0.0
 10
115.6853365017259
 20
-60.88271852631078
 30
0.0
 10
117.8307548583943
 20
-62.45849087286479
 30
0.0
 10
126.3261884920157
 20
-69.63168114512154
 30
0.0
 10
137.451793544481
 20
-73.10349310170568
 30
0.0
 10
148.4994833535356
 20
-72.19990942820368
 30
0.0
  0
SPLINE
  5
8A
330
79
100
AcDbEntity
  8
Layer 1
100
AcDbSpline
210
0.0
220
0.0
230
1.0
 70
     9
 71
     3
 72
    14
 73
    10
 74
     0
 42
0.0000000001
 43
0.0000000001
 40
0.0
 40
0.0
 40
0.0
 40
0.0
 40
1.0
 40
1.0
 40
1.0
 40
2.0
 40
2.0
 40
2.0
 40
3.0
 40
3.0
 40
3.0
 40
3.0
 10
195.7686152293772
 20
-50.87158545490365
 30
0.0
 10
183.5278878159242
 20
-52.26185133077797
 30
0.0
 10
173.4140850892454
 20
-60.99280846879992
 30
0.0
 10
166.3767677438809
 20
-70.58884803169712
 30
0.0
 10
169.550477303037
 20
-68.40586240053108
 30
0.0
 10
211.9383994578602
 20
-61.30742064367495
 30
0.0
 10
201.3495122303102
 20
-56.54013805262093
 30
0.0
 10
197.7998167850746
 20
-55.66426194620999
 30
0.0
 10
191.0709015466946
 20
-56.31200844908653
 30
0.0
 10
195.7686152293772
 20
-50.87158545490365
 30
0.0
  0
SPLINE
  5
8B
330
79
100
AcDbEntity
  8
Layer 1
100
AcDbSpline
210
0.0
220
0.0
230
1.0
 70
     9
 71
     3
 72
    17
 73
    13
 74
     0
 42
0.0000000001
 43
0.0000000001
 40
0.0
 40
0.0
 40
0.0
 40
0.0
 40
1.0
 40
1.0
 40
1.0
 40
2.0
 40
2.0
 40
2.0
 40
3.0
 40
3.0
 40
3.0
 40
4.0
 40
4.0
 40
4.0
 40
4.0
 10
157.9041076727899
 20
-89.27999619648563
 30
0.0
 10
157.9031030681344
 20
-87.84577837341657
 30
0.0
 10
157.1972785416364
 20
-82.63223132885377
 30
0.0
 10
155.1762057033302
 20
-85.12205174566224
 30
0.0
 10
149.2623280955476
 20
-96.20645360200615
 30
0.0
 10
141.294927263526
 20
-106.7832227789895
 30
0.0
 10
138.3651955898085
 20
-119.1277927894416
 30
0.0
 10
138.3443486341202
 20
-122.2666581525191
 30
0.0
 10
143.8587974776292
 20
-115.3369559720122
 30
0.0
 10
145.5924601524802
 20
-118.9913531364491
 30
0.0
 10
151.8976818889696
 20
-117.8629159862594
 30
0.0
 10
157.7460074328319
 20
-96.11295715858251
 30
0.0
 10
157.9041076727899
 20
-89.27999619648563
 30
0.0
  0
SPLINE
  5
8C
330
79
100
AcDbEntity
  8
Layer 1
100
AcDbSpline
210
0.0
220
0.0
230
1.0
 70
     9
 71
     3
 72
    14
 73
    10
 74
     0
 42
0.0000000001
 43
0.0000000001
 40
0.0
 40
0.0
 40
0.0
 40
0.0
 40
1.0
 40
1.0
 40
1.0
 40
2.0
 40
2.0
 40
2.0
 40
3.0
 40
3.0
 40
3.0
 40
3.0
 10
205.1487647794074
 20
-86.95350427399171
 30
0.0
 10
201.6592416974418
 20
-83.19556221812581
 30
0.0
 10
167.0204272365026
 20
-71.14493948979634
 30
0.0
 10
168.3590559199237
 20
-79.26133007028965
 30
0.0
 10
179.6335222362868
 20
-85.73191534241505
 30
0.0
 10
190.7398585603059
 20
-93.88465794298644
 30
0.0
 10
204.1947538145159
 20
-94.5746366202202
 30
0.0
 10
202.3827741229816
 20
-91.64379682007984
 30
0.0
 10
200.4632864130781
 20
-87.79545373796645
 30
0.0
 10
205.1487647794074
 20
-86.95350427399171
 30
0.0
  0
SPLINE
  5
8D
330
79
100
AcDbEntity
  8
Layer 1
100
AcDbSpline
210
0.0
220
0.0
230
1.0
 70
     9
 71
     3
 72
    14
 73
    10
 74
     0
 42
0.0000000001
 43
0.0000000001
 40
0.0
 40
0.0
 40
0.0
 40
0.0
 40
1.0
 40
1.0
 40
1.0
 40
2.0
 40
2.0
 40
2.0
 40
3.0
 40
3.0
 40
3.0
 40
3.0
 10
144.1520067866331
 20
-27.85425959976692
 30
0.0
 10
142.2671933209249
 20
-35.23549289703624
 30
0.0
 10
139.1924705845695
 20
-30.44879969500289
 30
0.0
 10
138.3348163860464
 20
-32.75641151697164
 30
0.0
 10
138.9629053475464
 20
-45.16155224571685
 30
0.0
 10
144.6888145107095
 20
-57.38286475014319
 30
0.0
 10
153.6047233654699
 20
-65.9535328226384
 30
0.0
 10
163.6583059507302
 20
-66.93638663459296
 30
0.0
 10
146.7371727340323
 20
-32.67298058652796
 30
0.0
 10
144.1520067866331
 20
-27.85425959976692
 30
0.0
  0
SPLINE
  5
8E
330
79
100
AcDbEntity
  8
Layer 1
100
AcDbSpline
210
0.0
220
0.0
230
1.0
 70
     9
 71
     3
 72
    20
 73
    16
 74
     0
 42
0.0000000001
 43
0.0000000001
 40
0.0
 40
0.0
 40
0.0
 40
0.0
 40
1.0
 40
1.0
 40
1.0
 40
2.0
 40
2.0
 40
2.0
 40
3.0
 40
3.0
 40
3.0
 40
4.0
 40
4.0
 40
4.0
 40
5.0
 40
5.0
 40
5.0
 40
5.0
 10
186.0615526904003
 20
-112.064811743975
 30
0.0
 10
191.8275235450292
 20
-110.5328875150489
 30
0.0
 10
169.1640790151141
 20
-85.99615389720112
 30
0.0
 10
164.7493267495938
 20
-85.4472975329627
 30
0.0
 10
163.6983538916665
 20
-85.00404034409802
 30
0.0
 10
163.1572672475722
 20
-85.31282063695471
 30
0.0
 10
163.1899391220468
 20
-86.39987916677638
 30
0.0
 10
162.7421551459829
 20
-97.99656144188521
 30
0.0
 10
168.4431897988324
 20
-108.3673983930366
 30
0.0
 10
177.6395403941278
 20
-115.165362587797
 30
0.0
 10
179.6502403021841
 20
-116.3523397306217
 30
0.0
 10
181.280846417625
 20
-116.9302127676446
 30
0.0
 10
180.1313778996027
 20
-113.8388775625071
 30
0.0
 10
179.6023517778012
 20
-109.7433251780439
 30
0.0
 10
183.8403704180382
 20
-110.8778362969497
 30
0.0
 10
186.0615526904003
 20
-112.064811743975
 30
0.0
  0
SPLINE
  5
8F
330
79
100
AcDbEntity
  8
Layer 1
100
AcDbSpline
210
0.0
220
0.0
230
1.0
 70
     9
 71
     3
 72
    14
 73
    10
 74
     0
 42
0.0000000001
 43
0.0000000001
 40
0.0
 40
0.0
 40
0.0
 40
0.0
 40
1.0
 40
1.0
 40
1.0
 40
2.0
 40
2.0
 40
2.0
 40
3.0
 40
3.0
 40
3.0
 40
3.0
 10
171.3684940496041
 20
-27.98476256567483
 30
0.0
 10
162.6250645724049
 20
-38.70520433629554
 30
0.0
 10
161.2594345657635
 20
-53.88943801375171
 30
0.0
 10
163.0973429118076
 20
-67.05446797464538
 30
0.0
 10
166.8101851659721
 20
-66.25625123845748
 30
0.0
 10
187.7219334288038
 20
-25.87417685802211
 30
0.0
 10
179.7354520525114
 20
-27.89899476701339
 30
0.0
 10
176.6522722791542
 20
-29.87140543214355
 30
0.0
 10
171.1811122067793
 20
-35.63916089268787
 30
0.0
 10
171.3684940496041
 20
-27.98476256567483
 30
0.0
  0
SPLINE
  5
90
330
79
100
AcDbEntity
  8
Layer 1
100
AcDbSpline
210
0.0
220
0.0
230
1.0
 70
     9
 71
     3
 72
    83
 73
    79
 74
     0
 42
0.0000000001
 43
0.0000000001
 40
0.0
 40
0.0
 40
0.0
 40
0.0
 40
1.0
 40
1.0
 40
1.0
 40
2.0
 40
2.0
 40
2.0
 40
3.0
 40
3.0
 40
3.0
 40
4.0
 40
4.0
 40
4.0
 40
5.0
 40
5.0
 40
5.0
 40
6.0
 40
6.0
 40
6.0
 40
7.0
 40
7.0
 40
7.0
 40
8.0
 40
8.0
 40
8.0
 40
9.0
 40
9.0
 40
9.0
 40
10.0
 40
10.0
 40
10.0
 40
11.0
 40
11.0
 40
11.0
 40
12.0
 40
12.0
 40
12.0
 40
13.0
 40
13.0
 40
13.0
 40
14.0
 40
14.0
 40
14.0
 40
15.0
 40
15.0
 40
15.0
 40
16.0
 40
16.0
 40
16.0
 40
17.0
 40
17.0
 40
17.0
 40
18.0
 40
18.0
 40
18.0
 40
19.0
 40
19.0
 40
19.0
 40
20.0
 40
20.0
 40
20.0
 40
21.0
 40
21.0
 40
21.0
 40
22.0
 40
22.0
 40
22.0
 40
23.0
 40
23.0
 40
23.0
 40
24.0
 40
24.0
 40
24.0
 40
25.0
 40
25.0
 40
25.0
 40
26.0
 40
26.0
 40
26.0
 40
26.0
 10
176.3793922578898
 20
-72.05895612432414
 30
0.0
 10
181.7652141897506
 20
-72.4791090103081
 30
0.0
 10
221.546594689542
 20
-83.79086431380983
 30
0.0
 10
209.6124627959962
 20
-91.26062993957658
 30
0.0
 10
207.6064395225094
 20
-91.54921521654705
 30
0.0
 10
207.6063618248281
 20
-91.54923464096738
 30
0.0
 10
208.6317381088738
 20
-93.33310539018475
 30
0.0
 10
214.0756945871126
 20
-106.4150512420738
 30
0.0
 10
182.9858192105694
 20
-93.5383228616738
 30
0.0
 10
178.9161049660542
 20
-90.52661662456467
 30
0.0
 10
178.8324051401887
 20
-90.62097074481426
 30
0.0
 10
178.7487053143195
 20
-90.71532486506384
 30
0.0
 10
178.6649860640282
 20
-90.80968869752359
 30
0.0
 10
182.5240469063283
 20
-96.49238200714172
 30
0.0
 10
200.6870818921798
 20
-113.7205499272213
 30
0.0
 10
186.4922834687058
 20
-116.4134838973705
 30
0.0
 10
184.4404444412193
 20
-116.2883819541966
 30
0.0
 10
185.0528518485243
 20
-117.9922626295065
 30
0.0
 10
184.1890661745928
 20
-119.2486130362476
 30
0.0
 10
175.3257487758274
 20
-125.5775419257415
 30
0.0
 10
163.1849766903506
 20
-107.0024837960227
 30
0.0
 10
160.7437247867583
 20
-99.55791330323609
 30
0.0
 10
160.2203346473688
 20
-104.6979039374628
 30
0.0
 10
147.6174114277501
 20
-133.905589661409
 30
0.0
 10
141.2889356859778
 20
-124.9234808607289
 30
0.0
 10
140.8117961660118
 20
-123.2112577180605
 30
0.0
 10
138.9940400412197
 20
-124.9816371276038
 30
0.0
 10
137.7908441789013
 20
-124.5492490366996
 30
0.0
 10
125.8406588937596
 20
-119.6438704380916
 30
0.0
 10
145.5567042836974
 20
-97.3065142674941
 30
0.0
 10
147.3372231816047
 20
-89.36136509195057
 30
0.0
 10
140.0796200809373
 20
-94.71931903302083
 30
0.0
 10
131.9297899788416
 20
-99.97113728899785
 30
0.0
 10
122.5413244174242
 20
-99.52202082163513
 30
0.0
 10
119.7191235214304
 20
-99.55876462424384
 30
0.0
 10
117.4883784134717
 20
-96.76810130586545
 30
0.0
 10
119.457580839
 20
-94.25548958652052
 30
0.0
 10
119.7320726984417
 20
-93.88061180509522
 30
0.0
 10
120.3829655889094
 20
-93.59080917059783
 30
0.0
 10
119.5965485199576
 20
-93.02390747229765
 30
0.0
 10
110.8355716175929
 20
-84.64635179777543
 30
0.0
 10
132.2195697367333
 20
-78.58113359426898
 30
0.0
 10
138.0171727871184
 20
-76.47290305653678
 30
0.0
 10
132.4497206042006
 20
-76.58511989769067
 30
0.0
 10
102.8483788012999
 20
-63.0459939898974
 30
0.0
 10
112.3722105418528
 20
-56.79794422843315
 30
0.0
 10
113.5149957045587
 20
-56.48695218980811
 30
0.0
 10
113.5128784427761
 20
-56.48771945439967
 30
0.0
 10
113.1265655774077
 20
-55.42189181565936
 30
0.0
 10
109.2740228349885
 20
-41.91711498530366
 30
0.0
 10
138.6487535231927
 20
-59.03687867563167
 30
0.0
 10
143.3626566302582
 20
-60.59864543429012
 30
0.0
 10
139.4844839150182
 20
-53.91533381434419
 30
0.0
 10
135.4983246303609
 20
-46.90500885193614
 30
0.0
 10
134.6864591758412
 20
-39.08254489394312
 30
0.0
 10
134.2296996345403
 20
-34.9690729977965
 30
0.0
 10
131.7417560706217
 20
-19.07110941509563
 30
0.0
 10
139.6837491760443
 20
-27.1155489063849
 30
0.0
 10
145.6220947185884
 20
-9.609431224242143
 30
0.0
 10
155.3949646134351
 20
-43.85512586105869
 30
0.0
 10
158.3406909371752
 20
-48.86657739596103
 30
0.0
 10
160.770987867525
 20
-39.22150820065508
 30
0.0
 10
162.8444862951383
 20
-27.13994325038857
 30
0.0
 10
171.8413465314297
 20
-21.60584144883069
 30
0.0
 10
174.4336585463752
 20
-20.49376790891165
 30
0.0
 10
176.0198258966665
 20
-22.0974051077028
 30
0.0
 10
176.1904509243486
 20
-24.70015141345812
 30
0.0
 10
195.6274839627531
 20
-17.60155976525493
 30
0.0
 10
180.1625226629912
 20
-46.06867110129496
 30
0.0
 10
177.697513976067
 20
-53.36774968627742
 30
0.0
 10
182.4577060694737
 20
-50.27483894686611
 30
0.0
 10
200.1752573467729
 20
-40.74075069617174
 30
0.0
 10
201.2400696457516
 20
-50.70623216339299
 30
0.0
 10
200.9955518371298
 20
-51.86617403321725
 30
0.0
 10
201.0174043096522
 20
-51.80722091845473
 30
0.0
 10
202.1617940151664
 20
-52.2311588854036
 30
0.0
 10
222.5267813170758
 20
-63.30257257826815
 30
0.0
 10
183.8583479901735
 20
-69.9624024853565
 30
0.0
 10
176.3793922578898
 20
-72.05895612432414
 30
0.0
  0
HATCH
  5
91
330
79
100
AcDbEntity
  8
Layer 1
 62
    18
420
        0
440
 33554687
100
AcDbHatch
 10
0.0
 20
0.0
 30
0.0
210
0.0
220
0.0
230
1.0
  2
SOLID
 70
     1
 71
     1
 91
       10
 92
        1
 93
        1
 72
     4
 94
        3
 73
     0
 74
     0
 95
       14
 96
       10
 40
0.0
 40
0.0
 40
0.0
 40
0.0
 40
1.0
 40
1.0
 40
1.0
 40
2.0
 40
2.0
 40
2.0
 40
3.0
 40
3.0
 40
3.0
 40
3.0
 10
154.1877693611968
 20
-73.23754252128129
 10
154.5987167377425
 20
-76.27356520526882
 10
155.7878142601366
 20
-81.46696656616132
 10
159.6482652878676
 20
-80.42202436453317
 10
161.9313484001668
 20
-79.77160531687696
 10
164.3902608081753
 20
-77.37562401488867
 10
163.8438576861426
 20
-75.02601314008007
 10
163.0051737448266
 20
-70.55946706490249
 10
154.7412971318699
 20
-66.70107243876191
 10
154.1877693611968
 20
-73.23754252128129
 97
        0
 97
        1
330
87
 92
        1
 93
        1
 72
     4
 94
        3
 73
     0
 74
     0
 95
       14
 96
       10
 40
0.0
 40
0.0
 40
0.0
 40
0.0
 40
1.0
 40
1.0
 40
1.0
 40
2.0
 40
2.0
 40
2.0
 40
3.0
 40
3.0
 40
3.0
 40
3.0
 10
124.60707766426
 20
-95.07756399118262
 10
128.4809074768018
 20
-97.55147235047752
 10
158.1175259046304
 20
-79.03729002834734
 10
149.685000791741
 20
-78.31177582565124
 10
144.4353358650778
 20
-79.37395426987677
 10
121.8088271876731
 20
-84.52073435216062
 10
122.8194438596929
 20
-89.73102007891156
 10
126.0936701820273
 20
-89.87528089008174
 10
127.0216784534659
 20
-92.83466639244762
 10
124.60707766426
 20
-95.07756399118262
 97
        0
 97
        1
330
88
 92
        1
 93
        1
 72
     4
 94
        3
 73
     0
 74
     0
 95
       17
 96
       13
 40
0.0
 40
0.0
 40
0.0
 40
0.0
 40
1.0
 40
1.0
 40
1.0
 40
2.0
 40
2.0
 40
2.0
 40
3.0
 40
3.0
 40
3.0
 40
4.0
 40
4.0
 40
4.0
 40
4.0
 10
148.4994833535356
 20
-72.19990942820368
 10
148.499891266355
 20
-72.15554405287548
 10
148.5002991791752
 20
-72.11117867754911
 10
148.5007070919973
 20
-72.06681330222273
 10
158.9163203262251
 20
-71.0906850790252
 10
120.4967097914204
 20
-54.55103889070688
 10
117.9470267718097
 20
-54.99493335139959
 10
119.7447943347879
 20
-60.66959528041298
 10
115.6853365017259
 20
-60.88271852631078
 10
117.8307548583943
 20
-62.45849087286479
 10
126.3261884920157
 20
-69.63168114512154
 10
137.451793544481
 20
-73.10349310170568
 10
148.4994833535356
 20
-72.19990942820368
 97
        0
 97
        1
330
89
 92
        1
 93
        1
 72
     4
 94
        3
 73
     0
 74
     0
 95
       14
 96
       10
 40
0.0
 40
0.0
 40
0.0
 40
0.0
 40
1.0
 40
1.0
 40
1.0
 40
2.0
 40
2.0
 40
2.0
 40
3.0
 40
3.0
 40
3.0
 40
3.0
 10
195.7686152293772
 20
-50.87158545490365
 10
183.5278878159242
 20
-52.26185133077797
 10
173.4140850892454
 20
-60.99280846879992
 10
166.3767677438809
 20
-70.58884803169712
 10
169.550477303037
 20
-68.40586240053108
 10
211.9383994578602
 20
-61.30742064367495
 10
201.3495122303102
 20
-56.54013805262093
 10
197.7998167850746
 20
-55.66426194620999
 10
191.0709015466946
 20
-56.31200844908653
 10
195.7686152293772
 20
-50.87158545490365
 97
        0
 97
        1
330
8A
 92
        1
 93
        1
 72
     4
 94
        3
 73
     0
 74
     0
 95
       17
 96
       13
 40
0.0
 40
0.0
 40
0.0
 40
0.0
 40
1.0
 40
1.0
 40
1.0
 40
2.0
 40
2.0
 40
2.0
 40
3.0
 40
3.0
 40
3.0
 40
4.0
 40
4.0
 40
4.0
 40
4.0
 10
157.9041076727899
 20
-89.27999619648563
 10
157.9031030681344
 20
-87.84577837341657
 10
157.1972785416364
 20
-82.63223132885377
 10
155.1762057033302
 20
-85.12205174566224
 10
149.2623280955476
 20
-96.20645360200615
 10
141.294927263526
 20
-106.7832227789895
 10
138.3651955898085
 20
-119.1277927894416
 10
138.3443486341202
 20
-122.2666581525191
 10
143.8587974776292
 20
-115.3369559720122
 10
145.5924601524802
 20
-118.9913531364491
 10
151.8976818889696
 20
-117.8629159862594
 10
157.7460074328319
 20
-96.11295715858251
 10
157.9041076727899
 20
-89.27999619648563
 97
        0
 97
        1
330
8B
 92
        1
 93
        1
 72
     4
 94
        3
 73
     0
 74
     0
 95
       14
 96
       10
 40
0.0
 40
0.0
 40
0.0
 40
0.0
 40
1.0
 40
1.0
 40
1.0
 40
2.0
 40
2.0
 40
2.0
 40
3.0
 40
3.0
 40
3.0
 40
3.0
 10
205.1487647794074
 20
-86.95350427399171
 10
201.6592416974418
 20
-83.19556221812581
 10
167.0204272365026
 20
-71.14493948979634
 10
168.3590559199237
 20
-79.26133007028965
 10
179.6335222362868
 20
-85.73191534241505
 10
190.7398585603059
 20
-93.88465794298644
 10
204.1947538145159
 20
-94.5746366202202
 10
202.3827741229816
 20
-91.64379682007984
 10
200.4632864130781
 20
-87.79545373796645
 10
205.1487647794074
 20
-86.95350427399171
 97
        0
 97
        1
330
8C
 92
        1
 93
        1
 72
     4
 94
        3
 73
     0
 74
     0
 95
       14
 96
       10
 40
0.0
 40
0.0
 40
0.0
 40
0.0
 40
1.0
 40
1.0
 40
1.0
 40
2.0
 40
2.0
 40
2.0
 40
3.0
 40
3.0
 40
3.0
 40
3.0
 10
144.1520067866331
 20
-27.85425959976692
 10
142.2671933209249
 20
-35.23549289703624
 10
139.1924705845695
 20
-30.44879969500289
 10
138.3348163860464
 20
-32.75641151697164
 10
138.9629053475464
 20
-45.16155224571685
 10
144.6888145107095
 20
-57.38286475014319
 10
153.6047233654699
 20
-65.9535328226384
 10
163.6583059507302
 20
-66.93638663459296
 10
146.7371727340323
 20
-32.67298058652796
 10
144.1520067866331
 20
-27.85425959976692
 97
        0
 97
        1
330
8D
 92
        1
 93
        1
 72
     4
 94
        3
 73
     0
 74
     0
 95
       20
 96
       16
 40
0.0
 40
0.0
 40
0.0
 40
0.0
 40
1.0
 40
1.0
 40
1.0
 40
2.0
 40
2.0
 40
2.0
 40
3.0
 40
3.0
 40
3.0
 40
4.0
 40
4.0
 40
4.0
 40
5.0
 40
5.0
 40
5.0
 40
5.0
 10
186.0615526904003
 20
-112.064811743975
 10
191.8275235450292
 20
-110.5328875150489
 10
169.1640790151141
 20
-85.99615389720112
 10
164.7493267495938
 20
-85.4472975329627
 10
163.6983538916665
 20
-85.00404034409802
 10
163.1572672475722
 20
-85.31282063695471
 10
163.1899391220468
 20
-86.39987916677638
 10
162.7421551459829
 20
-97.99656144188521
 10
168.4431897988324
 20
-108.3673983930366
 10
177.6395403941278
 20
-115.165362587797
 10
179.6502403021841
 20
-116.3523397306217
 10
181.280846417625
 20
-116.9302127676446
 10
180.1313778996027
 20
-113.8388775625071
 10
179.6023517778012
 20
-109.7433251780439
 10
183.8403704180382
 20
-110.8778362969497
 10
186.0615526904003
 20
-112.064811743975
 97
        0
 97
        1
330
8E
 92
        1
 93
        1
 72
     4
 94
        3
 73
     0
 74
     0
 95
       14
 96
       10
 40
0.0
 40
0.0
 40
0.0
 40
0.0
 40
1.0
 40
1.0
 40
1.0
 40
2.0
 40
2.0
 40
2.0
 40
3.0
 40
3.0
 40
3.0
 40
3.0
 10
171.3684940496041
 20
-27.98476256567483
 10
162.6250645724049
 20
-38.70520433629554
 10
161.2594345657635
 20
-53.88943801375171
 10
163.0973429118076
 20
-67.05446797464538
 10
166.8101851659721
 20
-66.25625123845748
 10
187.7219334288038
 20
-25.87417685802211
 10
179.7354520525114
 20
-27.89899476701339
 10
176.6522722791542
 20
-29.87140543214355
 10
171.1811122067793
 20
-35.63916089268787
 10
171.3684940496041
 20
-27.98476256567483
 97
        0
 97
        1
330
8F
 92
        1
 93
        1
 72
     4
 94
        3
 73
     0
 74
     0
 95
       83
 96
       79
 40
0.0
 40
0.0
 40
0.0
 40
0.0
 40
1.0
 40
1.0
 40
1.0
 40
2.0
 40
2.0
 40
2.0
 40
3.0
 40
3.0
 40
3.0
 40
4.0
 40
4.0
 40
4.0
 40
5.0
 40
5.0
 40
5.0
 40
6.0
 40
6.0
 40
6.0
 40
7.0
 40
7.0
 40
7.0
 40
8.0
 40
8.0
 40
8.0
 40
9.0
 40
9.0
 40
9.0
 40
10.0
 40
10.0
 40
10.0
 40
11.0
 40
11.0
 40
11.0
 40
12.0
 40
12.0
 40
12.0
 40
13.0
 40
13.0
 40
13.0
 40
14.0
 40
14.0
 40
14.0
 40
15.0
 40
15.0
 40
15.0
 40
16.0
 40
16.0
 40
16.0
 40
17.0
 40
17.0
 40
17.0
 40
18.0
 40
18.0
 40
18.0
 40
19.0
 40
19.0
 40
19.0
 40
20.0
 40
20.0
 40
20.0
 40
21.0
 40
21.0
 40
21.0
 40
22.0
 40
22.0
 40
22.0
 40
23.0
 40
23.0
 40
23.0
 40
24.0
 40
24.0
 40
24.0
 40
25.0
 40
25.0
 40
25.0
 40
26.0
 40
26.0
 40
26.0
 40
26.0
 10
176.3793922578898
 20
-72.05895612432414
 10
181.7652141897506
 20
-72.4791090103081
 10
221.546594689542
 20
-83.79086431380983
 10
209.6124627959962
 20
-91.26062993957658
 10
207.6064395225094
 20
-91.54921521654705
 10
207.6063618248281
 20
-91.54923464096738
 10
208.6317381088738
 20
-93.33310539018475
 10
214.0756945871126
 20
-106.4150512420738
 10
182.9858192105694
 20
-93.5383228616738
 10
178.9161049660542
 20
-90.52661662456467
 10
178.8324051401887
 20
-90.62097074481426
 10
178.7487053143195
 20
-90.71532486506384
 10
178.6649860640282
 20
-90.80968869752359
 10
182.5240469063283
 20
-96.49238200714172
 10
200.6870818921798
 20
-113.7205499272213
 10
186.4922834687058
 20
-116.4134838973705
 10
184.4404444412193
 20
-116.2883819541966
 10
185.0528518485243
 20
-117.9922626295065
 10
184.1890661745928
 20
-119.2486130362476
 10
175.3257487758274
 20
-125.5775419257415
 10
163.1849766903506
 20
-107.0024837960227
 10
160.7437247867583
 20
-99.55791330323609
 10
160.2203346473688
 20
-104.6979039374628
 10
147.6174114277501
 20
-133.905589661409
 10
141.2889356859778
 20
-124.9234808607289
 10
140.8117961660118
 20
-123.2112577180605
 10
138.9940400412197
 20
-124.9816371276038
 10
137.7908441789013
 20
-124.5492490366996
 10
125.8406588937596
 20
-119.6438704380916
 10
145.5567042836974
 20
-97.3065142674941
 10
147.3372231816047
 20
-89.36136509195057
 10
140.0796200809373
 20
-94.71931903302083
 10
131.9297899788416
 20
-99.97113728899785
 10
122.5413244174242
 20
-99.52202082163513
 10
119.7191235214304
 20
-99.55876462424384
 10
117.4883784134717
 20
-96.76810130586545
 10
119.457580839
 20
-94.25548958652052
 10
119.7320726984417
 20
-93.88061180509522
 10
120.3829655889094
 20
-93.59080917059783
 10
119.5965485199576
 20
-93.02390747229765
 10
110.8355716175929
 20
-84.64635179777543
 10
132.2195697367333
 20
-78.58113359426898
 10
138.0171727871184
 20
-76.47290305653678
 10
132.4497206042006
 20
-76.58511989769067
 10
102.8483788012999
 20
-63.0459939898974
 10
112.3722105418528
 20
-56.79794422843315
 10
113.5149957045587
 20
-56.48695218980811
 10
113.5128784427761
 20
-56.48771945439967
 10
113.1265655774077
 20
-55.42189181565936
 10
109.2740228349885
 20
-41.91711498530366
 10
138.6487535231927
 20
-59.03687867563167
 10
143.3626566302582
 20
-60.59864543429012
 10
139.4844839150182
 20
-53.91533381434419
 10
135.4983246303609
 20
-46.90500885193614
 10
134.6864591758412
 20
-39.08254489394312
 10
134.2296996345403
 20
-34.9690729977965
 10
131.7417560706217
 20
-19.07110941509563
 10
139.6837491760443
 20
-27.1155489063849
 10
145.6220947185884
 20
-9.609431224242143
 10
155.3949646134351
 20
-43.85512586105869
 10
158.3406909371752
 20
-48.86657739596103
 10
160.770987867525
 20
-39.22150820065508
 10
162.8444862951383
 20
-27.13994325038857
 10
171.8413465314297
 20
-21.60584144883069
 10
174.4336585463752
 20
-20.49376790891165
 10
176.0198258966665
 20
-22.0974051077028
 10
176.1904509243486
 20
-24.70015141345812
 10
195.6274839627531
 20
-17.60155976525493
 10
180.1625226629912
 20
-46.06867110129496
 10
177.697513976067
 20
-53.36774968627742
 10
182.4577060694737
 20
-50.27483894686611
 10
200.1752573467729
 20
-40.74075069617174
 10
201.2400696457516
 20
-50.70623216339299
 10
200.9955518371298
 20
-51.86617403321725
 10
201.0174043096522
 20
-51.80722091845473
 10
202.1617940151664
 20
-52.2311588854036
 10
222.5267813170758
 20
-63.30257257826815
 10
183.8583479901735
 20
-69.9624024853565
 10
176.3793922578898
 20
-72.05895612432414
 97
        0
 97
        1
330
90
 75
     2
 76
     1
 98
        1
 10
0.0
 20
0.0
450
        0
451
        0
460
0.0
461
0.0
452
        0
462
0.0
453
        0
470

  0
SPLINE
  5
92
330
79
100
AcDbEntity
  8
Layer 1
100
AcDbSpline
210
0.0
220
0.0
230
1.0
 70
     9
 71
     3
 72
    20
 73
    16
 74
     0
 42
0.0000000001
 43
0.0000000001
 40
0.0
 40
0.0
 40
0.0
 40
0.0
 40
1.0
 40
1.0
 40
1.0
 40
2.0
 40
2.0
 40
2.0
 40
3.0
 40
3.0
 40
3.0
 40
4.0
 40
4.0
 40
4.0
 40
5.0
 40
5.0
 40
5.0
 40
5.0
 10
148.2672255633479
 20
-142.1683117057646
 30
0.0
 10
146.5868966850494
 20
-142.0900895663417
 30
0.0
 10
145.7950213540725
 20
-142.7253457986935
 30
0.0
 10
145.6739683685036
 20
-144.0634940939117
 30
0.0
 10
145.0302750386263
 20
-149.1568580333878
 30
0.0
 10
151.6779390436095
 20
-149.8926130203035
 30
0.0
 10
155.2899857146403
 20
-151.0365481058125
 30
0.0
 10
156.7459231338671
 20
-151.1736509137208
 30
0.0
 10
156.2241788902865
 20
-149.2007351235461
 30
0.0
 10
156.6895030909909
 20
-148.2863860016532
 30
0.0
 10
156.8418444151248
 20
-147.7381670245631
 30
0.0
 10
157.3603404587356
 20
-147.1149539326215
 30
0.0
 10
157.213705512002
 20
-146.7049626992484
 30
0.0
 10
155.1335846297916
 20
-144.19464544546
 30
0.0
 10
151.1884408949972
 20
-142.6828042324032
 30
0.0
 10
148.2672255633479
 20
-142.1683117057646
 30
0.0
  0
SPLINE
  5
93
330
79
100
AcDbEntity
  8
Layer 1
100
AcDbSpline
210
0.0
220
0.0
230
1.0
 70
     9
 71
     3
 72
    14
 73
    10
 74
     0
 42
0.0000000001
 43
0.0000000001
 40
0.0
 40
0.0
 40
0.0
 40
0.0
 40
1.0
 40
1.0
 40
1.0
 40
2.0
 40
2.0
 40
2.0
 40
3.0
 40
3.0
 40
3.0
 40
3.0
 10
166.8461977025163
 20
-146.2517327069072
 30
0.0
 10
164.5580212120658
 20
-146.1230047293538
 30
0.0
 10
161.3187161171026
 20
-147.9430643374253
 30
0.0
 10
160.6794840490238
 20
-150.3672594231721
 30
0.0
 10
160.623443421131
 20
-153.0501074610747
 30
0.0
 10
161.6192713197379
 20
-156.5585756270993
 30
0.0
 10
164.8401622506371
 20
-156.7805034807497
 30
0.0
 10
171.9345105574175
 20
-159.5389549364736
 30
0.0
 10
175.1868216198927
 20
-145.6868465416082
 30
0.0
 10
166.8461977025163
 20
-146.2517327069072
 30
0.0
  0
SPLINE
  5
94
330
79
100
AcDbEntity
  8
Layer 1
100
AcDbSpline
210
0.0
220
0.0
230
1.0
 70
     9
 71
     3
 72
    17
 73
    13
 74
     0
 42
0.0000000001
 43
0.0000000001
 40
0.0
 40
0.0
 40
0.0
 40
0.0
 40
1.0
 40
1.0
 40
1.0
 40
2.0
 40
2.0
 40
2.0
 40
3.0
 40
3.0
 40
3.0
 40
4.0
 40
4.0
 40
4.0
 40
4.0
 10
151.1726331879272
 20
-161.0442055293661
 30
0.0
 10
151.6981180157618
 20
-169.9785166410547
 30
0.0
 10
160.8216419555356
 20
-169.244572154379
 30
0.0
 10
163.4747692441778
 20
-161.7496205154075
 30
0.0
 10
163.6271245434509
 20
-161.2300001068633
 30
0.0
 10
163.4103091671823
 20
-161.0770133747828
 30
0.0
 10
162.9885078864336
 20
-161.006172514968
 30
0.0
 10
159.8351871784034
 20
-160.5396733891921
 30
0.0
 10
158.2579900362907
 20
-157.3794091419895
 30
0.0
 10
156.8289718636133
 20
-155.1682576018356
 30
0.0
 10
153.1891965246959
 20
-155.6511664803729
 30
0.0
 10
151.1723090766627
 20
-157.1225832894379
 30
0.0
 10
151.1726331879272
 20
-161.0442055293661
 30
0.0
  0
SPLINE
  5
95
330
79
100
AcDbEntity
  8
Layer 1
100
AcDbSpline
210
0.0
220
0.0
230
1.0
 70
     9
 71
     3
 72
    20
 73
    16
 74
     0
 42
0.0000000001
 43
0.0000000001
 40
0.0
 40
0.0
 40
0.0
 40
0.0
 40
1.0
 40
1.0
 40
1.0
 40
2.0
 40
2.0
 40
2.0
 40
3.0
 40
3.0
 40
3.0
 40
4.0
 40
4.0
 40
4.0
 40
5.0
 40
5.0
 40
5.0
 40
5.0
 10
181.83897514423
 20
-162.2652439962785
 30
0.0
 10
181.4296825992533
 20
-158.7344855599967
 30
0.0
 10
180.8382265266609
 20
-155.2397978651406
 30
0.0
 10
177.1127282423476
 20
-153.9069904636835
 30
0.0
 10
176.1289920594045
 20
-153.5408822905647
 30
0.0
 10
176.1663063702654
 20
-153.4486745687245
 30
0.0
 10
175.7591899510535
 20
-154.4672911546058
 30
0.0
 10
174.5725715564185
 20
-157.4361777838076
 30
0.0
 10
172.7181027526349
 20
-159.7875621005551
 30
0.0
 10
169.6116912296856
 20
-160.8997266932529
 30
0.0
 10
169.0242190705849
 20
-161.1100348888158
 30
0.0
 10
168.9006020615725
 20
-161.4328687495599
 30
0.0
 10
168.8990092591302
 20
-161.9418468273561
 30
0.0
 10
169.1618785828032
 20
-173.891255414197
 30
0.0
 10
180.1052266654224
 20
-173.5611443605721
 30
0.0
 10
181.83897514423
 20
-162.2652439962785
 30
0.0
  0
SPLINE
  5
96
330
79
100
AcDbEntity
  8
Layer 1
100
AcDbSpline
210
0.0
220
0.0
230
1.0
 70
     9
 71
     3
 72
    14
 73
    10
 74
     0
 42
0.0000000001
 43
0.0000000001
 40
0.0
 40
0.0
 40
0.0
 40
0.0
 40
1.0
 40
1.0
 40
1.0
 40
2.0
 40
2.0
 40
2.0
 40
3.0
 40
3.0
 40
3.0
 40
3.0
 10
158.6084759915757
 20
-127.7072971865354
 30
0.0
 10
149.0630759548175
 20
-127.6392794245639
 30
0.0
 10
155.6165716320138
 20
-142.9308329509222
 30
0.0
 10
161.9695014498466
 20
-143.0815630395227
 30
0.0
 10
163.468281941663
 20
-142.1565722558962
 30
0.0
 10
166.003907047705
 20
-142.585082839003
 30
0.0
 10
166.5976309483921
 20
-140.6589211380697
 30
0.0
 10
168.7479377691743
 20
-134.9224116014839
 30
0.0
 10
165.092833577537
 20
-127.7638052294469
 30
0.0
 10
158.6084759915757
 20
-127.7072971865354
 30
0.0
  0
SPLINE
  5
97
330
79
100
AcDbEntity
  8
Layer 1
100
AcDbSpline
210
0.0
220
0.0
230
1.0
 70
     9
 71
     3
 72
    14
 73
    10
 74
     0
 42
0.0000000001
 43
0.0000000001
 40
0.0
 40
0.0
 40
0.0
 40
0.0
 40
1.0
 40
1.0
 40
1.0
 40
2.0
 40
2.0
 40
2.0
 40
3.0
 40
3.0
 40
3.0
 40
3.0
 10
180.8095197319817
 20
-133.5115275573007
 30
0.0
 10
176.9156688379989
 20
-133.5955290445236
 30
0.0
 10
171.6658355938398
 20
-139.3953059989053
 30
0.0
 10
172.0187272876755
 20
-142.9572128377603
 30
0.0
 10
174.1081787299299
 20
-143.9640467761519
 30
0.0
 10
174.70509379539
 20
-146.2952369920076
 30
0.0
 10
175.9438333616326
 20
-147.9247161337189
 30
0.0
 10
185.2682311808185
 20
-150.4378772354757
 30
0.0
 10
193.4375759394497
 20
-134.7525894503269
 30
0.0
 10
180.8095197319817
 20
-133.5115275573007
 30
0.0
  0
SPLINE
  5
98
330
79
100
AcDbEntity
  8
Layer 1
100
AcDbSpline
210
0.0
220
0.0
230
1.0
 70
     9
 71
     3
 72
    26
 73
    22
 74
     0
 42
0.0000000001
 43
0.0000000001
 40
0.0
 40
0.0
 40
0.0
 40
0.0
 40
1.0
 40
1.0
 40
1.0
 40
2.0
 40
2.0
 40
2.0
 40
3.0
 40
3.0
 40
3.0
 40
4.0
 40
4.0
 40
4.0
 40
5.0
 40
5.0
 40
5.0
 40
6.0
 40
6.0
 40
6.0
 40
7.0
 40
7.0
 40
7.0
 40
7.0
 10
171.5245498400509
 20
-134.260610890974
 30
0.0
 10
186.2954301856371
 20
-118.3297910084566
 30
0.0
 10
202.2639963883812
 20
-143.9236849961862
 30
0.0
 10
182.2193247126506
 20
-151.8211606884633
 30
0.0
 10
194.4192126028774
 20
-163.610741943161
 30
0.0
 10
175.0428917278204
 20
-187.3574769488932
 30
0.0
 10
165.6751831689671
 20
-168.2837005357032
 30
0.0
 10
165.1747834160887
 20
-166.8217303766323
 30
0.0
 10
163.9458862805095
 20
-168.916371960755
 30
0.0
 10
163.2481761283416
 20
-169.292093827953
 30
0.0
 10
161.1800361092591
 20
-171.2820403454061
 30
0.0
 10
158.6133126721634
 20
-171.9232016014466
 30
0.0
 10
155.8530831628195
 20
-172.1194853657543
 30
0.0
 10
147.412116673343
 20
-171.4398376275403
 30
0.0
 10
144.4724817569513
 20
-160.5205201021199
 30
0.0
 10
149.0019930994676
 20
-153.8050349784262
 30
0.0
 10
138.6263186910628
 20
-151.6198807313012
 30
0.0
 10
138.485246616935
 20
-135.4752644165901
 30
0.0
 10
150.6469112600698
 20
-137.9344291471434
 30
0.0
 10
143.5041749225047
 20
-119.9507329697962
 30
0.0
 10
168.5043315392176
 20
-118.8371437569922
 30
0.0
 10
171.5245498400509
 20
-134.260610890974
 30
0.0
  0
HATCH
  5
99
330
79
100
AcDbEntity
  8
Layer 1
 62
    18
420
        0
440
 33554687
100
AcDbHatch
 10
0.0
 20
0.0
 30
0.0
210
0.0
220
0.0
230
1.0
  2
SOLID
 70
     1
 71
     1
 91
        7
 92
        1
 93
        1
 72
     4
 94
        3
 73
     0
 74
     0
 95
       20
 96
       16
 40
0.0
 40
0.0
 40
0.0
 40
0.0
 40
1.0
 40
1.0
 40
1.0
 40
2.0
 40
2.0
 40
2.0
 40
3.0
 40
3.0
 40
3.0
 40
4.0
 40
4.0
 40
4.0
 40
5.0
 40
5.0
 40
5.0
 40
5.0
 10
148.2672255633479
 20
-142.1683117057646
 10
146.5868966850494
 20
-142.0900895663417
 10
145.7950213540725
 20
-142.7253457986935
 10
145.6739683685036
 20
-144.0634940939117
 10
145.0302750386263
 20
-149.1568580333878
 10
151.6779390436095
 20
-149.8926130203035
 10
155.2899857146403
 20
-151.0365481058125
 10
156.7459231338671
 20
-151.1736509137208
 10
156.2241788902865
 20
-149.2007351235461
 10
156.6895030909909
 20
-148.2863860016532
 10
156.8418444151248
 20
-147.7381670245631
 10
157.3603404587356
 20
-147.1149539326215
 10
157.213705512002
 20
-146.7049626992484
 10
155.1335846297916
 20
-144.19464544546
 10
151.1884408949972
 20
-142.6828042324032
 10
148.2672255633479
 20
-142.1683117057646
 97
        0
 97
        1
330
92
 92
        1
 93
        1
 72
     4
 94
        3
 73
     0
 74
     0
 95
       14
 96
       10
 40
0.0
 40
0.0
 40
0.0
 40
0.0
 40
1.0
 40
1.0
 40
1.0
 40
2.0
 40
2.0
 40
2.0
 40
3.0
 40
3.0
 40
3.0
 40
3.0
 10
166.8461977025163
 20
-146.2517327069072
 10
164.5580212120658
 20
-146.1230047293538
 10
161.3187161171026
 20
-147.9430643374253
 10
160.6794840490238
 20
-150.3672594231721
 10
160.623443421131
 20
-153.0501074610747
 10
161.6192713197379
 20
-156.5585756270993
 10
164.8401622506371
 20
-156.7805034807497
 10
171.9345105574175
 20
-159.5389549364736
 10
175.1868216198927
 20
-145.6868465416082
 10
166.8461977025163
 20
-146.2517327069072
 97
        0
 97
        1
330
93
 92
        1
 93
        1
 72
     4
 94
        3
 73
     0
 74
     0
 95
       17
 96
       13
 40
0.0
 40
0.0
 40
0.0
 40
0.0
 40
1.0
 40
1.0
 40
1.0
 40
2.0
 40
2.0
 40
2.0
 40
3.0
 40
3.0
 40
3.0
 40
4.0
 40
4.0
 40
4.0
 40
4.0
 10
151.1726331879272
 20
-161.0442055293661
 10
151.6981180157618
 20
-169.9785166410547
 10
160.8216419555356
 20
-169.244572154379
 10
163.4747692441778
 20
-161.7496205154075
 10
163.6271245434509
 20
-161.2300001068633
 10
163.4103091671823
 20
-161.0770133747828
 10
162.9885078864336
 20
-161.006172514968
 10
159.8351871784034
 20
-160.5396733891921
 10
158.2579900362907
 20
-157.3794091419895
 10
156.8289718636133
 20
-155.1682576018356
 10
153.1891965246959
 20
-155.6511664803729
 10
151.1723090766627
 20
-157.1225832894379
 10
151.1726331879272
 20
-161.0442055293661
 97
        0
 97
        1
330
94
 92
        1
 93
        1
 72
     4
 94
        3
 73
     0
 74
     0
 95
       20
 96
       16
 40
0.0
 40
0.0
 40
0.0
 40
0.0
 40
1.0
 40
1.0
 40
1.0
 40
2.0
 40
2.0
 40
2.0
 40
3.0
 40
3.0
 40
3.0
 40
4.0
 40
4.0
 40
4.0
 40
5.0
 40
5.0
 40
5.0
 40
5.0
 10
181.83897514423
 20
-162.2652439962785
 10
181.4296825992533
 20
-158.7344855599967
 10
180.8382265266609
 20
-155.2397978651406
 10
177.1127282423476
 20
-153.9069904636835
 10
176.1289920594045
 20
-153.5408822905647
 10
176.1663063702654
 20
-153.4486745687245
 10
175.7591899510535
 20
-154.4672911546058
 10
174.5725715564185
 20
-157.4361777838076
 10
172.7181027526349
 20
-159.7875621005551
 10
169.6116912296856
 20
-160.8997266932529
 10
169.0242190705849
 20
-161.1100348888158
 10
168.9006020615725
 20
-161.4328687495599
 10
168.8990092591302
 20
-161.9418468273561
 10
169.1618785828032
 20
-173.891255414197
 10
180.1052266654224
 20
-173.5611443605721
 10
181.83897514423
 20
-162.2652439962785
 97
        0
 97
        1
330
95
 92
        1
 93
        1
 72
     4
 94
        3
 73
     0
 74
     0
 95
       14
 96
       10
 40
0.0
 40
0.0
 40
0.0
 40
0.0
 40
1.0
 40
1.0
 40
1.0
 40
2.0
 40
2.0
 40
2.0
 40
3.0
 40
3.0
 40
3.0
 40
3.0
 10
158.6084759915757
 20
-127.7072971865354
 10
149.0630759548175
 20
-127.6392794245639
 10
155.6165716320138
 20
-142.9308329509222
 10
161.9695014498466
 20
-143.0815630395227
 10
163.468281941663
 20
-142.1565722558962
 10
166.003907047705
 20
-142.585082839003
 10
166.5976309483921
 20
-140.6589211380697
 10
168.7479377691743
 20
-134.9224116014839
 10
165.092833577537
 20
-127.7638052294469
 10
158.6084759915757
 20
-127.7072971865354
 97
        0
 97
        1
330
96
 92
        1
 93
        1
 72
     4
 94
        3
 73
     0
 74
     0
 95
       14
 96
       10
 40
0.0
 40
0.0
 40
0.0
 40
0.0
 40
1.0
 40
1.0
 40
1.0
 40
2.0
 40
2.0
 40
2.0
 40
3.0
 40
3.0
 40
3.0
 40
3.0
 10
180.8095197319817
 20
-133.5115275573007
 10
176.9156688379989
 20
-133.5955290445236
 10
171.6658355938398
 20
-139.3953059989053
 10
172.0187272876755
 20
-142.9572128377603
 10
174.1081787299299
 20
-143.9640467761519
 10
174.70509379539
 20
-146.2952369920076
 10
175.9438333616326
 20
-147.9247161337189
 10
185.2682311808185
 20
-150.4378772354757
 10
193.4375759394497
 20
-134.7525894503269
 10
180.8095197319817
 20
-133.5115275573007
 97
        0
 97
        1
330
97
 92
        1
 93
        1
 72
     4
 94
        3
 73
     0
 74
     0
 95
       26
 96
       22
 40
0.0
 40
0.0
 40
0.0
 40
0.0
 40
1.0
 40
1.0
 40
1.0
 40
2.0
 40
2.0
 40
2.0
 40
3.0
 40
3.0
 40
3.0
 40
4.0
 40
4.0
 40
4.0
 40
5.0
 40
5.0
 40
5.0
 40
6.0
 40
6.0
 40
6.0
 40
7.0
 40
7.0
 40
7.0
 40
7.0
 10
171.5245498400509
 20
-134.260610890974
 10
186.2954301856371
 20
-118.3297910084566
 10
202.2639963883812
 20
-143.9236849961862
 10
182.2193247126506
 20
-151.8211606884633
 10
194.4192126028774
 20
-163.610741943161
 10
175.0428917278204
 20
-187.3574769488932
 10
165.6751831689671
 20
-168.2837005357032
 10
165.1747834160887
 20
-166.8217303766323
 10
163.9458862805095
 20
-168.916371960755
 10
163.2481761283416
 20
-169.292093827953
 10
161.1800361092591
 20
-171.2820403454061
 10
158.6133126721634
 20
-171.9232016014466
 10
155.8530831628195
 20
-172.1194853657543
 10
147.412116673343
 20
-171.4398376275403
 10
144.4724817569513
 20
-160.5205201021199
 10
149.0019930994676
 20
-153.8050349784262
 10
138.6263186910628
 20
-151.6198807313012
 10
138.485246616935
 20
-135.4752644165901
 10
150.6469112600698
 20
-137.9344291471434
 10
143.5041749225047
 20
-119.9507329697962
 10
168.5043315392176
 20
-118.8371437569922
 10
171.5245498400509
 20
-134.260610890974
 97
        0
 97
        1
330
98
 75
     2
 76
     1
 98
        1
 10
0.0
 20
0.0
450
        0
451
        0
460
0.0
461
0.0
452
        0
462
0.0
453
        0
470

  0
ENDBLK
  5
7C
330
79
100
AcDbEntity
  8
0
100
AcDbBlockEnd
  0
ENDSEC
  0
SECTION
  2
ENTITIES
  0
INSERT
  5
7A
330
70
100
AcDbEntity
  8
Layer 1
100
AcDbBlockReference
  2
Block_0
 10
0.0
 20
0.0
 30
0.0
  0
ENDSEC
  0
SECTION
  2
OBJECTS
  0
DICTIONARY
  5
C
330
0
100
AcDbDictionary
281
     1
  3
ACAD_COLOR
350
63
  3
ACAD_DETAILVIEWSTYLE
350
6A
  3
ACAD_GROUP
350
D
  3
ACAD_LAYOUT
350
62
  3
ACAD_MATERIAL
350
10
  3
ACAD_MLEADERSTYLE
350
66
  3
ACAD_MLINESTYLE
350
5F
  3
ACAD_PLOTSETTINGS
350
61
  3
ACAD_PLOTSTYLENAME
350
E
  3
ACAD_SCALELIST
350
42
  3
ACAD_SECTIONVIEWSTYLE
350
68
  3
ACAD_TABLESTYLE
350
64
  3
ACAD_VISUALSTYLE
350
29
  3
ACDB_RECOMPOSE_DATA
350
A2
  3
AcDbVariableDictionary
350
9A
  0
DICTIONARY
  5
63
102
{ACAD_REACTORS
330
C
102
}
330
C
100
AcDbDictionary
281
     1
  0
DICTIONARY
  5
6A
102
{ACAD_REACTORS
330
C
102
}
330
C
100
AcDbDictionary
281
     1
  3
Imperial24
350
6B
  0
DICTIONARY
  5
D
102
{ACAD_REACTORS
330
C
102
}
330
C
100
AcDbDictionary
281
     1
  0
DICTIONARY
  5
62
102
{ACAD_REACTORS
330
C
102
}
330
C
100
AcDbDictionary
281
     1
  3
Layout1
350
6F
  3
Layout2
350
77
  3
Model
350
73
  0
DICTIONARY
  5
10
102
{ACAD_REACTORS
330
C
102
}
330
C
100
AcDbDictionary
281
     1
  3
ByBlock
350
19
  3
ByLayer
350
11
  3
Global
350
21
  0
DICTIONARY
  5
66
102
{ACAD_REACTORS
330
C
102
}
330
C
100
AcDbDictionary
281
     1
  3
Standard
350
67
  0
DICTIONARY
  5
5F
102
{ACAD_REACTORS
330
C
102
}
330
C
100
AcDbDictionary
281
     1
  3
Standard
350
60
  0
DICTIONARY
  5
61
102
{ACAD_REACTORS
330
C
102
}
330
C
100
AcDbDictionary
281
     1
  0
ACDBDICTIONARYWDFLT
  5
E
102
{ACAD_REACTORS
330
C
102
}
330
C
100
AcDbDictionary
281
     1
  3
Normal
350
F
100
AcDbDictionaryWithDefault
340
F
  0
DICTIONARY
  5
42
102
{ACAD_REACTORS
330
C
102
}
330
C
100
AcDbDictionary
281
     1
  3
A0
350
43
  3
A1
350
44
  3
A2
350
45
  3
A3
350
46
  3
A4
350
47
  3
A5
350
48
  3
A6
350
49
  3
A7
350
4A
  3
A8
350
4B
  3
A9
350
4C
  3
B0
350
4D
  3
B1
350
4E
  3
B2
350
4F
  3
B3
350
50
  3
B4
350
51
  3
B5
350
52
  3
B6
350
53
  0
DICTIONARY
  5
68
102
{ACAD_REACTORS
330
C
102
}
330
C
100
AcDbDictionary
281
     1
  3
Imperial24
350
69
  0
DICTIONARY
  5
64
102
{ACAD_REACTORS
330
C
102
}
330
C
100
AcDbDictionary
281
     1
  3
Standard
350
65
  0
DICTIONARY
  5
29
102
{ACAD_REACTORS
330
C
102
}
330
C
100
AcDbDictionary
281
     1
  3
2dWireframe
350
2F
  3
Basic
350
2E
  3
Brighten
350
35
  3
ColorChange
350
39
  3
Conceptual
350
32
  3
Dim
350
34
  3
EdgeColorOff
350
41
  3
Facepattern
350
38
  3
Flat
350
2A
  3
FlatWithEdges
350
2B
  3
Gouraud
350
2C
  3
GouraudWithEdges
350
2D
  3
Hidden
350
31
  3
JitterOff
350
3F
  3
Linepattern
350
37
  3
OverhangOff
350
40
  3
Realistic
350
33
  3
Shaded
350
3E
  3
Shaded with edges
350
3D
  3
Shades of Gray
350
3A
  3
Sketchy
350
3B
  3
Thicken
350
36
  3
Wireframe
350
30
  3
X-Ray
350
3C
  0
XRECORD
  5
A2
102
{ACAD_REACTORS
330
C
102
}
330
C
100
AcDbXrecord
280
     1
 90
        1
330
65
  0
DICTIONARY
  5
9A
102
{ACAD_REACTORS
330
C
102
}
330
C
100
AcDbDictionary
281
     1
  3
CANNOSCALE
350
9F
  3
CMLEADERSTYLE
350
9C
  3
CTABLESTYLE
350
9B
  3
CVIEWDETAILSTYLE
350
9D
  3
CVIEWSECTIONSTYLE
350
9E
  0
ACDBDETAILVIEWSTYLE
  5
6B
102
{ACAD_REACTORS
330
6A
102
}
330
6A
100
AcDbModelDocViewStyle
 70
     0
  3
Imperial24
290
     1
300
Imperial24
 90
        0
100
AcDbDetailViewStyle
 70
     0
 71
     0
 90
        3
 71
     1
340
55
 62
   256
 40
0.24
340
0
 62
   256
 40
0.24
300

 40
0.36
280
     3
 71
     2
340
5D
 90
       25
 62
   256
 71
     3
340
55
 62
   256
 40
0.24
 90
        1
 40
0.75
 90
        1
300
%<\AcVar ViewType \f "%tc1">% %<\AcVar ViewDetailId>%\PSCALE %<\AcVar ViewScale \f "%sn">%
 71
     4
340
5D
 90
       25
 62
   256
340
5D
 90
       25
 62
   256
280
     0
  0
LAYOUT
  5
6F
102
{ACAD_REACTORS
330
62
102
}
330
62
100
AcDbPlotSettings
  1

  2

  4

  6

 40
0.0
 41
0.0
 42
0.0
 43
0.0
 44
0.0
 45
0.0
 46
0.0
 47
0.0
 48
0.0
 49
0.0
140
0.0
141
0.0
142
1.0
143
1.0
 70
   688
 72
     0
 73
     0
 74
     5
  7

 75
    16
147
1.0
 76
     0
 77
     2
 78
   300
148
0.0
149
0.0
100
AcDbLayout
  1
Layout1
 70
     1
 71
     1
 10
0.0
 20
0.0
 11
12.0
 21
9.0
 12
0.0
 22
0.0
 32
0.0
 14
0.0
 24
0.0
 34
0.0
 15
0.0
 25
0.0
 35
0.0
146
0.0
 13
0.0
 23
0.0
 33
0.0
 16
1.0
 26
0.0
 36
0.0
 17
0.0
 27
1.0
 37
0.0
 76
     0
330
6C
  0
LAYOUT
  5
77
102
{ACAD_REACTORS
330
62
102
}
330
62
100
AcDbPlotSettings
  1

  2

  4

  6

 40
0.0
 41
0.0
 42
0.0
 43
0.0
 44
0.0
 45
0.0
 46
0.0
 47
0.0
 48
0.0
 49
0.0
140
0.0
141
0.0
142
1.0
143
1.0
 70
   688
 72
     0
 73
     0
 74
     5
  7

 75
    16
147
1.0
 76
     0
 77
     2
 78
   300
148
0.0
149
0.0
100
AcDbLayout
  1
Layout2
 70
     1
 71
     2
 10
0.0
 20
0.0
 11
12.0
 21
9.0
 12
0.0
 22
0.0
 32
0.0
 14
0.0
 24
0.0
 34
0.0
 15
0.0
 25
0.0
 35
0.0
146
0.0
 13
0.0
 23
0.0
 33
0.0
 16
1.0
 26
0.0
 36
0.0
 17
0.0
 27
1.0
 37
0.0
 76
     0
330
74
  0
LAYOUT
  5
73
102
{ACAD_REACTORS
330
62
102
}
330
62
100
AcDbPlotSettings
  1

  2

  4

  6

 40
0.0
 41
0.0
 42
0.0
 43
0.0
 44
0.0
 45
0.0
 46
0.0
 47
0.0
 48
0.0
 49
0.0
140
0.0
141
0.0
142
1.0
143
1.0
 70
  1712
 72
     0
 73
     0
 74
     0
  7

 75
     0
147
1.0
 76
     0
 77
     2
 78
   300
148
0.0
149
0.0
100
AcDbLayout
  1
Model
 70
     1
 71
     0
 10
0.0
 20
0.0
 11
12.0
 21
9.0
 12
0.0
 22
0.0
 32
0.0
 14
0.0
 24
0.0
 34
0.0
 15
0.0
 25
0.0
 35
0.0
146
0.0
 13
0.0
 23
0.0
 33
0.0
 16
1.0
 26
0.0
 36
0.0
 17
0.0
 27
1.0
 37
0.0
 76
     0
330
70
  0
MATERIAL
  5
19
102
{ACAD_XDICTIONARY
360
1A
102
}
102
{ACAD_REACTORS
330
10
102
}
330
10
100
AcDbMaterial
  1
ByBlock
 72
     0
 43
0.0208333333333333
 43
0.0
 43
0.0
 43
0.0
 43
0.0
 43
0.0208333333333333
 43
0.0
 43
0.0
 43
0.0
 43
0.0
 43
1.0
 43
0.0
 43
0.0
 43
0.0
 43
0.0
 43
1.0
 77
     0
 47
0.0208333333333333
 47
0.0
 47
0.0
 47
0.0
 47
0.0
 47
0.0208333333333333
 47
0.0
 47
0.0
 47
0.0
 47
0.0
 47
1.0
 47
0.0
 47
0.0
 47
0.0
 47
0.0
 47
1.0
171
     0
 49
0.0208333333333333
 49
0.0
 49
0.0
 49
0.0
 49
0.0
 49
0.0208333333333333
 49
0.0
 49
0.0
 49
0.0
 49
0.0
 49
1.0
 49
0.0
 49
0.0
 49
0.0
 49
0.0
 49
1.0
175
     0
142
0.0208333333333333
142
0.0
142
0.0
142
0.0
142
0.0
142
0.0208333333333333
142
0.0
142
0.0
142
0.0
142
0.0
142
1.0
142
0.0
142
0.0
142
0.0
142
0.0
142
1.0
179
     0
144
0.0208333333333333
144
0.0
144
0.0
144
0.0
144
0.0
144
0.0208333333333333
144
0.0
144
0.0
144
0.0
144
0.0
144
1.0
144
0.0
144
0.0
144
0.0
144
0.0
144
1.0
147
0.0208333333333333
147
0.0
147
0.0
147
0.0
147
0.0
147
0.0208333333333333
147
0.0
147
0.0
147
0.0
147
0.0
147
1.0
147
0.0
147
0.0
147
0.0
147
0.0
147
1.0
  0
MATERIAL
  5
11
102
{ACAD_XDICTIONARY
360
12
102
}
102
{ACAD_REACTORS
330
10
102
}
330
10
100
AcDbMaterial
  1
ByLayer
 72
     0
 43
0.0208333333333333
 43
0.0
 43
0.0
 43
0.0
 43
0.0
 43
0.0208333333333333
 43
0.0
 43
0.0
 43
0.0
 43
0.0
 43
1.0
 43
0.0
 43
0.0
 43
0.0
 43
0.0
 43
1.0
 77
     0
 47
0.0208333333333333
 47
0.0
 47
0.0
 47
0.0
 47
0.0
 47
0.0208333333333333
 47
0.0
 47
0.0
 47
0.0
 47
0.0
 47
1.0
 47
0.0
 47
0.0
 47
0.0
 47
0.0
 47
1.0
171
     0
 49
0.0208333333333333
 49
0.0
 49
0.0
 49
0.0
 49
0.0
 49
0.0208333333333333
 49
0.0
 49
0.0
 49
0.0
 49
0.0
 49
1.0
 49
0.0
 49
0.0
 49
0.0
 49
0.0
 49
1.0
175
     0
142
0.0208333333333333
142
0.0
142
0.0
142
0.0
142
0.0
142
0.0208333333333333
142
0.0
142
0.0
142
0.0
142
0.0
142
1.0
142
0.0
142
0.0
142
0.0
142
0.0
142
1.0
179
     0
144
0.0208333333333333
144
0.0
144
0.0
144
0.0
144
0.0
144
0.0208333333333333
144
0.0
144
0.0
144
0.0
144
0.0
144
1.0
144
0.0
144
0.0
144
0.0
144
0.0
144
1.0
147
0.0208333333333333
147
0.0
147
0.0
147
0.0
147
0.0
147
0.0208333333333333
147
0.0
147
0.0
147
0.0
147
0.0
147
1.0
147
0.0
147
0.0
147
0.0
147
0.0
147
1.0
  0
MATERIAL
  5
21
102
{ACAD_XDICTIONARY
360
22
102
}
102
{ACAD_REACTORS
330
10
102
}
330
10
100
AcDbMaterial
  1
Global
 72
     0
 43
0.0208333333333333
 43
0.0
 43
0.0
 43
0.0
 43
0.0
 43
0.0208333333333333
 43
0.0
 43
0.0
 43
0.0
 43
0.0
 43
1.0
 43
0.0
 43
0.0
 43
0.0
 43
0.0
 43
1.0
 77
     0
 47
0.0208333333333333
 47
0.0
 47
0.0
 47
0.0
 47
0.0
 47
0.0208333333333333
 47
0.0
 47
0.0
 47
0.0
 47
0.0
 47
1.0
 47
0.0
 47
0.0
 47
0.0
 47
0.0
 47
1.0
171
     0
 49
0.0208333333333333
 49
0.0
 49
0.0
 49
0.0
 49
0.0
 49
0.0208333333333333
 49
0.0
 49
0.0
 49
0.0
 49
0.0
 49
1.0
 49
0.0
 49
0.0
 49
0.0
 49
0.0
 49
1.0
175
     0
142
0.0208333333333333
142
0.0
142
0.0
142
0.0
142
0.0
142
0.0208333333333333
142
0.0
142
0.0
142
0.0
142
0.0
142
1.0
142
0.0
142
0.0
142
0.0
142
0.0
142
1.0
179
     0
144
0.0208333333333333
144
0.0
144
0.0
144
0.0
144
0.0
144
0.0208333333333333
144
0.0
144
0.0
144
0.0
144
0.0
144
1.0
144
0.0
144
0.0
144
0.0
144
0.0
144
1.0
147
0.0208333333333333
147
0.0
147
0.0
147
0.0
147
0.0
147
0.0208333333333333
147
0.0
147
0.0
147
0.0
147
0.0
147
1.0
147
0.0
147
0.0
147
0.0
147
0.0
147
1.0
  0
MLEADERSTYLE
  5
67
102
{ACAD_REACTORS
330
66
102
}
330
66
100
AcDbMLeaderStyle
179
     2
170
     2
171
     1
172
     0
 90
        2
 40
0.0
 41
0.0
173
     1
 91
-1056964608
340
5B
 92
       -2
290
     1
 42
0.09
291
     1
 43
0.36
  3
Standard
 44
0.18
300

342
55
174
     1
178
     6
175
     1
176
     0
 93
-1056964608
 45
0.18
292
     0
297
     0
 46
0.18
 94
-1056964608
 47
1.0
 49
1.0
140
1.0
293
     1
141
0.0
294
     1
177
     0
142
1.0
295
     1
296
     0
143
0.125
271
     0
272
     9
273
     9
298
     1
  0
MLINESTYLE
  5
60
102
{ACAD_REACTORS
330
5F
102
}
330
5F
100
AcDbMlineStyle
  2
STANDARD
 70
     0
  3

 62
   256
 51
90.0
 52
90.0
 71
     2
 49
0.5
 62
   256
  6
BYLAYER
 49
-0.5
 62
   256
  6
BYLAYER
  0
ACDBPLACEHOLDER
  5
F
102
{ACAD_REACTORS
330
E
102
}
330
E
  0
SCALE
  5
43
102
{ACAD_REACTORS
330
42
102
}
330
42
100
AcDbScale
 70
     0
300
1:1
140
1.0
141
1.0
290
     1
  0
SCALE
  5
44
102
{ACAD_REACTORS
330
42
102
}
330
42
100
AcDbScale
 70
     0
300
1/128" = 1'-0"
140
0.0078125
141
12.0
290
     0
  0
SCALE
  5
45
102
{ACAD_REACTORS
330
42
102
}
330
42
100
AcDbScale
 70
     0
300
1/64" = 1'-0"
140
0.015625
141
12.0
290
     0
  0
SCALE
  5
46
102
{ACAD_REACTORS
330
42
102
}
330
42
100
AcDbScale
 70
     0
300
1/32" = 1'-0"
140
0.03125
141
12.0
290
     0
  0
SCALE
  5
47
102
{ACAD_REACTORS
330
42
102
}
330
42
100
AcDbScale
 70
     0
300
1/16" = 1'-0"
140
0.0625
141
12.0
290
     0
  0
SCALE
  5
48
102
{ACAD_REACTORS
330
42
102
}
330
42
100
AcDbScale
 70
     0
300
3/32" = 1'-0"
140
0.09375
141
12.0
290
     0
  0
SCALE
  5
49
102
{ACAD_REACTORS
330
42
102
}
330
42
100
AcDbScale
 70
     0
300
1/8" = 1'-0"
140
0.125
141
12.0
290
     0
  0
SCALE
  5
4A
102
{ACAD_REACTORS
330
42
102
}
330
42
100
AcDbScale
 70
     0
300
3/16" = 1'-0"
140
0.1875
141
12.0
290
     0
  0
SCALE
  5
4B
102
{ACAD_REACTORS
330
42
102
}
330
42
100
AcDbScale
 70
     0
300
1/4" = 1'-0"
140
0.25
141
12.0
290
     0
  0
SCALE
  5
4C
102
{ACAD_REACTORS
330
42
102
}
330
42
100
AcDbScale
 70
     0
300
3/8" = 1'-0"
140
0.375
141
12.0
290
     0
  0
SCALE
  5
4D
102
{ACAD_REACTORS
330
42
102
}
330
42
100
AcDbScale
 70
     0
300
1/2" = 1'-0"
140
0.5
141
12.0
290
     0
  0
SCALE
  5
4E
102
{ACAD_REACTORS
330
42
102
}
330
42
100
AcDbScale
 70
     0
300
3/4" = 1'-0"
140
0.75
141
12.0
290
     0
  0
SCALE
  5
4F
102
{ACAD_REACTORS
330
42
102
}
330
42
100
AcDbScale
 70
     0
300
1" = 1'-0"
140
1.0
141
12.0
290
     0
  0
SCALE
  5
50
102
{ACAD_REACTORS
330
42
102
}
330
42
100
AcDbScale
 70
     0
300
1-1/2" = 1'-0"
140
1.5
141
12.0
290
     0
  0
SCALE
  5
51
102
{ACAD_REACTORS
330
42
102
}
330
42
100
AcDbScale
 70
     0
300
3" = 1'-0"
140
3.0
141
12.0
290
     0
  0
SCALE
  5
52
102
{ACAD_REACTORS
330
42
102
}
330
42
100
AcDbScale
 70
     0
300
6" = 1'-0"
140
6.0
141
12.0
290
     0
  0
SCALE
  5
53
102
{ACAD_REACTORS
330
42
102
}
330
42
100
AcDbScale
 70
     0
300
1'-0" = 1'-0"
140
12.0
141
12.0
290
     0
  0
ACDBSECTIONVIEWSTYLE
  5
69
102
{ACAD_REACTORS
330
68
102
}
330
68
100
AcDbModelDocViewStyle
 70
     0
  3
Imperial24
290
     1
300
Imperial24
 90
        0
100
AcDbSectionViewStyle
 70
     0
 71
     0
 90
       78
 71
     1
340
55
 62
   256
 40
0.24
340
0
340
0
 62
   256
 40
0.24
300
I, O, Q, S, X, Z
 40
0.48
 90
        3
 40
0.18
 90
        1
 71
     2
340
5D
 90
       25
 62
   256
340
5D
 90
       50
 62
   256
 40
0.24
 40
0.0
 40
0.24
 71
     3
340
55
 62
   256
 40
0.24
 90
        1
 40
0.75
 90
        1
300
%<\AcVar ViewType \f "%tc1">% %<\AcVar ViewSectionStartId>%-%<\AcVar ViewSectionEndId>%\PSCALE %<\AcVar ViewScale \f "%sn">%
 71
     4
 62
   256
 62
   257
300
ANSI31
 40
1.0
 90
        0
290
     0
290
     0
 90
        6
 40
0.0
 40
1.570796326794896
 40
0.2617993877991494
 40
1.308996938995747
 40
-0.2617993877991494
 40
1.832595714594046
  0
TABLESTYLE
  5
65
102
{ACAD_XDICTIONARY
360
A0
102
}
102
{ACAD_REACTORS
330
64
102
}
330
64
100
AcDbTableStyle
280
     0
  3
Standard
 70
     0
 71
     0
 40
0.06
 41
0.06
280
     0
281
     0
  7
Standard
140
0.18
170
     2
 62
     0
 63
     7
283
     0
 90
      512
 91
        0
  1

274
    -2
284
     1
 64
     0
275
    -2
285
     1
 65
     0
276
    -2
286
     1
 66
     0
277
    -2
287
     1
 67
     0
278
    -2
288
     1
 68
     0
279
    -2
289
     1
 69
     0
  7
Standard
140
0.25
170
     5
 62
     0
 63
     7
283
     0
 90
      512
 91
        0
  1

274
    -2
284
     1
 64
     0
275
    -2
285
     1
 65
     0
276
    -2
286
     1
 66
     0
277
    -2
287
     1
 67
     0
278
    -2
288
     1
 68
     0
279
    -2
289
     1
 69
     0
  7
Standard
140
0.18
170
     5
 62
     0
 63
     7
283
     0
 90
      512
 91
        0
  1

274
    -2
284
     1
 64
     0
275
    -2
285
     1
 65
     0
276
    -2
286
     1
 66
     0
277
    -2
287
     1
 67
     0
278
    -2
288
     1
 68
     0
279
    -2
289
     1
 69
     0
  0
VISUALSTYLE
  5
2F
102
{ACAD_REACTORS
330
29
102
}
330
29
100
AcDbVisualStyle
  2
2dWireframe
 70
     4
177
     3
291
     0
 70
    58
 90
        0
176
     1
 90
        2
176
     1
 90
        0
176
     1
 90
        0
176
     1
 40
0.6
176
     1
 40
30.0
176
     1
 62
     7
420
 16777215
176
     1
 90
        1
176
     1
 90
        4
176
     1
 62
     7
176
     1
 62
   257
176
     1
 90
        1
176
     1
 90
        1
176
     1
 40
1.0
176
     1
 90
        0
176
     1
 62
   257
176
     1
 40
1.0
176
     1
 90
        1
176
     1
 90
        6
176
     1
 90
        2
176
     1
 62
     7
176
     1
 90
        5
176
     1
 90
        0
176
     1
 90
        0
176
     1
290
     0
176
     1
 90
        1
176
     1
 40
0.0
176
     1
 90
        0
176
     1
290
     1
176
     1
290
     1
176
     1
290
     0
176
     1
290
     0
176
     1
290
     0
176
     1
290
     0
176
     1
290
     0
176
     1
290
     0
176
     1
290
     0
176
     1
 90
       50
176
     1
 40
0.0
176
     1
 40
1.0
176
     1
 90
        0
176
     1
 62
    18
420
        0
176
     1
 90
       50
176
     1
 90
        3
176
     1
 62
     5
420
      255
176
     1
290
     0
176
     1
 90
       50
176
     1
 90
       50
176
     1
 90
       50
176
     1
290
     0
176
     1
 90
       50
176
     1
 62
   256
176
     0
 40
1.0
176
     0
 90
        2
176
     1
  1
strokes_ogs.tif
176
     1
290
     0
176
     1
 40
1.0
176
     1
 40
1.0
176
     1
  0
VISUALSTYLE
  5
2E
102
{ACAD_REACTORS
330
29
102
}
330
29
100
AcDbVisualStyle
  2
Basic
 70
     7
177
     3
291
     1
 70
    58
 90
        1
176
     1
 90
        0
176
     1
 90
        1
176
     1
 90
        0
176
     1
 40
0.6
176
     1
 40
30.0
176
     1
 62
     7
420
 16777215
176
     1
 90
        0
176
     1
 90
        4
176
     1
 62
     7
176
     1
 62
   257
176
     1
 90
        1
176
     1
 90
        1
176
     1
 40
1.0
176
     1
 90
        8
176
     1
 62
     7
176
     1
 40
1.0
176
     1
 90
        1
176
     1
 90
        6
176
     1
 90
        2
176
     1
 62
     7
176
     1
 90
        5
176
     1
 90
        0
176
     1
 90
        0
176
     1
290
     0
176
     1
 90
        1
176
     1
 40
0.0
176
     1
 90
        0
176
     1
290
     0
176
     1
290
     1
176
     1
290
     1
176
     1
290
     0
176
     1
290
     0
176
     1
290
     0
176
     1
290
     0
176
     1
290
     0
176
     1
290
     0
176
     1
 90
       50
176
     1
 40
0.0
176
     1
 40
1.0
176
     1
 90
        0
176
     1
 62
    18
420
        0
176
     1
 90
       50
176
     1
 90
        3
176
     1
 62
     5
420
      255
176
     1
290
     0
176
     1
 90
       50
176
     1
 90
       50
176
     1
 90
       50
176
     1
290
     0
176
     1
 90
       50
176
     1
 62
   256
176
     0
 40
1.0
176
     0
 90
        2
176
     1
  1
strokes_ogs.tif
176
     1
290
     0
176
     1
 40
1.0
176
     1
 40
1.0
176
     1
  0
VISUALSTYLE
  5
35
102
{ACAD_REACTORS
330
29
102
}
330
29
100
AcDbVisualStyle
  2
Brighten
 70
    12
177
     3
291
     1
 70
    58
 90
        2
176
     1
 90
        2
176
     1
 90
        0
176
     1
 90
        0
176
     1
 40
0.6
176
     1
 40
30.0
176
     1
 62
     7
420
 16777215
176
     1
 90
        1
176
     1
 90
        4
176
     1
 62
     7
176
     1
 62
   257
176
     1
 90
        1
176
     1
 90
        1
176
     1
 40
1.0
176
     1
 90
        8
176
     1
 62
     7
176
     1
 40
1.0
176
     1
 90
        1
176
     1
 90
        6
176
     1
 90
        2
176
     1
 62
     7
176
     1
 90
        5
176
     1
 90
        0
176
     1
 90
        0
176
     1
290
     0
176
     1
 90
        1
176
     1
 40
50.0
176
     1
 90
        0
176
     1
290
     0
176
     1
290
     1
176
     1
290
     1
176
     1
290
     0
176
     1
290
     0
176
     1
290
     0
176
     1
290
     0
176
     1
290
     0
176
     1
290
     0
176
     1
 90
       50
176
     1
 40
0.0
176
     1
 40
1.0
176
     1
 90
        0
176
     1
 62
    18
420
        0
176
     1
 90
       50
176
     1
 90
        3
176
     1
 62
     5
420
      255
176
     1
290
     0
176
     1
 90
       50
176
     1
 90
       50
176
     1
 90
       50
176
     1
290
     0
176
     1
 90
       50
176
     1
 62
   256
176
     0
 40
1.0
176
     0
 90
        2
176
     1
  1
strokes_ogs.tif
176
     1
290
     0
176
     1
 40
1.0
176
     1
 40
1.0
176
     1
  0
VISUALSTYLE
  5
39
102
{ACAD_REACTORS
330
29
102
}
330
29
100
AcDbVisualStyle
  2
ColorChange
 70
    16
177
     3
291
     1
 70
    58
 90
        2
176
     1
 90
        2
176
     1
 90
        3
176
     1
 90
        0
176
     1
 40
0.6
176
     1
 40
30.0
176
     1
 62
     8
420
  8421504
176
     1
 90
        1
176
     1
 90
        4
176
     1
 62
     7
176
     1
 62
   257
176
     1
 90
        1
176
     1
 90
        1
176
     1
 40
1.0
176
     1
 90
        8
176
     1
 62
     8
420
  8421504
176
     1
 40
1.0
176
     1
 90
        1
176
     1
 90
        6
176
     1
 90
        2
176
     1
 62
     7
176
     1
 90
        5
176
     1
 90
        0
176
     1
 90
        0
176
     1
290
     0
176
     1
 90
        1
176
     1
 40
0.0
176
     1
 90
        0
176
     1
290
     0
176
     1
290
     1
176
     1
290
     1
176
     1
290
     0
176
     1
290
     0
176
     1
290
     0
176
     1
290
     0
176
     1
290
     0
176
     1
290
     0
176
     1
 90
       50
176
     1
 40
0.0
176
     1
 40
1.0
176
     1
 90
        0
176
     1
 62
    18
420
        0
176
     1
 90
       50
176
     1
 90
        3
176
     1
 62
     5
420
      255
176
     1
290
     0
176
     1
 90
       50
176
     1
 90
       50
176
     1
 90
       50
176
     1
290
     0
176
     1
 90
       50
176
     1
 62
   256
176
     0
 40
1.0
176
     0
 90
        2
176
     1
  1
strokes_ogs.tif
176
     1
290
     0
176
     1
 40
1.0
176
     1
 40
1.0
176
     1
  0
VISUALSTYLE
  5
32
102
{ACAD_REACTORS
330
29
102
}
330
29
100
AcDbVisualStyle
  2
Conceptual
 70
     9
177
     3
291
     0
 70
    58
 90
        3
176
     1
 90
        2
176
     1
 90
        0
176
     1
 90
        0
176
     1
 40
0.6
176
     1
 40
30.0
176
     1
 62
     7
420
 16777215
176
     1
 90
        2
176
     1
 90
        2
176
     1
 62
     7
176
     1
 62
   257
176
     1
 90
        1
176
     1
 90
        1
176
     1
 40
179.0
176
     1
 90
        8
176
     1
 62
     7
176
     1
 40
1.0
176
     1
 90
        1
176
     1
 90
        6
176
     1
 90
        2
176
     1
 62
     7
176
     1
 90
        3
176
     1
 90
        0
176
     1
 90
        0
176
     1
290
     0
176
     1
 90
        1
176
     1
 40
0.0
176
     1
 90
        0
176
     1
290
     0
176
     1
290
     1
176
     1
290
     1
176
     1
290
     0
176
     1
290
     0
176
     1
290
     0
176
     1
290
     0
176
     1
290
     0
176
     1
290
     0
176
     1
 90
       50
176
     1
 40
0.0
176
     1
 40
1.0
176
     1
 90
        0
176
     1
 62
    18
420
        0
176
     1
 90
       50
176
     1
 90
        3
176
     1
 62
     5
420
      255
176
     1
290
     0
176
     1
 90
       50
176
     1
 90
       50
176
     1
 90
       50
176
     1
290
     0
176
     1
 90
       50
176
     1
 62
   256
176
     0
 40
1.0
176
     0
 90
        2
176
     1
  1
strokes_ogs.tif
176
     1
290
     0
176
     1
 40
1.0
176
     1
 40
1.0
176
     1
  0
VISUALSTYLE
  5
34
102
{ACAD_REACTORS
330
29
102
}
330
29
100
AcDbVisualStyle
  2
Dim
 70
    11
177
     3
291
     1
 70
    58
 90
        2
176
     1
 90
        2
176
     1
 90
        0
176
     1
 90
        0
176
     1
 40
0.6
176
     1
 40
30.0
176
     1
 62
     7
420
 16777215
176
     1
 90
        1
176
     1
 90
        4
176
     1
 62
     7
176
     1
 62
   257
176
     1
 90
        1
176
     1
 90
        1
176
     1
 40
1.0
176
     1
 90
        8
176
     1
 62
     7
176
     1
 40
1.0
176
     1
 90
        1
176
     1
 90
        6
176
     1
 90
        2
176
     1
 62
     7
176
     1
 90
        5
176
     1
 90
        0
176
     1
 90
        0
176
     1
290
     0
176
     1
 90
        1
176
     1
 40
-50.0
176
     1
 90
        0
176
     1
290
     0
176
     1
290
     1
176
     1
290
     1
176
     1
290
     0
176
     1
290
     0
176
     1
290
     0
176
     1
290
     0
176
     1
290
     0
176
     1
290
     0
176
     1
 90
       50
176
     1
 40
0.0
176
     1
 40
1.0
176
     1
 90
        0
176
     1
 62
    18
420
        0
176
     1
 90
       50
176
     1
 90
        3
176
     1
 62
     5
420
      255
176
     1
290
     0
176
     1
 90
       50
176
     1
 90
       50
176
     1
 90
       50
176
     1
290
     0
176
     1
 90
       50
176
     1
 62
   256
176
     0
 40
1.0
176
     0
 90
        2
176
     1
  1
strokes_ogs.tif
176
     1
290
     0
176
     1
 40
1.0
176
     1
 40
1.0
176
     1
  0
VISUALSTYLE
  5
41
102
{ACAD_REACTORS
330
29
102
}
330
29
100
AcDbVisualStyle
  2
EdgeColorOff
 70
    22
177
     3
291
     1
 70
    58
 90
        2
176
     0
 90
        2
176
     0
 90
        0
176
     0
 90
        0
176
     0
 40
0.6
176
     0
 40
30.0
176
     0
 62
     7
420
 16777215
176
     0
 90
        1
176
     0
 90
        4
176
     0
 62
     7
176
     0
 62
   257
176
     0
 90
        1
176
     0
 90
        1
176
     0
 40
1.0
176
     0
 90
        8
176
     2
 62
     7
176
     0
 40
1.0
176
     0
 90
        1
176
     0
 90
        6
176
     0
 90
        2
176
     0
 62
     7
176
     0
 90
        5
176
     0
 90
        0
176
     0
 90
        0
176
     0
290
     0
176
     0
 90
        1
176
     0
 40
0.0
176
     0
 90
        0
176
     0
290
     0
176
     0
290
     1
176
     0
290
     1
176
     0
290
     0
176
     0
290
     0
176
     0
290
     0
176
     0
290
     0
176
     0
290
     0
176
     0
290
     0
176
     0
 90
       50
176
     0
 40
0.0
176
     0
 40
1.0
176
     0
 90
        0
176
     0
 62
    18
420
        0
176
     0
 90
       50
176
     0
 90
        3
176
     0
 62
     5
420
      255
176
     0
290
     0
176
     0
 90
       50
176
     0
 90
       50
176
     0
 90
       50
176
     0
290
     0
176
     0
 90
       50
176
     0
 62
   256
176
     0
 40
1.0
176
     0
 90
        2
176
     0
  1
strokes_ogs.tif
176
     0
290
     0
176
     0
 40
1.0
176
     0
 40
1.0
176
     0
  0
VISUALSTYLE
  5
38
102
{ACAD_REACTORS
330
29
102
}
330
29
100
AcDbVisualStyle
  2
Facepattern
 70
    15
177
     3
291
     1
 70
    58
 90
        2
176
     1
 90
        2
176
     1
 90
        0
176
     1
 90
        0
176
     1
 40
0.6
176
     1
 40
30.0
176
     1
 62
     7
420
 16777215
176
     1
 90
        1
176
     1
 90
        4
176
     1
 62
     7
176
     1
 62
   257
176
     1
 90
        1
176
     1
 90
        1
176
     1
 40
1.0
176
     1
 90
        8
176
     1
 62
     7
176
     1
 40
1.0
176
     1
 90
        1
176
     1
 90
        6
176
     1
 90
        2
176
     1
 62
     7
176
     1
 90
        5
176
     1
 90
        0
176
     1
 90
        0
176
     1
290
     0
176
     1
 90
        1
176
     1
 40
0.0
176
     1
 90
        0
176
     1
290
     0
176
     1
290
     1
176
     1
290
     1
176
     1
290
     0
176
     1
290
     0
176
     1
290
     0
176
     1
290
     0
176
     1
290
     0
176
     1
290
     0
176
     1
 90
       50
176
     1
 40
0.0
176
     1
 40
1.0
176
     1
 90
        0
176
     1
 62
    18
420
        0
176
     1
 90
       50
176
     1
 90
        3
176
     1
 62
     5
420
      255
176
     1
290
     0
176
     1
 90
       50
176
     1
 90
       50
176
     1
 90
       50
176
     1
290
     0
176
     1
 90
       50
176
     1
 62
   256
176
     0
 40
1.0
176
     0
 90
        2
176
     1
  1
strokes_ogs.tif
176
     1
290
     0
176
     1
 40
1.0
176
     1
 40
1.0
176
     1
  0
VISUALSTYLE
  5
2A
102
{ACAD_REACTORS
330
29
102
}
330
29
100
AcDbVisualStyle
  2
Flat
 70
     0
177
     3
291
     1
 70
    58
 90
        2
176
     1
 90
        1
176
     1
 90
        1
176
     1
 90
        2
176
     1
 40
0.6
176
     1
 40
30.0
176
     1
 62
     7
420
 16777215
176
     1
 90
        0
176
     1
 90
        0
176
     1
 62
     7
176
     1
 62
   257
176
     1
 90
        1
176
     1
 90
        1
176
     1
 40
1.0
176
     1
 90
        8
176
     1
 62
     7
176
     1
 40
1.0
176
     1
 90
        1
176
     1
 90
        6
176
     1
 90
        2
176
     1
 62
     7
176
     1
 90
        5
176
     1
 90
        0
176
     1
 90
        0
176
     1
290
     0
176
     1
 90
       13
176
     1
 40
0.0
176
     1
 90
        0
176
     1
290
     0
176
     1
290
     1
176
     1
290
     1
176
     1
290
     0
176
     1
290
     0
176
     1
290
     0
176
     1
290
     0
176
     1
290
     0
176
     1
290
     0
176
     1
 90
       50
176
     1
 40
0.0
176
     1
 40
1.0
176
     1
 90
        0
176
     1
 62
    18
420
        0
176
     1
 90
       50
176
     1
 90
        3
176
     1
 62
     5
420
      255
176
     1
290
     0
176
     1
 90
       50
176
     1
 90
       50
176
     1
 90
       50
176
     1
290
     0
176
     1
 90
       50
176
     1
 62
   256
176
     0
 40
1.0
176
     0
 90
        2
176
     1
  1
strokes_ogs.tif
176
     1
290
     0
176
     1
 40
1.0
176
     1
 40
1.0
176
     1
  0
VISUALSTYLE
  5
2B
102
{ACAD_REACTORS
330
29
102
}
330
29
100
AcDbVisualStyle
  2
FlatWithEdges
 70
     1
177
     3
291
     1
 70
    58
 90
        2
176
     1
 90
        1
176
     1
 90
        1
176
     1
 90
        2
176
     1
 40
0.6
176
     1
 40
30.0
176
     1
 62
     7
420
 16777215
176
     1
 90
        1
176
     1
 90
        0
176
     1
 62
     7
176
     1
 62
   257
176
     1
 90
        1
176
     1
 90
        1
176
     1
 40
1.0
176
     1
 90
        0
176
     1
 62
   257
176
     1
 40
1.0
176
     1
 90
        1
176
     1
 90
        6
176
     1
 90
        2
176
     1
 62
     7
176
     1
 90
        5
176
     1
 90
        0
176
     1
 90
        0
176
     1
290
     0
176
     1
 90
       13
176
     1
 40
0.0
176
     1
 90
        0
176
     1
290
     0
176
     1
290
     1
176
     1
290
     1
176
     1
290
     0
176
     1
290
     0
176
     1
290
     0
176
     1
290
     0
176
     1
290
     0
176
     1
290
     0
176
     1
 90
       50
176
     1
 40
0.0
176
     1
 40
1.0
176
     1
 90
        0
176
     1
 62
    18
420
        0
176
     1
 90
       50
176
     1
 90
        3
176
     1
 62
     5
420
      255
176
     1
290
     0
176
     1
 90
       50
176
     1
 90
       50
176
     1
 90
       50
176
     1
290
     0
176
     1
 90
       50
176
     1
 62
   256
176
     0
 40
1.0
176
     0
 90
        2
176
     1
  1
strokes_ogs.tif
176
     1
290
     0
176
     1
 40
1.0
176
     1
 40
1.0
176
     1
  0
VISUALSTYLE
  5
2C
102
{ACAD_REACTORS
330
29
102
}
330
29
100
AcDbVisualStyle
  2
Gouraud
 70
     2
177
     3
291
     1
 70
    58
 90
        2
176
     1
 90
        2
176
     1
 90
        1
176
     1
 90
        2
176
     1
 40
0.6
176
     1
 40
30.0
176
     1
 62
     7
420
 16777215
176
     1
 90
        0
176
     1
 90
        0
176
     1
 62
     7
176
     1
 62
   257
176
     1
 90
        1
176
     1
 90
        1
176
     1
 40
1.0
176
     1
 90
        0
176
     1
 62
     7
176
     1
 40
1.0
176
     1
 90
        1
176
     1
 90
        6
176
     1
 90
        2
176
     1
 62
     7
176
     1
 90
        5
176
     1
 90
        0
176
     1
 90
        0
176
     1
290
     0
176
     1
 90
       13
176
     1
 40
0.0
176
     1
 90
        0
176
     1
290
     0
176
     1
290
     1
176
     1
290
     1
176
     1
290
     0
176
     1
290
     0
176
     1
290
     0
176
     1
290
     0
176
     1
290
     0
176
     1
290
     0
176
     1
 90
       50
176
     1
 40
0.0
176
     1
 40
1.0
176
     1
 90
        0
176
     1
 62
    18
420
        0
176
     1
 90
       50
176
     1
 90
        3
176
     1
 62
     5
420
      255
176
     1
290
     0
176
     1
 90
       50
176
     1
 90
       50
176
     1
 90
       50
176
     1
290
     0
176
     1
 90
       50
176
     1
 62
   256
176
     0
 40
1.0
176
     0
 90
        2
176
     1
  1
strokes_ogs.tif
176
     1
290
     0
176
     1
 40
1.0
176
     1
 40
1.0
176
     1
  0
VISUALSTYLE
  5
2D
102
{ACAD_REACTORS
330
29
102
}
330
29
100
AcDbVisualStyle
  2
GouraudWithEdges
 70
     3
177
     3
291
     1
 70
    58
 90
        2
176
     1
 90
        2
176
     1
 90
        1
176
     1
 90
        2
176
     1
 40
0.6
176
     1
 40
30.0
176
     1
 62
     7
420
 16777215
176
     1
 90
        1
176
     1
 90
        0
176
     1
 62
     7
176
     1
 62
   257
176
     1
 90
        1
176
     1
 90
        1
176
     1
 40
1.0
176
     1
 90
        0
176
     1
 62
   257
176
     1
 40
1.0
176
     1
 90
        1
176
     1
 90
        6
176
     1
 90
        2
176
     1
 62
     7
176
     1
 90
        5
176
     1
 90
        0
176
     1
 90
        0
176
     1
290
     0
176
     1
 90
       13
176
     1
 40
0.0
176
     1
 90
        0
176
     1
290
     0
176
     1
290
     1
176
     1
290
     1
176
     1
290
     0
176
     1
290
     0
176
     1
290
     0
176
     1
290
     0
176
     1
290
     0
176
     1
290
     0
176
     1
 90
       50
176
     1
 40
0.0
176
     1
 40
1.0
176
     1
 90
        0
176
     1
 62
    18
420
        0
176
     1
 90
       50
176
     1
 90
        3
176
     1
 62
     5
420
      255
176
     1
290
     0
176
     1
 90
       50
176
     1
 90
       50
176
     1
 90
       50
176
     1
290
     0
176
     1
 90
       50
176
     1
 62
   256
176
     0
 40
1.0
176
     0
 90
        2
176
     1
  1
strokes_ogs.tif
176
     1
290
     0
176
     1
 40
1.0
176
     1
 40
1.0
176
     1
  0
VISUALSTYLE
  5
31
102
{ACAD_REACTORS
330
29
102
}
330
29
100
AcDbVisualStyle
  2
Hidden
 70
     6
177
     3
291
     0
 70
    58
 90
        1
176
     1
 90
        2
176
     1
 90
        2
176
     1
 90
        0
176
     1
 40
0.6
176
     1
 40
30.0
176
     1
 62
     7
420
 16777215
176
     1
 90
        2
176
     1
 90
        2
176
     1
 62
     7
176
     1
 62
   257
176
     1
 90
        2
176
     1
 90
        1
176
     1
 40
40.0
176
     1
 90
        0
176
     1
 62
   257
176
     1
 40
1.0
176
     1
 90
        1
176
     1
 90
        6
176
     1
 90
        2
176
     1
 62
     7
176
     1
 90
        3
176
     1
 90
        0
176
     1
 90
        0
176
     1
290
     0
176
     1
 90
        1
176
     1
 40
0.0
176
     1
 90
        0
176
     1
290
     0
176
     1
290
     1
176
     1
290
     1
176
     1
290
     0
176
     1
290
     0
176
     1
290
     0
176
     1
290
     0
176
     1
290
     0
176
     1
290
     0
176
     1
 90
       50
176
     1
 40
0.0
176
     1
 40
1.0
176
     1
 90
        0
176
     1
 62
    18
420
        0
176
     1
 90
       50
176
     1
 90
        3
176
     1
 62
     5
420
      255
176
     1
290
     0
176
     1
 90
       50
176
     1
 90
       50
176
     1
 90
       50
176
     1
290
     0
176
     1
 90
       50
176
     1
 62
   256
176
     0
 40
1.0
176
     0
 90
        2
176
     1
  1
strokes_ogs.tif
176
     1
290
     0
176
     1
 40
1.0
176
     1
 40
1.0
176
     1
  0
VISUALSTYLE
  5
3F
102
{ACAD_REACTORS
330
29
102
}
330
29
100
AcDbVisualStyle
  2
JitterOff
 70
    20
177
     3
291
     1
 70
    58
 90
        2
176
     0
 90
        2
176
     0
 90
        0
176
     0
 90
        0
176
     0
 40
0.6
176
     0
 40
30.0
176
     0
 62
     7
420
 16777215
176
     0
 90
        1
176
     0
 90
        4
176
     0
 62
     7
176
     0
 62
   257
176
     0
 90
        1
176
     0
 90
        1
176
     0
 40
1.0
176
     0
 90
       10
176
     2
 62
     7
176
     0
 40
1.0
176
     0
 90
        1
176
     0
 90
        6
176
     0
 90
        2
176
     0
 62
     7
176
     0
 90
        5
176
     0
 90
        0
176
     0
 90
        0
176
     0
290
     0
176
     0
 90
        1
176
     0
 40
0.0
176
     0
 90
        0
176
     0
290
     0
176
     0
290
     1
176
     0
290
     1
176
     0
290
     0
176
     0
290
     0
176
     0
290
     0
176
     0
290
     0
176
     0
290
     0
176
     0
290
     0
176
     0
 90
       50
176
     0
 40
0.0
176
     0
 40
1.0
176
     0
 90
        0
176
     0
 62
    18
420
        0
176
     0
 90
       50
176
     0
 90
        3
176
     0
 62
     5
420
      255
176
     0
290
     0
176
     0
 90
       50
176
     0
 90
       50
176
     0
 90
       50
176
     0
290
     0
176
     0
 90
       50
176
     0
 62
   256
176
     0
 40
1.0
176
     0
 90
        2
176
     0
  1
strokes_ogs.tif
176
     0
290
     0
176
     0
 40
1.0
176
     0
 40
1.0
176
     0
  0
VISUALSTYLE
  5
37
102
{ACAD_REACTORS
330
29
102
}
330
29
100
AcDbVisualStyle
  2
Linepattern
 70
    14
177
     3
291
     1
 70
    58
 90
        2
176
     1
 90
        2
176
     1
 90
        0
176
     1
 90
        0
176
     1
 40
0.6
176
     1
 40
30.0
176
     1
 62
     7
420
 16777215
176
     1
 90
        1
176
     1
 90
        4
176
     1
 62
     7
176
     1
 62
   257
176
     1
 90
        7
176
     1
 90
        7
176
     1
 40
1.0
176
     1
 90
        8
176
     1
 62
     7
176
     1
 40
1.0
176
     1
 90
        1
176
     1
 90
        6
176
     1
 90
        2
176
     1
 62
     7
176
     1
 90
        5
176
     1
 90
        0
176
     1
 90
        0
176
     1
290
     0
176
     1
 90
        1
176
     1
 40
0.0
176
     1
 90
        0
176
     1
290
     0
176
     1
290
     1
176
     1
290
     1
176
     1
290
     0
176
     1
290
     0
176
     1
290
     0
176
     1
290
     0
176
     1
290
     0
176
     1
290
     0
176
     1
 90
       50
176
     1
 40
0.0
176
     1
 40
1.0
176
     1
 90
        0
176
     1
 62
    18
420
        0
176
     1
 90
       50
176
     1
 90
        3
176
     1
 62
     5
420
      255
176
     1
290
     0
176
     1
 90
       50
176
     1
 90
       50
176
     1
 90
       50
176
     1
290
     0
176
     1
 90
       50
176
     1
 62
   256
176
     0
 40
1.0
176
     0
 90
        2
176
     1
  1
strokes_ogs.tif
176
     1
290
     0
176
     1
 40
1.0
176
     1
 40
1.0
176
     1
  0
VISUALSTYLE
  5
40
102
{ACAD_REACTORS
330
29
102
}
330
29
100
AcDbVisualStyle
  2
OverhangOff
 70
    21
177
     3
291
     1
 70
    58
 90
        2
176
     0
 90
        2
176
     0
 90
        0
176
     0
 90
        0
176
     0
 40
0.6
176
     0
 40
30.0
176
     0
 62
     7
420
 16777215
176
     0
 90
        1
176
     0
 90
        4
176
     0
 62
     7
176
     0
 62
   257
176
     0
 90
        1
176
     0
 90
        1
176
     0
 40
1.0
176
     0
 90
        9
176
     2
 62
     7
176
     0
 40
1.0
176
     0
 90
        1
176
     0
 90
        6
176
     0
 90
        2
176
     0
 62
     7
176
     0
 90
        5
176
     0
 90
        0
176
     0
 90
        0
176
     0
290
     0
176
     0
 90
        1
176
     0
 40
0.0
176
     0
 90
        0
176
     0
290
     0
176
     0
290
     1
176
     0
290
     1
176
     0
290
     0
176
     0
290
     0
176
     0
290
     0
176
     0
290
     0
176
     0
290
     0
176
     0
290
     0
176
     0
 90
       50
176
     0
 40
0.0
176
     0
 40
1.0
176
     0
 90
        0
176
     0
 62
    18
420
        0
176
     0
 90
       50
176
     0
 90
        3
176
     0
 62
     5
420
      255
176
     0
290
     0
176
     0
 90
       50
176
     0
 90
       50
176
     0
 90
       50
176
     0
290
     0
176
     0
 90
       50
176
     0
 62
   256
176
     0
 40
1.0
176
     0
 90
        2
176
     0
  1
strokes_ogs.tif
176
     0
290
     0
176
     0
 40
1.0
176
     0
 40
1.0
176
     0
  0
VISUALSTYLE
  5
33
102
{ACAD_REACTORS
330
29
102
}
330
29
100
AcDbVisualStyle
  2
Realistic
 70
     8
177
     3
291
     0
 70
    58
 90
        2
176
     1
 90
        3
176
     1
 90
        0
176
     1
 90
        2
176
     1
 40
0.6
176
     1
 40
30.0
176
     1
 62
     7
420
 16777215
176
     1
 90
        0
176
     1
 90
        0
176
     1
 62
     7
176
     1
 62
   257
176
     1
 90
        1
176
     1
 90
        1
176
     1
 40
1.0
176
     1
 90
        8
176
     1
 62
   257
176
     1
 40
1.0
176
     1
 90
        1
176
     1
 90
        6
176
     1
 90
        2
176
     1
 62
     7
176
     1
 90
        3
176
     1
 90
        0
176
     1
 90
        0
176
     1
290
     0
176
     1
 90
       13
176
     1
 40
0.0
176
     1
 90
        0
176
     1
290
     0
176
     1
290
     1
176
     1
290
     1
176
     1
290
     0
176
     1
290
     0
176
     1
290
     0
176
     1
290
     0
176
     1
290
     0
176
     1
290
     0
176
     1
 90
       50
176
     1
 40
0.0
176
     1
 40
1.0
176
     1
 90
        0
176
     1
 62
    18
420
        0
176
     1
 90
       50
176
     1
 90
        3
176
     1
 62
     5
420
      255
176
     1
290
     0
176
     1
 90
       50
176
     1
 90
       50
176
     1
 90
       50
176
     1
290
     0
176
     1
 90
       50
176
     1
 62
   256
176
     0
 40
1.0
176
     0
 90
        2
176
     1
  1
strokes_ogs.tif
176
     1
290
     0
176
     1
 40
1.0
176
     1
 40
1.0
176
     1
  0
VISUALSTYLE
  5
3E
102
{ACAD_REACTORS
330
29
102
}
330
29
100
AcDbVisualStyle
  2
Shaded
 70
    27
177
     3
291
     0
 70
    58
 90
        2
176
     1
 90
        2
176
     1
 90
        1
176
     1
 90
        2
176
     1
 40
0.6
176
     1
 40
30.0
176
     1
 62
     7
420
 16777215
176
     1
 90
        0
176
     1
 90
        4
176
     1
 62
     7
176
     1
 62
   257
176
     1
 90
        1
176
     1
 90
        1
176
     1
 40
1.0
176
     1
 90
        8
176
     1
 62
   257
176
     1
 40
1.0
176
     1
 90
        1
176
     1
 90
        6
176
     1
 90
        2
176
     1
 62
     8
420
  7895160
176
     1
 90
        3
176
     1
 90
        0
176
     1
 90
        0
176
     1
290
     0
176
     1
 90
        5
176
     1
 40
0.0
176
     1
 90
        0
176
     1
290
     0
176
     1
290
     1
176
     1
290
     1
176
     1
290
     0
176
     1
290
     0
176
     1
290
     0
176
     1
290
     0
176
     1
290
     0
176
     1
290
     0
176
     1
 90
       50
176
     1
 40
0.0
176
     1
 40
1.0
176
     1
 90
        0
176
     1
 62
    18
420
        0
176
     1
 90
       50
176
     1
 90
        3
176
     1
 62
     5
420
      255
176
     1
290
     0
176
     1
 90
       50
176
     1
 90
       50
176
     1
 90
       50
176
     1
290
     0
176
     1
 90
       50
176
     1
 62
   256
176
     0
 40
1.0
176
     0
 90
        2
176
     1
  1
strokes_ogs.tif
176
     1
290
     0
176
     1
 40
1.0
176
     1
 40
1.0
176
     1
  0
VISUALSTYLE
  5
3D
102
{ACAD_REACTORS
330
29
102
}
330
29
100
AcDbVisualStyle
  2
Shaded with edges
 70
    26
177
     3
291
     0
 70
    58
 90
        2
176
     1
 90
        2
176
     1
 90
        1
176
     1
 90
        2
176
     1
 40
0.6
176
     1
 40
30.0
176
     1
 62
     7
420
 16777215
176
     1
 90
        1
176
     1
 90
        2
176
     1
 62
     7
176
     1
 62
   257
176
     1
 90
        2
176
     1
 90
        1
176
     1
 40
1.0
176
     1
 90
        8
176
     1
 62
   257
176
     1
 40
1.0
176
     1
 90
        1
176
     1
 90
        6
176
     1
 90
        2
176
     1
 62
     7
176
     1
 90
        3
176
     1
 90
        0
176
     1
 90
        0
176
     1
290
     0
176
     1
 90
        5
176
     1
 40
0.0
176
     1
 90
        0
176
     1
290
     0
176
     1
290
     1
176
     1
290
     1
176
     1
290
     0
176
     1
290
     0
176
     1
290
     0
176
     1
290
     0
176
     1
290
     0
176
     1
290
     0
176
     1
 90
       50
176
     1
 40
0.0
176
     1
 40
1.0
176
     1
 90
        0
176
     1
 62
    18
420
        0
176
     1
 90
       50
176
     1
 90
        3
176
     1
 62
     5
420
      255
176
     1
290
     0
176
     1
 90
       50
176
     1
 90
       50
176
     1
 90
       50
176
     1
290
     0
176
     1
 90
       50
176
     1
 62
   256
176
     0
 40
1.0
176
     0
 90
        2
176
     1
  1
strokes_ogs.tif
176
     1
290
     0
176
     1
 40
1.0
176
     1
 40
1.0
176
     1
  0
VISUALSTYLE
  5
3A
102
{ACAD_REACTORS
330
29
102
}
330
29
100
AcDbVisualStyle
  2
Shades of Gray
 70
    23
177
     3
291
     0
 70
    58
 90
        2
176
     1
 90
        2
176
     1
 90
        3
176
     1
 90
        0
176
     1
 40
0.6
176
     1
 40
30.0
176
     1
 62
     7
420
 16777215
176
     1
 90
        2
176
     1
 90
        2
176
     1
 62
     7
176
     1
 62
     7
176
     1
 90
        1
176
     1
 90
        1
176
     1
 40
40.0
176
     1
 90
        8
176
     1
 62
     7
176
     1
 40
1.0
176
     1
 90
        1
176
     1
 90
        6
176
     1
 90
        2
176
     1
 62
     7
176
     1
 90
        3
176
     1
 90
        0
176
     1
 90
        0
176
     1
290
     0
176
     1
 90
        1
176
     1
 40
0.0
176
     1
 90
        0
176
     1
290
     0
176
     1
290
     1
176
     1
290
     1
176
     1
290
     0
176
     1
290
     0
176
     1
290
     0
176
     1
290
     0
176
     1
290
     0
176
     1
290
     0
176
     1
 90
       50
176
     1
 40
0.0
176
     1
 40
1.0
176
     1
 90
        0
176
     1
 62
    18
420
        0
176
     1
 90
       50
176
     1
 90
        3
176
     1
 62
     5
420
      255
176
     1
290
     0
176
     1
 90
       50
176
     1
 90
       50
176
     1
 90
       50
176
     1
290
     0
176
     1
 90
       50
176
     1
 62
   256
176
     0
 40
1.0
176
     0
 90
        2
176
     1
  1
strokes_ogs.tif
176
     1
290
     0
176
     1
 40
1.0
176
     1
 40
1.0
176
     1
  0
VISUALSTYLE
  5
3B
102
{ACAD_REACTORS
330
29
102
}
330
29
100
AcDbVisualStyle
  2
Sketchy
 70
    24
177
     3
291
     0
 70
    58
 90
        1
176
     1
 90
        2
176
     1
 90
        2
176
     1
 90
        0
176
     1
 40
0.6
176
     1
 40
30.0
176
     1
 62
     7
420
 16777215
176
     1
 90
        2
176
     1
 90
        2
176
     1
 62
     7
176
     1
 62
     7
176
     1
 90
        1
176
     1
 90
        1
176
     1
 40
40.0
176
     1
 90
       11
176
     1
 62
     7
176
     1
 40
1.0
176
     1
 90
        1
176
     1
 90
        6
176
     1
 90
        2
176
     1
 62
     7
176
     1
 90
        6
176
     1
 90
        0
176
     1
 90
        0
176
     1
290
     0
176
     1
 90
        1
176
     1
 40
0.0
176
     1
 90
        0
176
     1
290
     0
176
     1
290
     1
176
     1
290
     1
176
     1
290
     0
176
     1
290
     0
176
     1
290
     0
176
     1
290
     0
176
     1
290
     0
176
     1
290
     0
176
     1
 90
       50
176
     1
 40
0.0
176
     1
 40
1.0
176
     1
 90
        0
176
     1
 62
    18
420
        0
176
     1
 90
       50
176
     1
 90
        3
176
     1
 62
     5
420
      255
176
     1
290
     0
176
     1
 90
       50
176
     1
 90
       50
176
     1
 90
       50
176
     1
290
     0
176
     1
 90
       50
176
     1
 62
   256
176
     0
 40
1.0
176
     0
 90
        2
176
     1
  1
strokes_ogs.tif
176
     1
290
     0
176
     1
 40
1.0
176
     1
 40
1.0
176
     1
  0
VISUALSTYLE
  5
36
102
{ACAD_REACTORS
330
29
102
}
330
29
100
AcDbVisualStyle
  2
Thicken
 70
    13
177
     3
291
     1
 70
    58
 90
        2
176
     1
 90
        2
176
     1
 90
        0
176
     1
 90
        0
176
     1
 40
0.6
176
     1
 40
30.0
176
     1
 62
     7
420
 16777215
176
     1
 90
        1
176
     1
 90
        4
176
     1
 62
     7
176
     1
 62
   257
176
     1
 90
        1
176
     1
 90
        1
176
     1
 40
1.0
176
     1
 90
       12
176
     1
 62
     7
176
     1
 40
1.0
176
     1
 90
        1
176
     1
 90
        6
176
     1
 90
        2
176
     1
 62
     7
176
     1
 90
        5
176
     1
 90
        0
176
     1
 90
        0
176
     1
290
     0
176
     1
 90
        1
176
     1
 40
0.0
176
     1
 90
        0
176
     1
290
     0
176
     1
290
     1
176
     1
290
     1
176
     1
290
     0
176
     1
290
     0
176
     1
290
     0
176
     1
290
     0
176
     1
290
     0
176
     1
290
     0
176
     1
 90
       50
176
     1
 40
0.0
176
     1
 40
1.0
176
     1
 90
        0
176
     1
 62
    18
420
        0
176
     1
 90
       50
176
     1
 90
        3
176
     1
 62
     5
420
      255
176
     1
290
     0
176
     1
 90
       50
176
     1
 90
       50
176
     1
 90
       50
176
     1
290
     0
176
     1
 90
       50
176
     1
 62
   256
176
     0
 40
1.0
176
     0
 90
        2
176
     1
  1
strokes_ogs.tif
176
     1
290
     0
176
     1
 40
1.0
176
     1
 40
1.0
176
     1
  0
VISUALSTYLE
  5
30
102
{ACAD_REACTORS
330
29
102
}
330
29
100
AcDbVisualStyle
  2
Wireframe
 70
     5
177
     3
291
     0
 70
    58
 90
        0
176
     1
 90
        2
176
     1
 90
        0
176
     1
 90
        0
176
     1
 40
0.6
176
     1
 40
30.0
176
     1
 62
     7
420
 16777215
176
     1
 90
        1
176
     1
 90
        4
176
     1
 62
     7
176
     1
 62
   257
176
     1
 90
        1
176
     1
 90
        1
176
     1
 40
1.0
176
     1
 90
        0
176
     1
 62
   257
176
     1
 40
1.0
176
     1
 90
        1
176
     1
 90
        6
176
     1
 90
        2
176
     1
 62
     7
176
     1
 90
        3
176
     1
 90
        0
176
     1
 90
        0
176
     1
290
     0
176
     1
 90
        1
176
     1
 40
0.0
176
     1
 90
        0
176
     1
290
     0
176
     1
290
     1
176
     1
290
     1
176
     1
290
     0
176
     1
290
     0
176
     1
290
     0
176
     1
290
     0
176
     1
290
     0
176
     1
290
     0
176
     1
 90
       50
176
     1
 40
0.0
176
     1
 40
1.0
176
     1
 90
        0
176
     1
 62
    18
420
        0
176
     1
 90
       50
176
     1
 90
        3
176
     1
 62
     5
420
      255
176
     1
290
     0
176
     1
 90
       50
176
     1
 90
       50
176
     1
 90
       50
176
     1
290
     0
176
     1
 90
       50
176
     1
 62
   256
176
     0
 40
1.0
176
     0
 90
        2
176
     1
  1
strokes_ogs.tif
176
     1
290
     0
176
     1
 40
1.0
176
     1
 40
1.0
176
     1
  0
VISUALSTYLE
  5
3C
102
{ACAD_REACTORS
330
29
102
}
330
29
100
AcDbVisualStyle
  2
X-Ray
 70
    25
177
     3
291
     0
 70
    58
 90
        2
176
     1
 90
        2
176
     1
 90
        1
176
     1
 90
        1
176
     1
 40
0.5
176
     1
 40
30.0
176
     1
 62
     7
420
 16777215
176
     1
 90
        1
176
     1
 90
        0
176
     1
 62
     7
176
     1
 62
   257
176
     1
 90
        1
176
     1
 90
        1
176
     1
 40
1.0
176
     1
 90
        8
176
     1
 62
     7
176
     1
 40
1.0
176
     1
 90
        1
176
     1
 90
        6
176
     1
 90
        2
176
     1
 62
     7
176
     1
 90
        3
176
     1
 90
        0
176
     1
 90
        0
176
     1
290
     0
176
     1
 90
       13
176
     1
 40
0.0
176
     1
 90
        0
176
     1
290
     0
176
     1
290
     1
176
     1
290
     1
176
     1
290
     0
176
     1
290
     0
176
     1
290
     0
176
     1
290
     0
176
     1
290
     0
176
     1
290
     0
176
     1
 90
       50
176
     1
 40
0.0
176
     1
 40
1.0
176
     1
 90
        0
176
     1
 62
    18
420
        0
176
     1
 90
       50
176
     1
 90
        3
176
     1
 62
     5
420
      255
176
     1
290
     0
176
     1
 90
       50
176
     1
 90
       50
176
     1
 90
       50
176
     1
290
     0
176
     1
 90
       50
176
     1
 62
   256
176
     0
 40
1.0
176
     0
 90
        2
176
     1
  1
strokes_ogs.tif
176
     1
290
     0
176
     1
 40
1.0
176
     1
 40
1.0
176
     1
  0
DICTIONARYVAR
  5
9F
102
{ACAD_REACTORS
330
9A
102
}
330
9A
100
DictionaryVariables
280
     0
  1
1:1
  0
DICTIONARYVAR
  5
9C
102
{ACAD_REACTORS
330
9A
102
}
330
9A
100
DictionaryVariables
280
     0
  1
STANDARD
  0
DICTIONARYVAR
  5
9B
102
{ACAD_REACTORS
330
9A
102
}
330
9A
100
DictionaryVariables
280
     0
  1
STANDARD
  0
DICTIONARYVAR
  5
9D
102
{ACAD_REACTORS
330
9A
102
}
330
9A
100
DictionaryVariables
280
     0
  1
Imperial24
  0
DICTIONARYVAR
  5
9E
102
{ACAD_REACTORS
330
9A
102
}
330
9A
100
DictionaryVariables
280
     0
  1
Imperial24
  0
DICTIONARY
  5
1A
330
19
100
AcDbDictionary
280
     1
281
     1
  3
BUMPTILE
360
1C
  3
DIFFUSETILE
360
1B
  3
OPACITYTILE
360
1F
  3
REFLECTIONTILE
360
1E
  3
REFRACTIONTILE
360
20
  3
SPECULARTILE
360
1D
  0
DICTIONARY
  5
12
330
11
100
AcDbDictionary
280
     1
281
     1
  3
BUMPTILE
360
14
  3
DIFFUSETILE
360
13
  3
OPACITYTILE
360
17
  3
REFLECTIONTILE
360
16
  3
REFRACTIONTILE
360
18
  3
SPECULARTILE
360
15
  0
DICTIONARY
  5
22
330
21
100
AcDbDictionary
280
     1
281
     1
  3
BUMPTILE
360
24
  3
DIFFUSETILE
360
23
  3
OPACITYTILE
360
27
  3
REFLECTIONTILE
360
26
  3
REFRACTIONTILE
360
28
  3
SPECULARTILE
360
25
  0
DICTIONARY
  5
A0
330
65
100
AcDbDictionary
280
     1
281
     1
  3
ACAD_ROUNDTRIP_2008_TABLESTYLE_CELLSTYLEMAP
360
A1
  0
XRECORD
  5
1C
102
{ACAD_REACTORS
330
1A
102
}
330
1A
100
AcDbXrecord
280
     1
270
     1
271
     1
  0
XRECORD
  5
1B
102
{ACAD_REACTORS
330
1A
102
}
330
1A
100
AcDbXrecord
280
     1
270
     1
271
     1
  0
XRECORD
  5
1F
102
{ACAD_REACTORS
330
1A
102
}
330
1A
100
AcDbXrecord
280
     1
270
     1
271
     1
  0
XRECORD
  5
1E
102
{ACAD_REACTORS
330
1A
102
}
330
1A
100
AcDbXrecord
280
     1
270
     1
271
     1
  0
XRECORD
  5
20
102
{ACAD_REACTORS
330
1A
102
}
330
1A
100
AcDbXrecord
280
     1
270
     1
271
     1
  0
XRECORD
  5
1D
102
{ACAD_REACTORS
330
1A
102
}
330
1A
100
AcDbXrecord
280
     1
270
     1
271
     1
  0
XRECORD
  5
14
102
{ACAD_REACTORS
330
12
102
}
330
12
100
AcDbXrecord
280
     1
270
     1
271
     1
  0
XRECORD
  5
13
102
{ACAD_REACTORS
330
12
102
}
330
12
100
AcDbXrecord
280
     1
270
     1
271
     1
  0
XRECORD
  5
17
102
{ACAD_REACTORS
330
12
102
}
330
12
100
AcDbXrecord
280
     1
270
     1
271
     1
  0
XRECORD
  5
16
102
{ACAD_REACTORS
330
12
102
}
330
12
100
AcDbXrecord
280
     1
270
     1
271
     1
  0
XRECORD
  5
18
102
{ACAD_REACTORS
330
12
102
}
330
12
100
AcDbXrecord
280
     1
270
     1
271
     1
  0
XRECORD
  5
15
102
{ACAD_REACTORS
330
12
102
}
330
12
100
AcDbXrecord
280
     1
270
     1
271
     1
  0
XRECORD
  5
24
102
{ACAD_REACTORS
330
22
102
}
330
22
100
AcDbXrecord
280
     1
270
     1
271
     1
  0
XRECORD
  5
23
102
{ACAD_REACTORS
330
22
102
}
330
22
100
AcDbXrecord
280
     1
270
     1
271
     1
  0
XRECORD
  5
27
102
{ACAD_REACTORS
330
22
102
}
330
22
100
AcDbXrecord
280
     1
270
     1
271
     1
  0
XRECORD
  5
26
102
{ACAD_REACTORS
330
22
102
}
330
22
100
AcDbXrecord
280
     1
270
     1
271
     1
  0
XRECORD
  5
28
102
{ACAD_REACTORS
330
22
102
}
330
22
100
AcDbXrecord
280
     1
270
     1
271
     1
  0
XRECORD
  5
25
102
{ACAD_REACTORS
330
22
102
}
330
22
100
AcDbXrecord
280
     1
270
     1
271
     1
  0
CELLSTYLEMAP
  5
A1
102
{ACAD_REACTORS
330
A0
102
}
330
A0
100
AcDbCellStyleMap
 90
        3
300
CELLSTYLE
  1
TABLEFORMAT_BEGIN
 90
        5
170
     1
 91
        0
 92
    32768
 62
   257
 93
        1
300
CONTENTFORMAT
  1
CONTENTFORMAT_BEGIN
 90
        0
 91
        0
 92
      512
 93
        0
300

 40
0.0
140
1.0
 94
        5
 62
     0
340
55
144
0.25
309
CONTENTFORMAT_END
171
     0
 94
        0
309
TABLEFORMAT_END
  1
CELLSTYLE_BEGIN
 90
        1
 91
        1
300
_TITLE
309
CELLSTYLE_END
300
CELLSTYLE
  1
TABLEFORMAT_BEGIN
 90
        5
170
     1
 91
        0
 92
        0
 62
   257
 93
        1
300
CONTENTFORMAT
  1
CONTENTFORMAT_BEGIN
 90
        0
 91
        0
 92
      512
 93
        0
300

 40
0.0
140
1.0
 94
        5
 62
     0
340
55
144
0.18
309
CONTENTFORMAT_END
171
     0
 94
        0
309
TABLEFORMAT_END
  1
CELLSTYLE_BEGIN
 90
        2
 91
        1
300
_HEADER
309
CELLSTYLE_END
300
CELLSTYLE
  1
TABLEFORMAT_BEGIN
 90
        5
170
     1
 91
        0
 92
        0
 62
   257
 93
        1
300
CONTENTFORMAT
  1
CONTENTFORMAT_BEGIN
 90
        0
 91
        0
 92
      512
 93
        0
300

 40
0.0
140
1.0
 94
        2
 62
     0
340
55
144
0.18
309
CONTENTFORMAT_END
171
     0
 94
        0
309
TABLEFORMAT_END
  1
CELLSTYLE_BEGIN
 90
        3
 91
        2
300
_DATA
309
CELLSTYLE_END
  0
ENDSEC
  0
EOF
