<?xml version="1.0" encoding="utf-8"?>
<!-- Generator: Adobe Illustrator 25.2.0, SVG Export Plug-In . SVG Version: 6.00 Build 0)  -->
<svg version="1.1" id="Layer_1" xmlns="http://www.w3.org/2000/svg" xmlns:xlink="http://www.w3.org/1999/xlink" x="0px" y="0px"
	 viewBox="0 0 300 300" style="enable-background:new 0 0 300 300;" xml:space="preserve">
<g>
	<path d="M65.99,61.16c-4.49-2.81-13.5-42.13-3.02-34.27c3.28,14.04,16.35,21.45,22.54,33.8c6.54,14.94,0.6,14.56,15.29,27.08
		c0.1-0.06,0.2-0.11,0.3-0.17c-2.25-5.76-2.54-26.64,3.36-28.37c1.26,0.07,2.29,1.42,2.34,2.81c2.14,12.45,10.49,23.09,9.25,36.31
		c-0.16,4.01,0.32,8.29-0.19,12.21c-0.84,0.98-0.28,1.75,0.18,2.58c4.32,7.3,5.41,15.9,9.39,23.39
		c8.21,20.25,10.03,44.13,1.34,64.55c-1.57,4.06,8.07,0.98,10.3,1.65c0.72-0.01,0.88-0.27,0.95-0.9c0.42-3.64,0.82-7.29,2.28-10.67
		c6.11-9.87,19.14,10.89,9.35,14.56c-2.09,1.15-5.51,1-6.98,2.72c0.28,2.34-1.84,8.24,0.5,9.15c6.95-3.24,14.44-3.74,19.7,2.69
		c11.97,8.31,11.77,13.26-3.6,14.22c-14.15-0.71-28.48-1.29-42.71-2.3c-1.69-0.15-1.8-0.12-1.19,1.54
		c2.96,5.08,6.78,17.11,13.84,16.07c8.66-5.09,19.75,4.46,27.35-2c1.28-1.92,8.89-11.41,8.22-4.21
		c-7.09,15.93-17.03,9.21-30.02,9.28c-4.35,1.21-9.29,3.14-12.75-0.8c-5.59-6.07-10.98-13.75-11.78-22.16
		c-0.59-5.62,12.78-0.37,16.54-1.38c13.03-0.97,26.79,3.92,39.31,0.16c-4.71-3.18-8.4-10.04-14.76-9.16
		c-4.1,0.71-11.09,5.53-13.06-0.56c-1.68-3.36,1.52-9.41-0.84-11.68c-3.87-0.93-8.08,1.21-11.74-0.08
		c-8.6-4.54,2.08-15.98,1.38-23.5c3.08-13.26-0.48-26.97-3.35-39.98c-2.35,2.51-4.56,4.88-6.87,7.35c9.5,5.31,2.78,10.13-2.91,2.8
		c-0.43-0.62-0.76-0.64-1.42-0.33c-8.15,2.23-2.46,4.3-4.77,10.06c-4.18,4.4-4.07-3.46-3.83-6.14c0.58-2.73-7.38-0.59-9.34-1.11
		c-1.94,0.23-0.53,4.02-1.13,5.56c-0.11,1.35-1.39,2.54-2.74,2.18c-2.72-0.88-1.07-4.9-1.22-7.06c0.73-1.76-6.48-2.18-8.11-3.49
		c-2.06-0.93-1.13,3.4-2.57,4.35c-1.11,1.58-3.98,0.51-3.59-1.5c-0.12-2.22,2.49-4.81,0.47-6.55c-2.5-2.21-4.92-4.51-7.34-6.8
		c-0.95-0.9-2.89-1.66-2.3-2.78c1.46-2.26,4.37,0.74,6.17,2.49c12.85,12.51,42.39,14.31,49.01-5.03c-2.61-3.65-2.46-9.4-5.69-12.26
		c-15.79-5.31-27.76-3.99-39.77-18.17c-5.19-8.11,12.56-1.88,15.96-2.06c7.97,0.89,14.5,5.1,20.47,10.08
		c-6.79-15.64-16.87-30.37-31.63-39.27c-6.92-7.85-13.59-11.96-24.37-11.21c-1.8-0.05-1.77,0-1.99,1.76
		c-1.81,11.37-1.53,22.93-2.06,34.4c-0.35,39.27,2.9,79.9,15.49,117.19c9.37,24.76,30.49,40.81,52.48,53.91
		c13.7,8.72,32.39,5.03,46.56-0.78c19.83-11.03,37.15-30.27,47.16-49.62c-11.94-13.7-13.39-32.31-12.79-49.67
		c0.02-1.18,0.83-2.08,1.88-2.24c2.59-0.44,2.82,2.94,3.33,4.76c2.64,12.83,11.29,23.24,13.74,36.1
		c6.52-12.16,3.44-26.17,6.55-39.14c0.23-1.35,0.25-1.31-0.82-2.01c-17.83-14.05-23.42-37.98-28.38-59.08
		c-1.05-2.33,1.47-5.16,3.58-3.01c1.99,3.14,2.58,7.09,4.79,10.15c8.02,12.73,19.06,24.39,22.2,39.48c4-20.37-2.55-40.33-8.26-59.71
		c-2.15-3.67-3.83-35.83,4.41-27.66c2.39,8.51,5.95,16.7,7.74,25.46c2.87,8.6,1.57,17.7-0.6,26.29c2.88,12.15,1.95,24.59,1.53,36.9
		c6.48-14.98,19.16-24.96,32.35-33.81c1.08-0.77,2.27-0.73,3.06,0.03c1.11,0.98,0.61,2.72-0.5,3.77
		c-7.4,8.13-8.15,19.86-13.02,29.43c-4.7,10.15-11.29,19.44-19.54,27c-2.1,2.68-6.35,4.77-6.15,8.46
		c-1.08,16.7-10.23,31.68-20.09,44.76c-12.41,16.09-26.82,33.03-46.68,39.72c-14.22,4.25-31.4,6.7-44.46-1.96
		c-16.24-10.74-34.08-20.61-44.18-37.95C50.53,205.97,47.3,137.34,47.9,98.17c0.97-11.86-1.05-25.45,3.6-36.28
		C55.45,59.09,61.38,60.91,65.99,61.16z M229.93,183.3c0.1,0.08,0.2,0.17,0.31,0.25c14.38-12.72,23.08-30.38,27.82-48.57
		C241.56,145.83,232.8,164.25,229.93,183.3z M84.46,71.12c-1.83-13.48-14.32-21.21-21.12-32.03C63.26,53.16,72.54,64.51,84.46,71.12
		z M224.4,162.85c-1.49-14.19-10.24-26.02-18.75-36.88C209.6,139.34,214.7,152.57,224.4,162.85z M111.24,103.22
		c0.15-0.05,0.29-0.09,0.44-0.14c0.63-11.31-1.88-21.96-7.32-32C102.38,82.17,106.87,93.25,111.24,103.22z M205.8,187.73
		c-0.3,8.1,5.21,24.93,9.08,28.14C217.03,205.56,209.55,196.79,205.8,187.73z M108.12,118.3c-5.88-7.37-15.66-8.57-24.43-9.75
		C89.75,115.63,99.29,117.39,108.12,118.3z M222.52,79.06c-0.1,0.02-0.19,0.04-0.29,0.06c-1.22,11.26,3.2,22.09,6.22,32.73
		c0.12-0.01,0.25-0.02,0.37-0.02C230.13,100.53,225.71,89.69,222.52,79.06z M142.41,201.76c-0.67,2.85,2.34,0.98,3.76,0.62
		c3.05-1.16,2.52-0.62,2.26-3.82c-0.19-2.39-1.44-3.99-3.48-5.11C142.66,193.29,142.96,200.04,142.41,201.76z"/>
	<path d="M176.38,72.06c5.39,0.42,45.17,11.73,33.23,19.2c-2.01,0.29-2.01,0.29-0.98,2.07c5.44,13.08-25.65,0.21-29.72-2.81
		c-0.08,0.09-0.17,0.19-0.25,0.28c3.86,5.68,22.02,22.91,7.83,25.6c-2.05-0.13-1.44,1.58-2.3,2.84c-8.86,6.33-21-12.25-23.45-19.69
		c-0.52,5.14-13.13,34.35-19.45,25.37c-0.48-1.71-2.29,0.06-3.5-0.37c-11.95-4.91,7.77-27.24,9.55-35.19
		c-7.26,5.36-15.41,10.61-24.8,10.16c-2.82,0.04-5.05-2.75-3.08-5.27c0.27-0.37,0.93-0.66,0.14-1.23
		c-8.76-8.38,12.62-14.44,18.42-16.55c-5.57,0.11-35.17-13.43-25.64-19.67c1.14-0.31,1.14-0.31,0.75-1.38
		c-3.85-13.5,25.52,3.61,30.24,5.18c-3.88-6.68-7.86-13.69-8.68-21.52c-0.46-4.11-2.94-20.01,5-11.97
		c5.94-17.51,15.71,16.74,18.66,21.75c2.43-9.65,4.5-21.73,13.5-27.26c2.59-1.11,4.18,0.49,4.35,3.09
		c19.44-7.1,3.97,21.37,1.51,28.67c4.76-3.09,22.48-12.63,23.54-2.66c-0.24,1.16-0.22,1.1,0.92,1.52
		C222.53,63.3,183.86,69.96,176.38,72.06z M171.37,27.98c-8.74,10.72-10.11,25.9-8.27,39.07c3.71-0.8,24.62-41.18,16.64-39.16
		C176.65,29.87,171.18,35.64,171.37,27.98z M186.06,112.06c5.77-1.53-16.9-26.07-21.31-26.62c-1.05-0.44-1.59-0.13-1.56,0.95
		c-0.45,11.6,5.25,21.97,14.45,28.77c2.01,1.19,3.64,1.76,2.49-1.33C179.6,109.74,183.84,110.88,186.06,112.06z M144.15,27.85
		c-1.88,7.38-4.96,2.59-5.82,4.9c0.63,12.41,6.35,24.63,15.27,33.2C163.66,66.94,146.74,32.67,144.15,27.85z M205.15,86.95
		c-3.49-3.76-38.13-15.81-36.79-7.69c11.27,6.47,22.38,14.62,35.84,15.31C202.38,91.64,200.46,87.8,205.15,86.95z M157.9,89.28
		c0-1.43-0.71-6.65-2.73-4.16c-5.91,11.08-13.88,21.66-16.81,34.01c-0.02,3.14,5.49-3.79,7.23-0.14
		C151.9,117.86,157.75,96.11,157.9,89.28z M195.77,50.87c-12.24,1.39-22.35,10.12-29.39,19.72c3.17-2.18,45.56-9.28,34.97-14.05
		C197.8,55.66,191.07,56.31,195.77,50.87z M148.5,72.2c0-0.04,0-0.09,0-0.13c10.42-0.98-28-17.52-30.55-17.07
		c1.8,5.67-2.26,5.89-0.12,7.46C126.33,69.63,137.45,73.1,148.5,72.2z M124.61,95.08c3.87,2.47,33.51-16.04,25.08-16.77
		c-5.25,1.06-27.88,6.21-26.87,11.42C126.09,89.88,127.02,92.83,124.61,95.08z M154.19,73.24c0.41,3.04,1.6,8.23,5.46,7.18
		c2.28-0.65,4.74-3.05,4.2-5.4C163.01,70.56,154.74,66.7,154.19,73.24z"/>
	<path d="M171.52,134.26c14.77-15.93,30.74,9.66,10.69,17.56c12.2,11.79-7.18,35.54-16.54,16.46c-0.5-1.46-1.73,0.63-2.43,1.01
		c-2.07,1.99-4.63,2.63-7.4,2.83c-8.44-0.68-11.38-11.6-6.85-18.31c-10.38-2.19-10.52-18.33,1.64-15.87
		C143.5,119.95,168.5,118.84,171.52,134.26z M180.81,133.51c-3.89,0.08-9.14,5.88-8.79,9.45c2.09,1.01,2.69,3.34,3.93,4.97
		C185.27,150.44,193.44,134.75,180.81,133.51z M158.61,127.71c-9.55-0.07-2.99,15.22,3.36,15.37c1.5-0.92,4.03-0.5,4.63-2.42
		C168.75,134.92,165.09,127.76,158.61,127.71z M181.84,162.27c-0.41-3.53-1-7.03-4.73-8.36c-0.98-0.37-0.95-0.46-1.35,0.56
		c-1.19,2.97-3.04,5.32-6.15,6.43c-0.59,0.21-0.71,0.53-0.71,1.04C169.16,173.89,180.11,173.56,181.84,162.27z M151.17,161.04
		c0.53,8.93,9.65,8.2,12.3,0.71c0.15-0.52-0.06-0.67-0.49-0.74c-3.15-0.47-4.73-3.63-6.16-5.84
		C153.19,155.65,151.17,157.12,151.17,161.04z M166.85,146.25c-2.29-0.13-5.53,1.69-6.17,4.12c-0.06,2.68,0.94,6.19,4.16,6.41
		C171.93,159.54,175.19,145.69,166.85,146.25z M148.27,142.17c-1.68-0.08-2.47,0.56-2.59,1.9c-0.64,5.09,6,5.83,9.62,6.97
		c1.46,0.14,0.93-1.84,1.4-2.75c0.15-0.55,0.67-1.17,0.52-1.58C155.13,144.19,151.19,142.68,148.27,142.17z"/>
</g>
</svg>
