<svg version="1.2" baseProfile="tiny-ps" xmlns="http://www.w3.org/2000/svg" viewBox="0 0 100 100" width="100" height="100">
	<title>logo</title>
	<style>
		tspan { white-space:pre }
		.shp0 { fill: #eba196 } 
		.shp1 { fill: #010101 } 
		.shp2 { fill: #000000 } 
	</style>
	<path id="Layer" class="shp0" d="M88.88 27.8C88.43 23.45 86.73 19.04 83.2 15.91C79.09 12.27 73.12 10.8 67.38 9.72C60.64 8.46 53.82 7.53 46.95 6.94C39.27 6.28 30.79 6.26 24.79 10.46C19.66 14.05 17.53 20.05 17.38 25.76C17.24 31.48 18.8 37.1 19.79 42.75C21.33 51.55 21.46 60.54 20.17 69.38C19.6 73.28 18.76 77.18 18.98 81.1C19.2 85.02 20.63 89.07 23.92 91.77C27.03 94.31 31.37 95.34 35.56 96.03C46.48 97.82 57.78 97.89 68.73 96.23C72.51 95.66 76.3 94.87 79.69 93.32C83.09 91.78 86.1 89.41 87.62 86.36C89.23 83.12 89.04 79.45 88.83 75.93C89.35 67.3 87.75 58.17 87.22 49.54C86.77 42.14 89.62 35.21 88.88 27.8Z" />
	<g id="Layer">
		<path id="Layer" fill-rule="evenodd" class="shp1" d="M12.63 17.01C13.64 12.85 15.84 9.33 18.99 6.96C25.04 2.43 33.71 2.26 41.39 2.69C48.26 3.08 55.19 3.82 61.96 4.89C67.91 5.84 74.01 7.19 78.28 10.74C82.59 14.32 84.08 19.23 84.57 22.74C85.12 26.64 84.66 30.48 84.22 34.18C83.82 37.55 83.4 41.04 83.75 44.52C84.03 47.37 84.44 50.32 84.85 53.19C85.66 59.04 86.5 65.09 86.38 70.9C86.71 74.23 87.09 78.07 85.53 81.51C84.2 84.46 81.4 87.09 77.65 88.93C74.01 90.72 69.86 91.62 66.65 92.2C55.65 94.19 44.43 94.45 33.31 92.96C29.24 92.41 24.61 91.51 21.25 88.93C18.13 86.53 16.16 82.69 15.73 78.11C15.43 74.95 15.82 71.76 16.19 68.68C16.28 67.88 16.38 67.09 16.47 66.28C17.41 57.44 16.94 48.53 15.07 39.8C14.77 38.38 14.43 36.94 14.09 35.55C13.1 31.41 12.07 27.13 12.01 22.82C11.96 20.79 12.18 18.83 12.63 17.01ZM77.55 11.4C73.47 8.02 67.56 6.7 61.77 5.79C55.03 4.73 48.15 3.98 41.31 3.6C33.85 3.18 25.44 3.33 19.67 7.65C15.37 10.88 12.95 16.41 13.04 22.81C13.09 27.03 14.11 31.26 15.09 35.37C15.43 36.76 15.78 38.21 16.08 39.64C17.97 48.45 18.44 57.45 17.49 66.38C17.41 67.18 17.31 67.98 17.21 68.78C16.84 71.82 16.46 74.97 16.76 78.04C17.17 82.39 19 86.02 21.92 88.25C25.08 90.67 29.53 91.54 33.46 92.07C44.45 93.54 55.54 93.29 66.43 91.32C69.55 90.75 73.6 89.88 77.12 88.15C80.67 86.41 83.31 83.93 84.54 81.19C86.01 77.93 85.65 74.21 85.32 70.93C85.45 65.14 84.6 59.12 83.8 53.3C83.4 50.43 82.98 47.46 82.7 44.6C82.35 41.03 82.77 37.51 83.17 34.1C83.61 30.44 84.06 26.65 83.53 22.85C83.06 19.5 81.64 14.79 77.55 11.4Z" />
	</g>
	<g id="Layer">
		<path id="Layer" fill-rule="evenodd" class="shp2" d="M30.01 27.43C28.89 26.73 26.66 16.97 29.26 18.92C30.07 22.4 33.32 24.24 34.86 27.31C36.48 31.02 35 30.93 38.65 34.03C38.68 34.02 38.7 34.01 38.73 33.99C38.17 32.56 38.1 27.38 39.56 26.95C39.87 26.96 40.13 27.3 40.14 27.65C40.67 30.74 42.75 33.38 42.44 36.66C42.4 37.66 42.52 38.72 42.39 39.69C42.18 39.94 42.32 40.13 42.44 40.33C43.51 42.15 43.78 44.28 44.77 46.14C46.81 51.17 47.26 57.1 45.1 62.17C44.71 63.18 47.1 62.41 47.66 62.58C47.84 62.58 47.88 62.51 47.89 62.36C48 61.45 48.1 60.55 48.46 59.71C49.98 57.26 53.21 62.41 50.78 63.32C50.26 63.61 49.41 63.57 49.05 64C49.12 64.58 48.59 66.04 49.17 66.27C50.9 65.47 52.76 65.34 54.06 66.94C57.04 69 56.99 70.23 53.17 70.47C49.66 70.29 46.1 70.15 42.57 69.9C42.15 69.86 42.12 69.87 42.27 70.28C43 71.54 43.95 74.53 45.71 74.27C47.86 73.01 50.61 75.38 52.5 73.77C52.82 73.3 54.71 70.94 54.54 72.73C52.78 76.69 50.31 75.02 47.08 75.03C46 75.33 44.78 75.81 43.92 74.84C42.53 73.33 41.19 71.42 40.99 69.33C40.85 67.94 44.17 69.24 45.1 68.99C48.34 68.75 51.75 69.96 54.86 69.03C53.69 68.24 52.78 66.54 51.2 66.75C50.18 66.93 48.44 68.13 47.95 66.62C47.54 65.78 48.33 64.28 47.75 63.72C46.78 63.48 45.74 64.02 44.83 63.7C42.69 62.57 45.35 59.73 45.17 57.86C45.94 54.57 45.05 51.16 44.34 47.93C43.76 48.56 43.21 49.14 42.63 49.76C44.99 51.08 43.33 52.27 41.91 50.45C41.81 50.3 41.72 50.29 41.56 50.37C39.54 50.92 40.95 51.44 40.38 52.87C39.34 53.96 39.36 52.01 39.42 51.34C39.57 50.67 37.59 51.2 37.1 51.07C36.62 51.13 36.97 52.07 36.82 52.45C36.8 52.78 36.48 53.08 36.14 52.99C35.47 52.77 35.88 51.77 35.84 51.24C36.02 50.8 34.23 50.7 33.83 50.37C33.32 50.14 33.55 51.22 33.19 51.45C32.91 51.84 32.2 51.58 32.3 51.08C32.27 50.53 32.92 49.88 32.41 49.45C31.79 48.9 31.19 48.33 30.59 47.76C30.36 47.54 29.87 47.35 30.02 47.07C30.38 46.51 31.11 47.26 31.55 47.69C34.74 50.8 42.08 51.25 43.72 46.44C43.07 45.54 43.11 44.11 42.31 43.4C38.39 42.08 35.42 42.41 32.43 38.89C31.15 36.87 35.55 38.42 36.4 38.38C38.38 38.6 40 39.64 41.48 40.88C39.79 36.99 37.29 33.34 33.63 31.13C31.91 29.18 30.25 28.16 27.57 28.34C27.13 28.33 27.13 28.34 27.08 28.78C26.63 31.6 26.7 34.47 26.57 37.32C26.48 47.07 27.29 57.16 30.42 66.42C32.74 72.57 37.99 76.56 43.45 79.81C46.85 81.97 51.49 81.06 55.01 79.62C59.93 76.88 64.23 72.1 66.72 67.29C63.75 63.89 63.39 59.27 63.54 54.96C63.55 54.67 63.75 54.44 64.01 54.4C64.65 54.29 64.71 55.13 64.84 55.59C65.49 58.77 67.64 61.36 68.25 64.55C69.87 61.53 69.1 58.05 69.87 54.83C69.93 54.5 69.94 54.51 69.67 54.33C65.24 50.84 63.86 44.9 62.62 39.66C62.36 39.08 62.99 38.38 63.51 38.91C64.01 39.69 64.15 40.67 64.7 41.43C66.69 44.6 69.44 47.49 70.22 51.24C71.21 46.18 69.58 41.22 68.16 36.41C67.63 35.5 67.21 27.51 69.26 29.54C69.85 31.66 70.74 33.69 71.18 35.86C71.89 38 71.57 40.26 71.03 42.39C71.75 45.41 71.52 48.5 71.41 51.56C73.02 47.84 76.17 45.36 79.44 43.16C79.71 42.97 80.01 42.98 80.2 43.17C80.48 43.41 80.36 43.84 80.08 44.1C78.24 46.12 78.06 49.04 76.85 51.41C75.68 53.93 74.04 56.24 72 58.12C71.47 58.78 70.42 59.3 70.47 60.22C70.2 64.36 67.93 68.08 65.48 71.33C62.4 75.33 58.82 79.53 53.89 81.19C50.36 82.25 46.09 82.86 42.85 80.71C38.82 78.04 34.39 75.59 31.88 71.28C26.17 63.39 25.37 46.34 25.52 36.62C25.76 33.67 25.26 30.3 26.41 27.61C27.39 26.91 28.86 27.36 30.01 27.43ZM70.72 57.76C70.74 57.78 70.77 57.8 70.79 57.82C74.36 54.66 76.52 50.27 77.7 45.76C73.6 48.45 71.43 53.03 70.72 57.76ZM34.59 29.9C34.14 26.55 31.04 24.63 29.35 21.95C29.33 25.44 31.63 28.26 34.59 29.9ZM69.34 52.68C68.97 49.15 66.8 46.22 64.69 43.52C65.67 46.84 66.93 50.13 69.34 52.68ZM41.24 37.87C41.28 37.86 41.32 37.85 41.35 37.84C41.51 35.03 40.89 32.38 39.54 29.89C39.04 32.64 40.16 35.4 41.24 37.87ZM64.72 58.86C64.65 60.87 66.02 65.05 66.98 65.84C67.51 63.28 65.66 61.11 64.72 58.86ZM40.47 41.62C39.01 39.79 36.58 39.49 34.4 39.19C35.91 40.95 38.28 41.39 40.47 41.62ZM68.88 31.87C68.85 31.88 68.83 31.88 68.8 31.89C68.5 34.68 69.6 37.37 70.35 40.01C70.38 40.01 70.41 40.01 70.44 40.01C70.77 37.2 69.67 34.51 68.88 31.87ZM48.98 62.34C48.82 63.05 49.57 62.58 49.92 62.49C50.68 62.21 50.54 62.34 50.48 61.55C50.43 60.95 50.12 60.55 49.61 60.28C49.05 60.24 49.12 61.91 48.98 62.34Z" />
		<path id="Layer" fill-rule="evenodd" class="shp2" d="M57.42 30.13C58.76 30.24 68.64 33.05 65.67 34.9C65.17 34.97 65.17 34.97 65.43 35.42C66.78 38.66 59.06 35.47 58.05 34.72C58.03 34.74 58.01 34.76 57.99 34.79C58.94 36.2 63.45 40.48 59.93 41.14C59.42 41.11 59.57 41.54 59.36 41.85C57.16 43.42 54.14 38.81 53.54 36.96C53.41 38.24 50.28 45.49 48.71 43.26C48.59 42.83 48.14 43.27 47.84 43.17C44.87 41.95 49.77 36.4 50.21 34.43C48.41 35.76 46.38 37.06 44.05 36.95C43.35 36.96 42.8 36.27 43.29 35.64C43.35 35.55 43.52 35.48 43.32 35.34C41.14 33.26 46.45 31.75 47.89 31.23C46.51 31.26 39.16 27.89 41.53 26.34C41.81 26.27 41.81 26.27 41.71 26C40.76 22.65 48.05 26.9 49.22 27.29C48.26 25.63 47.27 23.89 47.07 21.94C46.95 20.92 46.34 16.98 48.31 18.97C49.78 14.62 52.21 23.13 52.94 24.37C53.55 21.98 54.06 18.98 56.29 17.6C56.94 17.33 57.33 17.73 57.37 18.37C62.2 16.61 58.36 23.68 57.75 25.49C58.93 24.72 63.33 22.35 63.6 24.83C63.54 25.12 63.54 25.1 63.82 25.21C68.88 27.96 59.28 29.61 57.42 30.13ZM56.18 19.19C54.01 21.85 53.66 25.62 54.12 28.89C55.04 28.69 60.24 18.66 58.25 19.17C57.49 19.66 56.13 21.09 56.18 19.19ZM59.82 40.07C61.26 39.69 55.63 33.59 54.53 33.46C54.27 33.35 54.14 33.42 54.14 33.69C54.03 36.57 55.45 39.15 57.73 40.84C58.23 41.13 58.64 41.27 58.35 40.51C58.22 39.49 59.27 39.77 59.82 40.07ZM49.42 19.16C48.95 20.99 48.18 19.8 47.97 20.37C48.13 23.45 49.55 26.49 51.76 28.62C54.26 28.86 50.06 20.35 49.42 19.16ZM64.56 33.83C63.7 32.9 55.1 29.91 55.43 31.92C58.23 33.53 60.99 35.55 64.33 35.72C63.88 35 63.4 34.04 64.56 33.83ZM52.83 34.41C52.83 34.05 52.65 32.76 52.15 33.38C50.69 36.13 48.71 38.75 47.98 41.82C47.97 42.6 49.34 40.88 49.77 41.79C51.34 41.51 52.79 36.11 52.83 34.41ZM62.23 24.87C59.19 25.22 56.68 27.38 54.94 29.77C55.72 29.23 66.25 27.46 63.62 26.28C62.74 26.06 61.07 26.22 62.23 24.87ZM50.5 30.17C50.5 30.16 50.5 30.15 50.5 30.14C53.08 29.89 43.54 25.79 42.91 25.9C43.36 27.31 42.35 27.36 42.88 27.75C44.99 29.53 47.75 30.39 50.5 30.17ZM44.56 35.85C45.53 36.46 52.89 31.87 50.79 31.69C49.49 31.95 43.87 33.23 44.12 34.52C44.93 34.56 45.16 35.29 44.56 35.85ZM51.91 30.43C52.01 31.18 52.31 32.47 53.27 32.21C53.83 32.05 54.44 31.45 54.31 30.87C54.1 29.76 52.05 28.8 51.91 30.43Z" />
		<path id="Layer" fill-rule="evenodd" class="shp2" d="M56.21 45.58C59.88 41.62 63.85 47.98 58.87 49.94C61.9 52.87 57.08 58.76 54.76 54.03C54.64 53.66 54.33 54.18 54.16 54.28C53.64 54.77 53.01 54.93 52.32 54.98C50.22 54.81 49.49 52.1 50.62 50.43C48.04 49.89 48.01 45.88 51.03 46.49C49.25 42.03 55.46 41.75 56.21 45.58ZM58.52 45.39C57.55 45.41 56.25 46.85 56.34 47.74C56.86 47.99 57 48.57 57.31 48.97C59.63 49.6 61.66 45.7 58.52 45.39ZM53.01 43.95C50.64 43.93 52.26 47.73 53.84 47.77C54.21 47.54 54.84 47.64 54.99 47.17C55.52 45.74 54.62 43.96 53.01 43.95ZM58.78 52.53C58.67 51.66 58.53 50.79 57.6 50.46C57.36 50.37 57.36 50.34 57.27 50.6C56.97 51.33 56.51 51.92 55.74 52.19C55.59 52.25 55.56 52.33 55.56 52.45C55.63 55.42 58.35 55.34 58.78 52.53ZM51.16 52.23C51.29 54.45 53.56 54.26 54.21 52.4C54.25 52.28 54.2 52.24 54.09 52.22C53.31 52.1 52.92 51.32 52.56 50.77C51.66 50.89 51.16 51.26 51.16 52.23ZM55.05 48.56C54.48 48.52 53.68 48.98 53.52 49.58C53.51 50.24 53.75 51.12 54.55 51.17C56.31 51.86 57.12 48.42 55.05 48.56ZM50.44 47.54C50.02 47.52 49.83 47.68 49.8 48.01C49.64 49.28 51.29 49.46 52.18 49.75C52.55 49.78 52.42 49.29 52.53 49.06C52.57 48.93 52.7 48.77 52.66 48.67C52.14 48.04 51.16 47.67 50.44 47.54Z" />
	</g>
</svg>