<?xml version="1.0" encoding="utf-8"?>
<!-- Generator: Adobe Illustrator 25.2.0, SVG Export Plug-In . SVG Version: 6.00 Build 0)  -->
<svg version="1.1" id="Layer_1" xmlns="http://www.w3.org/2000/svg" xmlns:xlink="http://www.w3.org/1999/xlink" x="0px" y="0px"
	 viewBox="0 0 300 300" style="enable-background:new 0 0 300 300;" xml:space="preserve">
<style type="text/css">
	.st0{fill:#F4B361;}
	.st1{fill:#010101;}
	.st2{fill:#EBA196;}
</style>
<g>
	<path class="st0" d="M286.49,173.76c2.31,36.24-15.96,57.13-68.39,51.97c-38.41-3.78-50.58-14.7-46.89-38.88
		c5.01-32.82-4.55-62.92,10.67-82.44c10.88-13.96,82.21-20.35,95.4,12.84c2.51,6.31,1.86,13.15,3.01,19.6
		C282.34,148.31,285.75,162.15,286.49,173.76z"/>
	<g>
		<path class="st1" d="M165.92,117.61c1.04-6.02,3.04-11.55,6.57-16.52c6.1-8.58,32.4-14.59,55.19-12.61
			c21.42,1.87,36.39,9.93,42.17,22.71c1.83,4.04,2.37,8.36,2.9,12.54c0.3,2.35,0.6,4.77,1.13,7.09c0.75,3.25,1.6,6.63,2.5,10.22
			c2.26,8.98,4.6,18.26,5.55,26.58l-0.83,0.03l0.83-0.03c2.36,20.69-2.21,35.18-13.98,44.29c-11.05,8.56-28.72,12.07-52.53,10.45
			c-21.02-1.43-34.3-5.27-41.79-12.08c-6.49-5.9-8.95-14.2-7.74-26.12c1.24-12.23,0.51-23.85-0.2-35.09
			C164.96,137.55,164.29,126.99,165.92,117.61z M280.03,187.9c1.03-5.91,1.1-12.63,0.24-20.2c-0.94-8.25-3.27-17.5-5.52-26.44
			c-0.91-3.59-1.76-6.98-2.51-10.24c-0.54-2.36-0.85-4.82-1.15-7.19c-0.52-4.1-1.05-8.34-2.81-12.23
			c-7.48-16.55-28.73-20.78-40.73-21.82c-24.3-2.12-48.34,4.58-53.6,11.98c-8.81,12.4-7.79,28.58-6.6,47.31
			c0.71,11.27,1.45,22.93,0.2,35.25c-1.17,11.55,1.16,19.55,7.34,25.16c7.17,6.52,20.08,10.22,40.63,11.62
			c23.3,1.59,40.55-1.81,51.25-10.09C273.9,205.46,278.31,197.82,280.03,187.9z"/>
	</g>
</g>
<g>
	<path class="st2" d="M137.8,121.88c-0.66-6.52-3.21-13.11-8.49-17.79c-6.15-5.45-15.09-7.65-23.68-9.26
		c-10.08-1.9-20.29-3.29-30.56-4.17c-11.49-0.98-24.19-1.02-33.16,5.27c-7.67,5.37-10.87,14.35-11.09,22.9
		c-0.21,8.55,2.13,16.96,3.61,25.41c2.3,13.18,2.49,26.63,0.57,39.86c-0.85,5.83-2.11,11.66-1.78,17.53
		c0.33,5.87,2.46,11.92,7.39,15.96c4.65,3.81,11.14,5.35,17.42,6.38c16.34,2.68,33.24,2.78,49.63,0.3
		c5.65-0.86,11.32-2.04,16.4-4.35c5.08-2.31,9.59-5.85,11.86-10.42c2.41-4.85,2.13-10.34,1.81-15.61
		c0.78-12.91-1.62-26.57-2.41-39.49C134.65,143.33,138.92,132.96,137.8,121.88z"/>
	<g>
		<path class="st1" d="M23.71,105.73c1.52-6.23,4.8-11.49,9.52-15.03c9.05-6.79,22.02-7.04,33.51-6.39
			C77.03,84.89,87.39,86,97.53,87.6c8.9,1.41,18.02,3.44,24.42,8.75c6.45,5.35,8.68,12.71,9.41,17.95
			c0.82,5.84,0.13,11.58-0.53,17.13c-0.6,5.04-1.22,10.25-0.7,15.47c0.42,4.26,1.04,8.68,1.64,12.96c1.22,8.76,2.48,17.81,2.29,26.5
			c0.5,4.99,1.07,10.73-1.26,15.89c-1.99,4.4-6.18,8.34-11.8,11.1c-5.45,2.68-11.66,4.02-16.45,4.89
			c-16.47,2.98-33.26,3.37-49.89,1.13c-6.1-0.82-13.02-2.17-18.05-6.03c-4.67-3.58-7.61-9.33-8.26-16.19
			c-0.45-4.72,0.13-9.49,0.69-14.1c0.14-1.2,0.29-2.39,0.42-3.59c1.41-13.23,0.71-26.57-2.09-39.63c-0.45-2.12-0.97-4.28-1.47-6.36
			c-1.49-6.19-3.03-12.6-3.12-19.05C22.71,111.38,23.04,108.46,23.71,105.73z M129.8,114.47c-0.7-5.02-2.82-12.06-8.94-17.13
			c-6.11-5.06-14.96-7.03-23.62-8.4c-10.08-1.59-20.38-2.7-30.61-3.28c-11.17-0.63-23.75-0.4-32.38,6.07
			c-6.44,4.83-10.06,13.1-9.93,22.68c0.08,6.32,1.61,12.65,3.08,18.79c0.5,2.09,1.02,4.26,1.48,6.39
			c2.82,13.19,3.53,26.65,2.11,40.01c-0.13,1.2-0.27,2.4-0.42,3.6c-0.55,4.55-1.12,9.26-0.68,13.85c0.62,6.51,3.36,11.94,7.73,15.28
			c4.73,3.62,11.38,4.92,17.26,5.71c16.44,2.21,33.04,1.83,49.33-1.12c4.68-0.85,10.73-2.16,16-4.74
			c5.31-2.61,9.26-6.31,11.11-10.42c2.2-4.87,1.65-10.44,1.16-15.35c0.19-8.66-1.07-17.67-2.28-26.38
			c-0.6-4.29-1.22-8.73-1.64-13.01c-0.53-5.35,0.1-10.62,0.7-15.72C129.92,125.82,130.6,120.15,129.8,114.47L129.8,114.47z"/>
	</g>
</g>
</svg>
